G04*
G04 #@! TF.GenerationSoftware,Altium Limited,Altium Designer,20.0.13 (296)*
G04*
G04 Layer_Color=16711935*
%FSLAX44Y44*%
%MOMM*%
G71*
G01*
G75*
%ADD36C,1.9200*%
%ADD37C,2.4032*%
%ADD38R,1.4632X1.4632*%
%ADD39C,1.4632*%
%ADD40O,1.5240X2.8448*%
%ADD41R,1.5240X2.8448*%
%ADD42R,1.7032X1.7032*%
%ADD43C,1.7032*%
%ADD44R,1.7112X1.7112*%
%ADD45C,1.7112*%
%ADD46C,2.1132*%
%ADD47R,2.1132X2.1132*%
%ADD48C,1.4032*%
%ADD49R,2.3032X2.3032*%
%ADD50C,2.3032*%
D36*
X172250Y330250D02*
D03*
X224250D02*
D03*
X102250Y181500D02*
D03*
X50250D02*
D03*
X287750Y362250D02*
D03*
Y310250D02*
D03*
X295500Y174500D02*
D03*
Y226500D02*
D03*
X194250Y266000D02*
D03*
Y214000D02*
D03*
D37*
X299500Y49750D02*
D03*
D38*
X82400Y423600D02*
D03*
D39*
X57000D02*
D03*
X31600D02*
D03*
Y347400D02*
D03*
X57000D02*
D03*
X82400D02*
D03*
D40*
X124550Y424600D02*
D03*
X149950D02*
D03*
Y348400D02*
D03*
D41*
X124550D02*
D03*
D42*
X19500Y551850D02*
D03*
X309250Y566300D02*
D03*
D43*
X19500Y526450D02*
D03*
Y501050D02*
D03*
Y475650D02*
D03*
Y450250D02*
D03*
X309250Y591700D02*
D03*
Y617100D02*
D03*
Y642500D02*
D03*
Y667900D02*
D03*
D44*
X88900Y625250D02*
D03*
D45*
X63500D02*
D03*
X38100D02*
D03*
D46*
X37850Y253250D02*
D03*
X63250D02*
D03*
D47*
X88650D02*
D03*
D48*
X141250Y264500D02*
D03*
Y164500D02*
D03*
X245250Y264500D02*
D03*
Y164500D02*
D03*
D49*
X137000Y812500D02*
D03*
X237000D02*
D03*
X87000Y56500D02*
D03*
X186750D02*
D03*
X37000Y812500D02*
D03*
D50*
X187000D02*
D03*
X287000D02*
D03*
X37000Y56500D02*
D03*
X136750D02*
D03*
X87000Y812500D02*
D03*
M02*
