G04*
G04 #@! TF.GenerationSoftware,Altium Limited,Altium Designer,20.0.13 (296)*
G04*
G04 Layer_Physical_Order=3*
G04 Layer_Color=16440176*
%FSLAX44Y44*%
%MOMM*%
G71*
G01*
G75*
%ADD63C,1.5000*%
%ADD71C,0.7000*%
G36*
X324941Y404500D02*
X3059D01*
Y865941D01*
X324941D01*
Y404500D01*
D02*
G37*
%LPC*%
G36*
X249500Y825000D02*
X224500D01*
Y800000D01*
X249500D01*
Y825000D01*
D02*
G37*
G36*
X149500D02*
X124500D01*
Y800000D01*
X149500D01*
Y825000D01*
D02*
G37*
G36*
X49500D02*
X24500D01*
Y800000D01*
X49500D01*
Y825000D01*
D02*
G37*
G36*
X287000Y825108D02*
X283737Y824678D01*
X280696Y823419D01*
X278085Y821415D01*
X276081Y818804D01*
X274822Y815763D01*
X274392Y812500D01*
X274822Y809237D01*
X276081Y806196D01*
X278085Y803585D01*
X280696Y801581D01*
X283737Y800322D01*
X287000Y799892D01*
X290263Y800322D01*
X293304Y801581D01*
X295915Y803585D01*
X297919Y806196D01*
X299178Y809237D01*
X299608Y812500D01*
X299178Y815763D01*
X297919Y818804D01*
X295915Y821415D01*
X293304Y823419D01*
X290263Y824678D01*
X287000Y825108D01*
D02*
G37*
G36*
X187000D02*
X183737Y824678D01*
X180696Y823419D01*
X178085Y821415D01*
X176081Y818804D01*
X174822Y815763D01*
X174392Y812500D01*
X174822Y809237D01*
X176081Y806196D01*
X178085Y803585D01*
X180696Y801581D01*
X183737Y800322D01*
X187000Y799892D01*
X190263Y800322D01*
X193304Y801581D01*
X195915Y803585D01*
X197919Y806196D01*
X199178Y809237D01*
X199608Y812500D01*
X199178Y815763D01*
X197919Y818804D01*
X195915Y821415D01*
X193304Y823419D01*
X190263Y824678D01*
X187000Y825108D01*
D02*
G37*
G36*
X87000D02*
X83737Y824678D01*
X80696Y823419D01*
X78085Y821415D01*
X76081Y818804D01*
X74822Y815763D01*
X74392Y812500D01*
X74822Y809237D01*
X76081Y806196D01*
X78085Y803585D01*
X80696Y801581D01*
X83737Y800322D01*
X87000Y799892D01*
X90263Y800322D01*
X93304Y801581D01*
X95915Y803585D01*
X97919Y806196D01*
X99178Y809237D01*
X99608Y812500D01*
X99178Y815763D01*
X97919Y818804D01*
X95915Y821415D01*
X93304Y823419D01*
X90263Y824678D01*
X87000Y825108D01*
D02*
G37*
G36*
X207000Y694108D02*
X204854Y693681D01*
X203035Y692465D01*
X201819Y690646D01*
X201392Y688500D01*
X201819Y686354D01*
X203035Y684535D01*
X204854Y683319D01*
X207000Y682892D01*
X209146Y683319D01*
X210965Y684535D01*
X212181Y686354D01*
X212608Y688500D01*
X212181Y690646D01*
X210965Y692465D01*
X209146Y693681D01*
X207000Y694108D01*
D02*
G37*
G36*
X310520Y677859D02*
Y669170D01*
X319209D01*
X319032Y670521D01*
X318020Y672963D01*
X316411Y675061D01*
X314313Y676670D01*
X311871Y677682D01*
X310520Y677859D01*
D02*
G37*
G36*
X307980D02*
X306629Y677682D01*
X304187Y676670D01*
X302089Y675061D01*
X300480Y672963D01*
X299468Y670521D01*
X299291Y669170D01*
X307980D01*
Y677859D01*
D02*
G37*
G36*
X319209Y666630D02*
X310520D01*
Y657941D01*
X311871Y658118D01*
X314313Y659130D01*
X316411Y660739D01*
X318020Y662837D01*
X319032Y665279D01*
X319209Y666630D01*
D02*
G37*
G36*
X307980D02*
X299291D01*
X299468Y665279D01*
X300480Y662837D01*
X302089Y660739D01*
X304187Y659130D01*
X306629Y658118D01*
X307980Y657941D01*
Y666630D01*
D02*
G37*
G36*
X309250Y652082D02*
X306770Y651756D01*
X304459Y650798D01*
X302475Y649276D01*
X300952Y647291D01*
X299995Y644980D01*
X299668Y642500D01*
X299995Y640020D01*
X300952Y637709D01*
X302475Y635725D01*
X304459Y634202D01*
X306770Y633245D01*
X309250Y632918D01*
X311730Y633245D01*
X314041Y634202D01*
X316026Y635725D01*
X317548Y637709D01*
X318505Y640020D01*
X318832Y642500D01*
X318505Y644980D01*
X317548Y647291D01*
X316026Y649276D01*
X314041Y650798D01*
X311730Y651756D01*
X309250Y652082D01*
D02*
G37*
G36*
X98440Y634790D02*
X79360D01*
Y615710D01*
X98440D01*
Y634790D01*
D02*
G37*
G36*
X63500Y634872D02*
X61010Y634544D01*
X58689Y633583D01*
X56696Y632054D01*
X55167Y630061D01*
X54206Y627741D01*
X53878Y625250D01*
X54206Y622760D01*
X55167Y620439D01*
X56696Y618446D01*
X58689Y616917D01*
X61010Y615956D01*
X63500Y615628D01*
X65990Y615956D01*
X68311Y616917D01*
X70304Y618446D01*
X71833Y620439D01*
X72794Y622760D01*
X73122Y625250D01*
X72794Y627741D01*
X71833Y630061D01*
X70304Y632054D01*
X68311Y633583D01*
X65990Y634544D01*
X63500Y634872D01*
D02*
G37*
G36*
X38100D02*
X35610Y634544D01*
X33289Y633583D01*
X31296Y632054D01*
X29767Y630061D01*
X28806Y627741D01*
X28478Y625250D01*
X28806Y622760D01*
X29767Y620439D01*
X31296Y618446D01*
X33289Y616917D01*
X35610Y615956D01*
X38100Y615628D01*
X40590Y615956D01*
X42911Y616917D01*
X44904Y618446D01*
X46433Y620439D01*
X47394Y622760D01*
X47722Y625250D01*
X47394Y627741D01*
X46433Y630061D01*
X44904Y632054D01*
X42911Y633583D01*
X40590Y634544D01*
X38100Y634872D01*
D02*
G37*
G36*
X309250Y626682D02*
X306770Y626356D01*
X304459Y625398D01*
X302475Y623876D01*
X300952Y621891D01*
X299995Y619580D01*
X299668Y617100D01*
X299995Y614620D01*
X300952Y612309D01*
X302475Y610325D01*
X304459Y608802D01*
X306770Y607845D01*
X309250Y607518D01*
X311730Y607845D01*
X314041Y608802D01*
X316026Y610325D01*
X317548Y612309D01*
X318505Y614620D01*
X318832Y617100D01*
X318505Y619580D01*
X317548Y621891D01*
X316026Y623876D01*
X314041Y625398D01*
X311730Y626356D01*
X309250Y626682D01*
D02*
G37*
G36*
Y601282D02*
X306770Y600956D01*
X304459Y599998D01*
X302475Y598475D01*
X300952Y596491D01*
X299995Y594180D01*
X299668Y591700D01*
X299995Y589220D01*
X300952Y586909D01*
X302475Y584925D01*
X304459Y583402D01*
X306770Y582445D01*
X309250Y582118D01*
X311730Y582445D01*
X314041Y583402D01*
X316026Y584925D01*
X317548Y586909D01*
X318505Y589220D01*
X318832Y591700D01*
X318505Y594180D01*
X317548Y596491D01*
X316026Y598475D01*
X314041Y599998D01*
X311730Y600956D01*
X309250Y601282D01*
D02*
G37*
G36*
X318750Y575800D02*
X299750D01*
Y556800D01*
X318750D01*
Y575800D01*
D02*
G37*
G36*
X29000Y561350D02*
X10000D01*
Y542350D01*
X29000D01*
Y561350D01*
D02*
G37*
G36*
X165250Y545858D02*
X163104Y545431D01*
X161285Y544215D01*
X160069Y542396D01*
X159642Y540250D01*
X160069Y538104D01*
X161285Y536285D01*
X163104Y535069D01*
X165250Y534642D01*
X167396Y535069D01*
X169215Y536285D01*
X170431Y538104D01*
X170858Y540250D01*
X170431Y542396D01*
X169215Y544215D01*
X167396Y545431D01*
X165250Y545858D01*
D02*
G37*
G36*
X268625Y536733D02*
X266479Y536306D01*
X264660Y535090D01*
X263444Y533271D01*
X263017Y531125D01*
X263444Y528979D01*
X264660Y527160D01*
X266479Y525944D01*
X268625Y525517D01*
X270771Y525944D01*
X272590Y527160D01*
X273806Y528979D01*
X274233Y531125D01*
X273806Y533271D01*
X272590Y535090D01*
X270771Y536306D01*
X268625Y536733D01*
D02*
G37*
G36*
X19500Y536032D02*
X17020Y535705D01*
X14709Y534748D01*
X12725Y533226D01*
X11202Y531241D01*
X10245Y528930D01*
X9918Y526450D01*
X10245Y523970D01*
X11202Y521659D01*
X12725Y519675D01*
X14709Y518152D01*
X17020Y517195D01*
X19500Y516868D01*
X21980Y517195D01*
X24291Y518152D01*
X26275Y519675D01*
X27798Y521659D01*
X28756Y523970D01*
X29082Y526450D01*
X28756Y528930D01*
X27798Y531241D01*
X26275Y533226D01*
X24291Y534748D01*
X21980Y535705D01*
X19500Y536032D01*
D02*
G37*
G36*
X303000Y522858D02*
X300854Y522431D01*
X299035Y521215D01*
X297819Y519396D01*
X297392Y517250D01*
X297819Y515104D01*
X299035Y513285D01*
X300854Y512069D01*
X303000Y511642D01*
X305146Y512069D01*
X306965Y513285D01*
X308181Y515104D01*
X308608Y517250D01*
X308181Y519396D01*
X306965Y521215D01*
X305146Y522431D01*
X303000Y522858D01*
D02*
G37*
G36*
X19500Y510632D02*
X17020Y510305D01*
X14709Y509348D01*
X12725Y507826D01*
X11202Y505841D01*
X10245Y503530D01*
X9918Y501050D01*
X10245Y498570D01*
X11202Y496259D01*
X12725Y494275D01*
X14709Y492752D01*
X17020Y491795D01*
X19500Y491468D01*
X21980Y491795D01*
X24291Y492752D01*
X26275Y494275D01*
X27798Y496259D01*
X28756Y498570D01*
X29082Y501050D01*
X28756Y503530D01*
X27798Y505841D01*
X26275Y507826D01*
X24291Y509348D01*
X21980Y510305D01*
X19500Y510632D01*
D02*
G37*
G36*
X163750Y493858D02*
X161604Y493431D01*
X159785Y492215D01*
X158569Y490396D01*
X158142Y488250D01*
X158569Y486104D01*
X159785Y484285D01*
X161604Y483069D01*
X163750Y482642D01*
X165896Y483069D01*
X167715Y484285D01*
X168931Y486104D01*
X169358Y488250D01*
X168931Y490396D01*
X167715Y492215D01*
X165896Y493431D01*
X163750Y493858D01*
D02*
G37*
G36*
X307000Y492108D02*
X304854Y491681D01*
X303035Y490465D01*
X301819Y488646D01*
X301392Y486500D01*
X301819Y484354D01*
X303035Y482535D01*
X304854Y481319D01*
X307000Y480892D01*
X309146Y481319D01*
X310965Y482535D01*
X312181Y484354D01*
X312608Y486500D01*
X312181Y488646D01*
X310965Y490465D01*
X309146Y491681D01*
X307000Y492108D01*
D02*
G37*
G36*
X19500Y485232D02*
X17020Y484906D01*
X14709Y483948D01*
X12725Y482425D01*
X11202Y480441D01*
X10245Y478130D01*
X9918Y475650D01*
X10245Y473170D01*
X11202Y470859D01*
X12725Y468875D01*
X14709Y467352D01*
X17020Y466395D01*
X19500Y466068D01*
X21980Y466395D01*
X24291Y467352D01*
X26275Y468875D01*
X27798Y470859D01*
X28756Y473170D01*
X29082Y475650D01*
X28756Y478130D01*
X27798Y480441D01*
X26275Y482425D01*
X24291Y483948D01*
X21980Y484906D01*
X19500Y485232D01*
D02*
G37*
G36*
Y459832D02*
X17020Y459506D01*
X14709Y458548D01*
X12725Y457025D01*
X11202Y455041D01*
X10245Y452730D01*
X9918Y450250D01*
X10245Y447770D01*
X11202Y445459D01*
X12725Y443475D01*
X14709Y441952D01*
X17020Y440994D01*
X19500Y440668D01*
X21980Y440994D01*
X24291Y441952D01*
X26275Y443475D01*
X27798Y445459D01*
X28756Y447770D01*
X29082Y450250D01*
X28756Y452730D01*
X27798Y455041D01*
X26275Y457025D01*
X24291Y458548D01*
X21980Y459506D01*
X19500Y459832D01*
D02*
G37*
G36*
X199500Y434858D02*
X197354Y434431D01*
X195535Y433215D01*
X194319Y431396D01*
X193892Y429250D01*
X194319Y427104D01*
X195535Y425285D01*
X197354Y424069D01*
X199500Y423642D01*
X201646Y424069D01*
X203465Y425285D01*
X204681Y427104D01*
X205108Y429250D01*
X204681Y431396D01*
X203465Y433215D01*
X201646Y434431D01*
X199500Y434858D01*
D02*
G37*
G36*
X185500Y434358D02*
X183354Y433931D01*
X181535Y432715D01*
X180319Y430896D01*
X179892Y428750D01*
X180319Y426604D01*
X181535Y424785D01*
X183354Y423569D01*
X185500Y423142D01*
X187646Y423569D01*
X189465Y424785D01*
X190681Y426604D01*
X191108Y428750D01*
X190681Y430896D01*
X189465Y432715D01*
X187646Y433931D01*
X185500Y434358D01*
D02*
G37*
G36*
X214250Y433858D02*
X212104Y433431D01*
X210285Y432215D01*
X209069Y430396D01*
X208642Y428250D01*
X209069Y426104D01*
X210285Y424285D01*
X212104Y423069D01*
X214250Y422642D01*
X216396Y423069D01*
X218215Y424285D01*
X219431Y426104D01*
X219858Y428250D01*
X219431Y430396D01*
X218215Y432215D01*
X216396Y433431D01*
X214250Y433858D01*
D02*
G37*
G36*
X272750Y433358D02*
X270604Y432931D01*
X268785Y431715D01*
X267569Y429896D01*
X267142Y427750D01*
X267569Y425604D01*
X268785Y423785D01*
X270604Y422569D01*
X272750Y422142D01*
X274896Y422569D01*
X276715Y423785D01*
X277931Y425604D01*
X278358Y427750D01*
X277931Y429896D01*
X276715Y431715D01*
X274896Y432931D01*
X272750Y433358D01*
D02*
G37*
G36*
X82400Y431972D02*
X80233Y431686D01*
X78214Y430850D01*
X76480Y429520D01*
X75150Y427786D01*
X74314Y425767D01*
X74028Y423600D01*
X74314Y421433D01*
X75150Y419414D01*
X76480Y417680D01*
X78214Y416350D01*
X80233Y415514D01*
X82400Y415228D01*
X84567Y415514D01*
X86586Y416350D01*
X88320Y417680D01*
X89650Y419414D01*
X90486Y421433D01*
X90772Y423600D01*
X90486Y425767D01*
X89650Y427786D01*
X88320Y429520D01*
X86586Y430850D01*
X84567Y431686D01*
X82400Y431972D01*
D02*
G37*
G36*
X57000D02*
X54833Y431686D01*
X52814Y430850D01*
X51080Y429520D01*
X49750Y427786D01*
X48914Y425767D01*
X48628Y423600D01*
X48914Y421433D01*
X49750Y419414D01*
X51080Y417680D01*
X52814Y416350D01*
X54833Y415514D01*
X57000Y415228D01*
X59167Y415514D01*
X61186Y416350D01*
X62920Y417680D01*
X64250Y419414D01*
X65086Y421433D01*
X65372Y423600D01*
X65086Y425767D01*
X64250Y427786D01*
X62920Y429520D01*
X61186Y430850D01*
X59167Y431686D01*
X57000Y431972D01*
D02*
G37*
G36*
X31600D02*
X29433Y431686D01*
X27414Y430850D01*
X25680Y429520D01*
X24350Y427786D01*
X23514Y425767D01*
X23228Y423600D01*
X23514Y421433D01*
X24350Y419414D01*
X25680Y417680D01*
X27414Y416350D01*
X29433Y415514D01*
X31600Y415228D01*
X33767Y415514D01*
X35786Y416350D01*
X37520Y417680D01*
X38850Y419414D01*
X39686Y421433D01*
X39972Y423600D01*
X39686Y425767D01*
X38850Y427786D01*
X37520Y429520D01*
X35786Y430850D01*
X33767Y431686D01*
X31600Y431972D01*
D02*
G37*
G36*
X149950Y439882D02*
X147704Y439586D01*
X145611Y438720D01*
X143814Y437341D01*
X142434Y435543D01*
X141567Y433450D01*
X141272Y431204D01*
Y417996D01*
X141567Y415750D01*
X142434Y413657D01*
X143814Y411860D01*
X145611Y410480D01*
X147704Y409613D01*
X149950Y409318D01*
X152196Y409613D01*
X154289Y410480D01*
X156086Y411860D01*
X157466Y413657D01*
X158333Y415750D01*
X158628Y417996D01*
Y431204D01*
X158333Y433450D01*
X157466Y435543D01*
X156086Y437341D01*
X154289Y438720D01*
X152196Y439586D01*
X149950Y439882D01*
D02*
G37*
G36*
X124550D02*
X122304Y439586D01*
X120211Y438720D01*
X118414Y437341D01*
X117034Y435543D01*
X116167Y433450D01*
X115872Y431204D01*
Y417996D01*
X116167Y415750D01*
X117034Y413657D01*
X118414Y411860D01*
X120211Y410480D01*
X122304Y409613D01*
X124550Y409318D01*
X126796Y409613D01*
X128889Y410480D01*
X130686Y411860D01*
X132066Y413657D01*
X132933Y415750D01*
X133228Y417996D01*
Y431204D01*
X132933Y433450D01*
X132066Y435543D01*
X130686Y437341D01*
X128889Y438720D01*
X126796Y439586D01*
X124550Y439882D01*
D02*
G37*
%LPD*%
D63*
X309250Y667900D02*
D03*
D71*
X116250Y535250D02*
D03*
X258750Y436750D02*
D03*
X126750Y466500D02*
D03*
X143500Y577500D02*
D03*
X284500Y664500D02*
D03*
X267750Y566250D02*
D03*
X313000Y507500D02*
D03*
M02*
