G04*
G04 #@! TF.GenerationSoftware,Altium Limited,Altium Designer,20.0.13 (296)*
G04*
G04 Layer_Color=65535*
%FSLAX44Y44*%
%MOMM*%
G71*
G01*
G75*
%ADD10C,0.2000*%
%ADD11C,0.1524*%
%ADD12C,0.6096*%
%ADD13C,0.1500*%
%ADD14C,0.1270*%
%ADD15C,0.2540*%
D10*
X251750Y330250D02*
G03*
X251750Y330250I-27500J0D01*
G01*
X77750Y181500D02*
G03*
X77750Y181500I-27500J0D01*
G01*
X232000Y584900D02*
G03*
X232000Y584900I-1000J0D01*
G01*
X315250Y310250D02*
G03*
X315250Y310250I-27500J0D01*
G01*
X323000Y226500D02*
G03*
X323000Y226500I-27500J0D01*
G01*
X221750Y214000D02*
G03*
X221750Y214000I-27500J0D01*
G01*
X83400Y436300D02*
G03*
X83400Y436300I-1000J0D01*
G01*
X129500Y625250D02*
G03*
X129500Y625250I-1000J0D01*
G01*
X175000Y594500D02*
G03*
X175000Y594500I-1000J0D01*
G01*
X122650Y250250D02*
G03*
X122650Y250250I-1000J0D01*
G01*
X138000Y860500D02*
G03*
X138000Y860500I-1000J0D01*
G01*
X238000D02*
G03*
X238000Y860500I-1000J0D01*
G01*
X88000Y8500D02*
G03*
X88000Y8500I-1000J0D01*
G01*
X187750D02*
G03*
X187750Y8500I-1000J0D01*
G01*
X38000Y860500D02*
G03*
X38000Y860500I-1000J0D01*
G01*
X223400Y421000D02*
Y442000D01*
Y421000D02*
X235600D01*
Y442000D01*
X223400D02*
X235600D01*
X201500Y714750D02*
X212500D01*
Y694750D02*
Y714750D01*
X201500Y694750D02*
X212500D01*
X201500D02*
Y714750D01*
X186000Y694750D02*
Y714750D01*
Y694750D02*
X197000D01*
Y714750D01*
X186000D02*
X197000D01*
X93750Y541150D02*
Y553350D01*
X114750D01*
Y541150D02*
Y553350D01*
X93750Y541150D02*
X114750D01*
X95000Y495850D02*
X116000D01*
X95000Y483650D02*
Y495850D01*
Y483650D02*
X116000D01*
Y495850D01*
X95000Y469650D02*
X116000D01*
Y481850D01*
X95000D02*
X116000D01*
X95000Y469650D02*
Y481850D01*
X261650Y594000D02*
X273850D01*
Y573000D02*
Y594000D01*
X261650Y573000D02*
X273850D01*
X261650D02*
Y594000D01*
X256750Y583150D02*
Y595350D01*
X235750Y583150D02*
X256750D01*
X235750D02*
Y595350D01*
X256750D01*
X297000Y539150D02*
Y551350D01*
X318000D01*
Y539150D02*
Y551350D01*
X297000Y539150D02*
X318000D01*
X238400Y421000D02*
X250600D01*
X238400D02*
Y442000D01*
X250600D01*
Y421000D02*
Y442000D01*
X128000Y582900D02*
Y595100D01*
X149000D01*
Y582900D02*
Y595100D01*
X128000Y582900D02*
X149000D01*
X298000Y526000D02*
X318000D01*
Y537000D01*
X298000D02*
X318000D01*
X298000Y526000D02*
Y537000D01*
X120500Y453000D02*
Y464000D01*
X100500Y453000D02*
X120500D01*
X100500D02*
Y464000D01*
X120500D01*
X199250Y583250D02*
Y594250D01*
X179250Y583250D02*
X199250D01*
X179250D02*
Y594250D01*
X199250D01*
X267500Y436000D02*
X278500D01*
X267500D02*
Y456000D01*
X278500D01*
Y436000D02*
Y456000D01*
X76750Y443000D02*
X87750D01*
X76750D02*
Y463000D01*
X87750D01*
Y443000D02*
Y463000D01*
X6800Y437550D02*
X32200D01*
X6800D02*
Y564550D01*
X32200Y437550D02*
Y564550D01*
X6800D02*
X32200D01*
X296550Y680600D02*
X321950D01*
Y553600D02*
Y680600D01*
X296550Y553600D02*
Y680600D01*
Y553600D02*
X321950D01*
X0Y143000D02*
X328000D01*
X0Y726000D02*
X328000D01*
X293000Y421500D02*
Y432500D01*
X313000D01*
Y421500D02*
Y432500D01*
X293000Y421500D02*
X313000D01*
X301500Y456250D02*
X311500D01*
X285250Y456500D02*
X295250D01*
X130668Y752835D02*
X132001Y751503D01*
X134667D01*
X136000Y752835D01*
Y758167D01*
X134667Y759500D01*
X132001D01*
X130668Y758167D01*
Y755501D01*
X133334D01*
X33168Y752835D02*
X34501Y751503D01*
X37167D01*
X38500Y752835D01*
Y758167D01*
X37167Y759500D01*
X34501D01*
X33168Y758167D01*
Y755501D01*
X35834D01*
X99000D02*
X93668D01*
X96334Y752835D02*
Y758167D01*
X85671Y759500D02*
X91003D01*
X85671Y754168D01*
Y752835D01*
X87004Y751503D01*
X89670D01*
X91003Y752835D01*
X79006Y759500D02*
Y751503D01*
X83005Y755501D01*
X77674D01*
X289168Y752835D02*
X290501Y751503D01*
X293167D01*
X294500Y752835D01*
Y758167D01*
X293167Y759500D01*
X290501D01*
X289168Y758167D01*
Y755501D01*
X291834D01*
X242500Y751503D02*
Y759500D01*
X238501D01*
X237168Y758167D01*
Y752835D01*
X238501Y751503D01*
X242500D01*
X217000Y755501D02*
X211668D01*
X214334Y752835D02*
Y758167D01*
X209003Y752835D02*
X207670Y751503D01*
X205004D01*
X203671Y752835D01*
Y754168D01*
X205004Y755501D01*
X206337D01*
X205004D01*
X203671Y756834D01*
Y758167D01*
X205004Y759500D01*
X207670D01*
X209003Y758167D01*
X201005Y759500D02*
Y758167D01*
X199672D01*
Y759500D01*
X201005D01*
X194341Y752835D02*
X193008Y751503D01*
X190342D01*
X189009Y752835D01*
Y754168D01*
X190342Y755501D01*
X191675D01*
X190342D01*
X189009Y756834D01*
Y758167D01*
X190342Y759500D01*
X193008D01*
X194341Y758167D01*
X186343Y751503D02*
Y756834D01*
X183677Y759500D01*
X181012Y756834D01*
Y751503D01*
X140750Y113500D02*
Y121497D01*
X146082Y113500D01*
Y121497D01*
X175000Y121164D02*
Y113167D01*
X180332D01*
X182997Y111834D02*
X188329D01*
X194994Y121164D02*
X192328D01*
X190995Y119831D01*
Y114500D01*
X192328Y113167D01*
X194994D01*
X196327Y114500D01*
Y119831D01*
X194994Y121164D01*
X198992D02*
Y114500D01*
X200325Y113167D01*
X202991D01*
X204324Y114500D01*
Y121164D01*
X206990D02*
X212321D01*
X209655D01*
Y113167D01*
X71500Y121164D02*
Y113167D01*
X76832D01*
X79497Y111834D02*
X84829D01*
X87495Y121164D02*
X90161D01*
X88828D01*
Y113167D01*
X87495D01*
X90161D01*
X94159D02*
Y121164D01*
X99491Y113167D01*
Y121164D01*
X32500Y113500D02*
Y121497D01*
X37832Y113500D01*
Y121497D01*
X100026Y568088D02*
X98693Y569421D01*
X96027D01*
X94694Y568088D01*
Y562757D01*
X96027Y561424D01*
X98693D01*
X100026Y562757D01*
X102691Y561424D02*
X105357D01*
X104024D01*
Y569421D01*
X102691Y568088D01*
X109356Y561424D02*
X112022D01*
X110689D01*
Y569421D01*
X109356Y568088D01*
X140458Y668079D02*
X139125Y669411D01*
X136459D01*
X135126Y668079D01*
Y662747D01*
X136459Y661414D01*
X139125D01*
X140458Y662747D01*
X143123Y661414D02*
X145789D01*
X144456D01*
Y669411D01*
X143123Y668079D01*
X149788D02*
X151121Y669411D01*
X153787D01*
X155120Y668079D01*
Y662747D01*
X153787Y661414D01*
X151121D01*
X149788Y662747D01*
Y668079D01*
X278584Y645917D02*
X277251Y644584D01*
Y641918D01*
X278584Y640585D01*
X283916D01*
X285249Y641918D01*
Y644584D01*
X283916Y645917D01*
Y648583D02*
X285249Y649916D01*
Y652582D01*
X283916Y653914D01*
X278584D01*
X277251Y652582D01*
Y649916D01*
X278584Y648583D01*
X279917D01*
X281250Y649916D01*
Y653914D01*
X267876Y608693D02*
X266543Y610025D01*
X263877D01*
X262544Y608693D01*
Y603361D01*
X263877Y602028D01*
X266543D01*
X267876Y603361D01*
X275873Y610025D02*
X270541D01*
Y606027D01*
X273207Y607360D01*
X274540D01*
X275873Y606027D01*
Y603361D01*
X274540Y602028D01*
X271874D01*
X270541Y603361D01*
X212834Y435167D02*
X211501Y433834D01*
Y431168D01*
X212834Y429836D01*
X218166D01*
X219499Y431168D01*
Y433834D01*
X218166Y435167D01*
X219499Y443164D02*
Y437833D01*
X214167Y443164D01*
X212834D01*
X211501Y441832D01*
Y439166D01*
X212834Y437833D01*
X80750Y494666D02*
X79417Y495999D01*
X76751D01*
X75418Y494666D01*
Y489334D01*
X76751Y488001D01*
X79417D01*
X80750Y489334D01*
X83416Y488001D02*
X86082D01*
X84749D01*
Y495999D01*
X83416Y494666D01*
X289558Y76829D02*
Y68832D01*
Y72831D01*
X294890D01*
Y76829D01*
Y68832D01*
X297555D02*
X300221D01*
X298888D01*
Y76829D01*
X297555Y75497D01*
X54420Y590751D02*
Y598749D01*
X58418D01*
X59751Y597416D01*
Y594750D01*
X58418Y593417D01*
X54420D01*
X67749Y597416D02*
X66416Y598749D01*
X63750D01*
X62417Y597416D01*
Y596083D01*
X63750Y594750D01*
X66416D01*
X67749Y593417D01*
Y592084D01*
X66416Y590751D01*
X63750D01*
X62417Y592084D01*
X70415Y590751D02*
X73080D01*
X71747D01*
Y598749D01*
X70415Y597416D01*
X188420Y644749D02*
Y639417D01*
X191085Y636751D01*
X193751Y639417D01*
Y644749D01*
X196417Y636751D02*
Y644749D01*
X200416D01*
X201749Y643416D01*
Y640750D01*
X200416Y639417D01*
X196417D01*
X199083D02*
X201749Y636751D01*
X204415D02*
X207080D01*
X205748D01*
Y644749D01*
X204415Y643416D01*
X50335Y408999D02*
Y402334D01*
X51669Y401001D01*
X54334D01*
X55667Y402334D01*
Y408999D01*
X63665Y401001D02*
X58333D01*
X63665Y406333D01*
Y407666D01*
X62332Y408999D01*
X59666D01*
X58333Y407666D01*
X189251Y508418D02*
X195916D01*
X197249Y509751D01*
Y512417D01*
X195916Y513750D01*
X189251D01*
X197249Y516416D02*
Y519082D01*
Y517749D01*
X189251D01*
X190584Y516416D01*
X100253Y439251D02*
Y447249D01*
X104252D01*
X105585Y445916D01*
Y443250D01*
X104252Y441917D01*
X100253D01*
X102919D02*
X105585Y439251D01*
X108251D02*
X110916D01*
X109584D01*
Y447249D01*
X108251Y445916D01*
X118914Y439251D02*
Y447249D01*
X114915Y443250D01*
X120247D01*
X69999Y443003D02*
X62001D01*
Y447002D01*
X63334Y448335D01*
X66000D01*
X67333Y447002D01*
Y443003D01*
Y445669D02*
X69999Y448335D01*
Y451001D02*
Y453666D01*
Y452334D01*
X62001D01*
X63334Y451001D01*
X69999Y462997D02*
Y457665D01*
X64667Y462997D01*
X63334D01*
X62001Y461664D01*
Y458998D01*
X63334Y457665D01*
X298003Y342001D02*
Y349999D01*
X302002D01*
X303335Y348666D01*
Y346000D01*
X302002Y344667D01*
X298003D01*
X300669D02*
X303335Y342001D01*
X306001D02*
X308666D01*
X307334D01*
Y349999D01*
X306001Y348666D01*
X317997Y349999D02*
X312665D01*
Y346000D01*
X315331Y347333D01*
X316664D01*
X317997Y346000D01*
Y343334D01*
X316664Y342001D01*
X313998D01*
X312665Y343334D01*
X213253Y364751D02*
Y372749D01*
X217252D01*
X218585Y371416D01*
Y368750D01*
X217252Y367417D01*
X213253D01*
X215919D02*
X218585Y364751D01*
X221251D02*
X223916D01*
X222584D01*
Y372749D01*
X221251Y371416D01*
X227915D02*
X229248Y372749D01*
X231914D01*
X233247Y371416D01*
Y370083D01*
X231914Y368750D01*
X230581D01*
X231914D01*
X233247Y367417D01*
Y366084D01*
X231914Y364751D01*
X229248D01*
X227915Y366084D01*
X74086Y205751D02*
Y213749D01*
X78085D01*
X79418Y212416D01*
Y209750D01*
X78085Y208417D01*
X74086D01*
X76752D02*
X79418Y205751D01*
X82084D02*
X84749D01*
X83417D01*
Y213749D01*
X82084Y212416D01*
X88748Y205751D02*
X91414D01*
X90081D01*
Y213749D01*
X88748Y212416D01*
X285753Y258501D02*
Y266499D01*
X289752D01*
X291085Y265166D01*
Y262500D01*
X289752Y261167D01*
X285753D01*
X288419D02*
X291085Y258501D01*
X293751D02*
X296416D01*
X295084D01*
Y266499D01*
X293751Y265166D01*
X300415D02*
X301748Y266499D01*
X304414D01*
X305747Y265166D01*
Y259834D01*
X304414Y258501D01*
X301748D01*
X300415Y259834D01*
Y265166D01*
X197999Y258335D02*
X190001D01*
Y262334D01*
X191334Y263667D01*
X194000D01*
X195333Y262334D01*
Y258335D01*
Y261001D02*
X197999Y263667D01*
X196666Y266333D02*
X197999Y267666D01*
Y270332D01*
X196666Y271665D01*
X191334D01*
X190001Y270332D01*
Y267666D01*
X191334Y266333D01*
X192667D01*
X194000Y267666D01*
Y271665D01*
X205835Y585251D02*
Y593249D01*
X209834D01*
X211167Y591916D01*
Y589250D01*
X209834Y587917D01*
X205835D01*
X208501D02*
X211167Y585251D01*
X219165Y593249D02*
X216499Y591916D01*
X213833Y589250D01*
Y586584D01*
X215166Y585251D01*
X217832D01*
X219165Y586584D01*
Y587917D01*
X217832Y589250D01*
X213833D01*
X218335Y700501D02*
Y708499D01*
X222334D01*
X223667Y707166D01*
Y704500D01*
X222334Y703167D01*
X218335D01*
X221001D02*
X223667Y700501D01*
X226333Y707166D02*
X227666Y708499D01*
X230332D01*
X231665Y707166D01*
Y705833D01*
X230332Y704500D01*
X228999D01*
X230332D01*
X231665Y703167D01*
Y701834D01*
X230332Y700501D01*
X227666D01*
X226333Y701834D01*
X167668Y701251D02*
Y709249D01*
X171667D01*
X173000Y707916D01*
Y705250D01*
X171667Y703917D01*
X167668D01*
X170334D02*
X173000Y701251D01*
X175666D02*
X178332D01*
X176999D01*
Y709249D01*
X175666Y707916D01*
X65000Y286084D02*
Y291416D01*
X63667Y292749D01*
X61001D01*
X59668Y291416D01*
Y286084D01*
X61001Y284751D01*
X63667D01*
X62334Y287417D02*
X65000Y284751D01*
X63667D02*
X65000Y286084D01*
X67666Y284751D02*
X70332D01*
X68999D01*
Y292749D01*
X67666Y291416D01*
X133168Y403749D02*
X130503D01*
X129170Y402416D01*
Y397084D01*
X130503Y395751D01*
X133168D01*
X134501Y397084D01*
Y402416D01*
X133168Y403749D01*
X137167D02*
Y395751D01*
Y398417D01*
X142499Y403749D01*
X138500Y399750D01*
X142499Y395751D01*
X145164D02*
X147830D01*
X146497D01*
Y403749D01*
X145164Y402416D01*
X56751Y683586D02*
X64749D01*
Y687584D01*
X63416Y688917D01*
X58084D01*
X56751Y687584D01*
Y683586D01*
X64749Y695582D02*
X56751D01*
X60750Y691583D01*
Y696915D01*
X274869Y695980D02*
X282866D01*
Y699978D01*
X281533Y701311D01*
X276201D01*
X274869Y699978D01*
Y695980D01*
X282866Y709309D02*
Y703977D01*
X277534Y709309D01*
X276201D01*
X274869Y707976D01*
Y705310D01*
X276201Y703977D01*
X248916Y215415D02*
X250249Y216748D01*
Y219414D01*
X248916Y220747D01*
X243584D01*
X242251Y219414D01*
Y216748D01*
X243584Y215415D01*
X242251Y212749D02*
Y210084D01*
Y211416D01*
X250249D01*
X248916Y212749D01*
Y206085D02*
X250249Y204752D01*
Y202086D01*
X248916Y200753D01*
X247583D01*
X246250Y202086D01*
Y203419D01*
Y202086D01*
X244917Y200753D01*
X243584D01*
X242251Y202086D01*
Y204752D01*
X243584Y206085D01*
X143166Y212665D02*
X144499Y213998D01*
Y216664D01*
X143166Y217997D01*
X137834D01*
X136501Y216664D01*
Y213998D01*
X137834Y212665D01*
X136501Y209999D02*
Y207334D01*
Y208666D01*
X144499D01*
X143166Y209999D01*
X136501Y198003D02*
Y203335D01*
X141833Y198003D01*
X143166D01*
X144499Y199336D01*
Y202002D01*
X143166Y203335D01*
X243083Y569584D02*
X244416Y568251D01*
X247082D01*
X248414Y569584D01*
Y574916D01*
X247082Y576249D01*
X244416D01*
X243083Y574916D01*
X240417Y568251D02*
X235086D01*
Y569584D01*
X240417Y574916D01*
Y576249D01*
X159667Y591416D02*
X158334Y592749D01*
X155668D01*
X154335Y591416D01*
Y586084D01*
X155668Y584751D01*
X158334D01*
X159667Y586084D01*
X167665Y592749D02*
X164999Y591416D01*
X162333Y588750D01*
Y586084D01*
X163666Y584751D01*
X166332D01*
X167665Y586084D01*
Y587417D01*
X166332Y588750D01*
X162333D01*
X79667Y478916D02*
X78334Y480249D01*
X75668D01*
X74335Y478916D01*
Y473584D01*
X75668Y472251D01*
X78334D01*
X79667Y473584D01*
X82333Y478916D02*
X83666Y480249D01*
X86332D01*
X87664Y478916D01*
Y477583D01*
X86332Y476250D01*
X84999D01*
X86332D01*
X87664Y474917D01*
Y473584D01*
X86332Y472251D01*
X83666D01*
X82333Y473584D01*
D11*
X111850Y376340D02*
G03*
X111850Y396660I0J10160D01*
G01*
Y357290D02*
Y376340D01*
Y396660D02*
Y415710D01*
X162650Y357290D02*
Y415710D01*
X111850Y357290D02*
X162650D01*
X111850Y415710D02*
X162650D01*
D12*
X106430Y662580D02*
G03*
X106430Y662580I-1500J0D01*
G01*
D13*
X250750Y645050D02*
X260750D01*
X250750Y648750D02*
X260750D01*
X245500Y620500D02*
Y673000D01*
X266000Y620500D02*
Y673000D01*
X245500Y620500D02*
X266000D01*
X245500Y673000D02*
X266000D01*
X134000Y601000D02*
X154500D01*
X134000Y653500D02*
X154500D01*
X134000Y601000D02*
Y653500D01*
X154500Y601000D02*
Y653500D01*
X139250Y625250D02*
X149250D01*
X139250Y628950D02*
X149250D01*
D14*
X143000Y554750D02*
Y563500D01*
X243000Y554750D02*
Y563500D01*
X143000Y463500D02*
Y472575D01*
X243000Y463500D02*
Y472250D01*
X143000Y563500D02*
X151750D01*
X234250D02*
X243000D01*
X143000Y463500D02*
X151750D01*
X234250D02*
X243000D01*
X257600Y715300D02*
X300900D01*
X257600Y689700D02*
X300900D01*
Y691800D01*
Y713200D02*
Y715300D01*
X257600Y689700D02*
Y691800D01*
Y713200D02*
Y715300D01*
X20200Y419800D02*
X22500D01*
X20200Y351200D02*
Y419800D01*
Y351200D02*
X22500D01*
X91500Y419800D02*
X93800D01*
Y351200D02*
Y419800D01*
X91500Y351200D02*
X93800D01*
X27450Y718450D02*
X96050D01*
X27450Y660050D02*
X96050D01*
X5500Y571250D02*
X121500D01*
X5500D02*
Y646750D01*
X121500D01*
Y571250D02*
Y646750D01*
X164500Y658000D02*
X176900D01*
X164500Y623000D02*
Y658000D01*
X217100D02*
X229500D01*
Y623000D02*
Y658000D01*
X11250Y273250D02*
X115250D01*
X11250Y227250D02*
Y273250D01*
Y227250D02*
X115250D01*
Y273250D01*
X161250Y149500D02*
Y279500D01*
X121250Y149500D02*
Y279500D01*
Y149500D02*
X161250D01*
X121250Y279500D02*
X161250D01*
X265250Y149500D02*
Y279500D01*
X225250Y149500D02*
Y279500D01*
Y149500D02*
X265250D01*
X225250Y279500D02*
X265250D01*
X112000Y772500D02*
Y850500D01*
X212000Y772500D02*
Y850500D01*
X112000D02*
X212000D01*
X112000Y772500D02*
X212000D01*
Y850500D01*
X312000Y772500D02*
Y850500D01*
X212000D02*
X312000D01*
X212000Y772500D02*
X312000D01*
X112000Y18500D02*
Y96500D01*
X12000Y18500D02*
Y96500D01*
Y18500D02*
X112000D01*
X12000Y96500D02*
X112000D01*
X211750Y18500D02*
Y96500D01*
X111750Y18500D02*
Y96500D01*
Y18500D02*
X211750D01*
X111750Y96500D02*
X211750D01*
X12000Y772500D02*
Y850500D01*
X112000Y772500D02*
Y850500D01*
X12000D02*
X112000D01*
X12000Y772500D02*
X112000D01*
D15*
X289704Y620121D02*
X288038Y621787D01*
X284706D01*
X283040Y620121D01*
Y613456D01*
X284706Y611790D01*
X288038D01*
X289704Y613456D01*
Y616788D01*
X286372D01*
X282540Y558790D02*
Y568787D01*
X287538D01*
X289205Y567121D01*
Y563788D01*
X287538Y562122D01*
X282540D01*
X285872D02*
X289205Y558790D01*
X39540Y557287D02*
X46205D01*
X42872D01*
Y547290D01*
X49537Y557287D02*
X56201Y547290D01*
Y557287D02*
X49537Y547290D01*
X47705Y531121D02*
X46038Y532787D01*
X42706D01*
X41040Y531121D01*
Y524456D01*
X42706Y522790D01*
X46038D01*
X47705Y524456D01*
Y527788D01*
X44372D01*
X39040Y495790D02*
Y505787D01*
X44038D01*
X45704Y504121D01*
Y500788D01*
X44038Y499122D01*
X39040D01*
X42372D02*
X45704Y495790D01*
X49037Y505787D02*
X55701Y495790D01*
Y505787D02*
X49037Y495790D01*
M02*
