G04*
G04 #@! TF.GenerationSoftware,Altium Limited,Altium Designer,20.0.13 (296)*
G04*
G04 Layer_Physical_Order=1*
G04 Layer_Color=255*
%FSLAX44Y44*%
%MOMM*%
G71*
G01*
G75*
%ADD10C,0.2000*%
%ADD16R,0.5000X0.6000*%
%ADD17R,0.6000X0.5000*%
%ADD18R,1.6000X1.6000*%
G04:AMPARAMS|DCode=19|XSize=1.47mm|YSize=0.28mm|CornerRadius=0.035mm|HoleSize=0mm|Usage=FLASHONLY|Rotation=0.000|XOffset=0mm|YOffset=0mm|HoleType=Round|Shape=RoundedRectangle|*
%AMROUNDEDRECTD19*
21,1,1.4700,0.2100,0,0,0.0*
21,1,1.4000,0.2800,0,0,0.0*
1,1,0.0700,0.7000,-0.1050*
1,1,0.0700,-0.7000,-0.1050*
1,1,0.0700,-0.7000,0.1050*
1,1,0.0700,0.7000,0.1050*
%
%ADD19ROUNDEDRECTD19*%
G04:AMPARAMS|DCode=20|XSize=1.47mm|YSize=0.28mm|CornerRadius=0.035mm|HoleSize=0mm|Usage=FLASHONLY|Rotation=270.000|XOffset=0mm|YOffset=0mm|HoleType=Round|Shape=RoundedRectangle|*
%AMROUNDEDRECTD20*
21,1,1.4700,0.2100,0,0,270.0*
21,1,1.4000,0.2800,0,0,270.0*
1,1,0.0700,-0.1050,-0.7000*
1,1,0.0700,-0.1050,0.7000*
1,1,0.0700,0.1050,0.7000*
1,1,0.0700,0.1050,-0.7000*
%
%ADD20ROUNDEDRECTD20*%
%ADD21R,2.1200X1.5000*%
%ADD22R,2.7940X3.8100*%
%ADD23R,0.9500X2.1500*%
%ADD24R,3.2500X2.1500*%
%ADD25R,1.1000X1.2500*%
%ADD51C,0.5000*%
%ADD52C,0.3000*%
%ADD53C,1.0000*%
%ADD54C,2.0000*%
%ADD55C,1.6000*%
%ADD56C,1.8000*%
%ADD57C,2.2000*%
%ADD58R,1.2600X1.2600*%
%ADD59C,1.2600*%
%ADD60O,1.3208X2.6416*%
%ADD61R,1.3208X2.6416*%
%ADD62R,1.5000X1.5000*%
%ADD63C,1.5000*%
%ADD64R,1.5080X1.5080*%
%ADD65C,1.5080*%
%ADD66C,1.9100*%
%ADD67R,1.9100X1.9100*%
%ADD68C,1.2000*%
%ADD69R,2.1000X2.1000*%
%ADD70C,2.1000*%
%ADD71C,0.7000*%
G36*
X324941Y405000D02*
X3059D01*
Y865941D01*
X324941D01*
Y405000D01*
D02*
G37*
G36*
X321883Y6118D02*
X6118D01*
Y384500D01*
X321883D01*
Y6118D01*
D02*
G37*
%LPC*%
G36*
X288270Y825485D02*
Y813770D01*
X299985D01*
X299704Y815904D01*
X298390Y819076D01*
X296300Y821800D01*
X293576Y823890D01*
X290404Y825204D01*
X288270Y825485D01*
D02*
G37*
G36*
X285730D02*
X283596Y825204D01*
X280424Y823890D01*
X277700Y821800D01*
X275610Y819076D01*
X274296Y815904D01*
X274015Y813770D01*
X285730D01*
Y825485D01*
D02*
G37*
G36*
X150040Y825540D02*
X138270D01*
Y813770D01*
X150040D01*
Y825540D01*
D02*
G37*
G36*
X135730D02*
X123960D01*
Y813770D01*
X135730D01*
Y825540D01*
D02*
G37*
G36*
X50040D02*
X38270D01*
Y813770D01*
X50040D01*
Y825540D01*
D02*
G37*
G36*
X35730D02*
X23960D01*
Y813770D01*
X35730D01*
Y825540D01*
D02*
G37*
G36*
X299985Y811230D02*
X288270D01*
Y799515D01*
X290404Y799796D01*
X293576Y801110D01*
X296300Y803200D01*
X298390Y805924D01*
X299704Y809096D01*
X299985Y811230D01*
D02*
G37*
G36*
X285730D02*
X274015D01*
X274296Y809096D01*
X275610Y805924D01*
X277700Y803200D01*
X280424Y801110D01*
X283596Y799796D01*
X285730Y799515D01*
Y811230D01*
D02*
G37*
G36*
X150040D02*
X138270D01*
Y799460D01*
X150040D01*
Y811230D01*
D02*
G37*
G36*
X135730D02*
X123960D01*
Y799460D01*
X135730D01*
Y811230D01*
D02*
G37*
G36*
X50040D02*
X38270D01*
Y799460D01*
X50040D01*
Y811230D01*
D02*
G37*
G36*
X35730D02*
X23960D01*
Y799460D01*
X35730D01*
Y811230D01*
D02*
G37*
G36*
X313540Y712540D02*
X301670D01*
Y703770D01*
X313540D01*
Y712540D01*
D02*
G37*
G36*
X299130D02*
X287260D01*
Y703770D01*
X299130D01*
Y712540D01*
D02*
G37*
G36*
X187000Y825108D02*
X183737Y824678D01*
X180696Y823419D01*
X178085Y821415D01*
X176081Y818804D01*
X174822Y815763D01*
X174392Y812500D01*
X174822Y809237D01*
X176081Y806196D01*
X178085Y803585D01*
X180696Y801581D01*
X183737Y800322D01*
X187000Y799892D01*
X187486Y799956D01*
X188441Y799119D01*
Y714250D01*
X186500D01*
Y705520D01*
X186500Y705250D01*
Y704250D01*
X186500Y703980D01*
Y697324D01*
X186491Y697281D01*
X186500Y697237D01*
Y695250D01*
X187893D01*
X187916Y695108D01*
X187931Y694932D01*
Y682568D01*
X187915Y682383D01*
X187893Y682250D01*
X178750D01*
Y656750D01*
X215250D01*
Y664477D01*
X215366Y664547D01*
X215650Y664663D01*
X216085Y664779D01*
X216665Y664875D01*
X217080Y664912D01*
X243913D01*
X244323Y664876D01*
X244897Y664780D01*
X245327Y664664D01*
X245607Y664550D01*
X245733Y664473D01*
X245750Y664310D01*
Y652750D01*
X265750D01*
Y657727D01*
X265866Y657797D01*
X266150Y657913D01*
X266585Y658029D01*
X267165Y658126D01*
X267580Y658162D01*
X268516D01*
X269048Y658068D01*
X269488Y657921D01*
X269811Y657748D01*
X270051Y657551D01*
X270247Y657310D01*
X270421Y656988D01*
X270568Y656548D01*
X270662Y656016D01*
Y614400D01*
X266849Y610588D01*
X243679D01*
X241923Y610239D01*
X240435Y609244D01*
X237506Y606315D01*
X236511Y604827D01*
X236162Y603071D01*
Y593903D01*
X235124Y593838D01*
X210401D01*
X203838Y600401D01*
Y609250D01*
X203750Y609693D01*
Y624250D01*
X190250D01*
Y598750D01*
X194662D01*
Y598500D01*
X195011Y596744D01*
X196006Y595256D01*
X205256Y586006D01*
X206744Y585011D01*
X208500Y584662D01*
X235876D01*
X236500Y584630D01*
Y584250D01*
X237355D01*
X237431Y582770D01*
Y582178D01*
X234067Y578813D01*
X233244Y578894D01*
X232467Y579414D01*
X231550Y579596D01*
X229450D01*
X228533Y579414D01*
X228000Y579058D01*
X227467Y579414D01*
X226550Y579596D01*
X224450D01*
X223533Y579414D01*
X223000Y579057D01*
X222467Y579414D01*
X221550Y579596D01*
X219450D01*
X218533Y579414D01*
X218000Y579058D01*
X217467Y579414D01*
X216550Y579596D01*
X214450D01*
X213533Y579414D01*
X213000Y579057D01*
X212467Y579414D01*
X211550Y579596D01*
X209450D01*
X208533Y579414D01*
X208000Y579058D01*
X207467Y579414D01*
X206550Y579596D01*
X204450D01*
X204064Y579913D01*
X203559Y580500D01*
X203326Y581671D01*
X202663Y582663D01*
X202663Y582663D01*
X194009Y591317D01*
X193017Y591980D01*
X191846Y592213D01*
X191846Y592213D01*
X191802D01*
X190965Y593465D01*
X189146Y594681D01*
X187000Y595108D01*
X184854Y594681D01*
X183035Y593465D01*
X181819Y591646D01*
X181392Y589500D01*
X181819Y587354D01*
X183035Y585535D01*
X184854Y584319D01*
X187000Y583892D01*
X189146Y584319D01*
X190965Y585535D01*
X191124Y585550D01*
X195808Y580866D01*
X195282Y579596D01*
X194450D01*
X193533Y579414D01*
X193000Y579058D01*
X192467Y579414D01*
X191550Y579596D01*
X189450D01*
X188533Y579414D01*
X188000Y579057D01*
X187467Y579414D01*
X186550Y579596D01*
X184450D01*
X183533Y579414D01*
X183000Y579058D01*
X182467Y579414D01*
X181550Y579596D01*
X179450D01*
X178533Y579414D01*
X178486Y579382D01*
X177678Y579922D01*
X176770Y580103D01*
Y570200D01*
Y560297D01*
X177678Y560478D01*
X178486Y561018D01*
X178533Y560986D01*
X179450Y560804D01*
X181550D01*
X182467Y560986D01*
X183000Y561343D01*
X183533Y560986D01*
X184450Y560804D01*
X186550D01*
X187467Y560986D01*
X188000Y561343D01*
X188533Y560986D01*
X189450Y560804D01*
X191550D01*
X192467Y560986D01*
X193000Y561343D01*
X193533Y560986D01*
X194450Y560804D01*
X196550D01*
X197467Y560986D01*
X198000Y561343D01*
X198533Y560986D01*
X199450Y560804D01*
X201550D01*
X202467Y560986D01*
X203000Y561343D01*
X203533Y560986D01*
X204450Y560804D01*
X206550D01*
X207467Y560986D01*
X208000Y561343D01*
X208533Y560986D01*
X209450Y560804D01*
X211550D01*
X212467Y560986D01*
X213000Y561343D01*
X213533Y560986D01*
X214450Y560804D01*
X216550D01*
X217467Y560986D01*
X218000Y561343D01*
X218533Y560986D01*
X219450Y560804D01*
X221550D01*
X222467Y560986D01*
X223000Y561343D01*
X223533Y560986D01*
X224450Y560804D01*
X226550D01*
X227467Y560986D01*
X228000Y561343D01*
X228533Y560986D01*
X229450Y560804D01*
X231550D01*
X232467Y560986D01*
X233244Y561506D01*
X233764Y562283D01*
X233946Y563200D01*
Y569584D01*
X234069Y570200D01*
Y570873D01*
X234085Y570874D01*
X234743D01*
X236108Y571146D01*
X237266Y571919D01*
X243523Y578177D01*
X244297Y579334D01*
X244569Y580700D01*
Y582984D01*
X244669Y583198D01*
X245827Y583901D01*
X245839Y583901D01*
X246210Y583710D01*
X246546Y583710D01*
X249980D01*
Y589250D01*
Y594790D01*
X246608D01*
X246210Y594790D01*
X245338Y595699D01*
Y601171D01*
X245579Y601412D01*
X268750D01*
X270506Y601761D01*
X271994Y602756D01*
X278494Y609256D01*
X279171Y610269D01*
X280441Y609883D01*
Y499517D01*
X260271Y479347D01*
X259135Y479930D01*
X259096Y479968D01*
Y482050D01*
X258914Y482967D01*
X258557Y483500D01*
X258914Y484033D01*
X259096Y484950D01*
Y487050D01*
X258914Y487967D01*
X258557Y488500D01*
X258914Y489033D01*
X259096Y489950D01*
Y492050D01*
X258914Y492967D01*
X258557Y493500D01*
X258914Y494033D01*
X259096Y494950D01*
Y497050D01*
X258914Y497967D01*
X258557Y498500D01*
X258914Y499033D01*
X259096Y499950D01*
Y502050D01*
X258914Y502967D01*
X258557Y503500D01*
X258914Y504033D01*
X259096Y504950D01*
Y507050D01*
X258914Y507967D01*
X258557Y508500D01*
X258914Y509033D01*
X259096Y509950D01*
Y512050D01*
X258914Y512967D01*
X258557Y513500D01*
X258914Y514033D01*
X259096Y514950D01*
Y517050D01*
X258914Y517967D01*
X258557Y518500D01*
X258914Y519033D01*
X259096Y519950D01*
Y522050D01*
X258914Y522967D01*
X258557Y523500D01*
X258914Y524033D01*
X259096Y524950D01*
Y527050D01*
X259827Y527941D01*
X267191D01*
Y520500D01*
X265250D01*
X265250Y512086D01*
X264710Y511040D01*
X264710Y510454D01*
Y507270D01*
X270250D01*
Y506000D01*
D01*
Y507270D01*
X275790D01*
Y511040D01*
X275250Y512086D01*
X275250Y520500D01*
X273309D01*
Y529750D01*
X273309Y529750D01*
X273076Y530920D01*
X272413Y531913D01*
X272413Y531913D01*
X271163Y533163D01*
X270170Y533826D01*
X269000Y534059D01*
X269000Y534059D01*
X259827D01*
X259096Y534950D01*
Y537050D01*
X258914Y537967D01*
X258557Y538500D01*
X258914Y539033D01*
X259096Y539950D01*
Y542050D01*
X258914Y542967D01*
X258882Y543014D01*
X259422Y543822D01*
X259603Y544730D01*
X239797D01*
X239978Y543822D01*
X240518Y543014D01*
X240486Y542967D01*
X240304Y542050D01*
Y539950D01*
X240486Y539033D01*
X240842Y538500D01*
X240486Y537967D01*
X240304Y537050D01*
Y534950D01*
X240486Y534033D01*
X240842Y533500D01*
X240486Y532967D01*
X240304Y532050D01*
Y529950D01*
X240486Y529033D01*
X240842Y528500D01*
X240486Y527967D01*
X240304Y527050D01*
Y524950D01*
X240486Y524033D01*
X240842Y523500D01*
X240486Y522967D01*
X240304Y522050D01*
Y519950D01*
X240486Y519033D01*
X240842Y518500D01*
X240486Y517967D01*
X240304Y517050D01*
Y514950D01*
X240486Y514033D01*
X240842Y513500D01*
X240486Y512967D01*
X240304Y512050D01*
Y509950D01*
X240486Y509033D01*
X240842Y508500D01*
X240486Y507967D01*
X240304Y507050D01*
Y504950D01*
X240486Y504033D01*
X240842Y503500D01*
X240486Y502967D01*
X240304Y502050D01*
Y499950D01*
X240486Y499033D01*
X240842Y498500D01*
X240486Y497967D01*
X240304Y497050D01*
Y494950D01*
X240486Y494033D01*
X240842Y493500D01*
X240486Y492967D01*
X240304Y492050D01*
Y489950D01*
X240486Y489033D01*
X240842Y488500D01*
X240486Y487967D01*
X240304Y487050D01*
Y484950D01*
X240486Y484033D01*
X240842Y483500D01*
X240486Y482967D01*
X240304Y482050D01*
Y479950D01*
X240486Y479033D01*
X240842Y478500D01*
X240486Y477967D01*
X240304Y477050D01*
Y474950D01*
X240486Y474033D01*
X241006Y473256D01*
X241783Y472736D01*
X242700Y472554D01*
X256700D01*
X257617Y472736D01*
X257868Y472904D01*
X258464Y472941D01*
X261250D01*
X261250Y472941D01*
X262421Y473174D01*
X263413Y473837D01*
X285663Y496087D01*
X286326Y497080D01*
X286559Y498250D01*
X286559Y498250D01*
Y626733D01*
X299042Y639217D01*
X299202Y639145D01*
X299541Y638946D01*
X299901Y638685D01*
X300281Y638357D01*
X300677Y637956D01*
X301085Y637482D01*
X301535Y636890D01*
X301639Y636798D01*
X301716Y636683D01*
X301763Y636652D01*
X302475Y635725D01*
X304459Y634202D01*
X306770Y633245D01*
X309250Y632918D01*
X311730Y633245D01*
X314041Y634202D01*
X316026Y635725D01*
X317548Y637709D01*
X318505Y640020D01*
X318832Y642500D01*
X318505Y644980D01*
X317548Y647291D01*
X316026Y649276D01*
X314041Y650798D01*
X311730Y651756D01*
X309250Y652082D01*
X306770Y651756D01*
X304459Y650798D01*
X302475Y649276D01*
X301763Y648348D01*
X301716Y648317D01*
X301639Y648202D01*
X301535Y648110D01*
X301085Y647518D01*
X300677Y647044D01*
X300281Y646643D01*
X299902Y646314D01*
X299541Y646054D01*
X299202Y645855D01*
X298883Y645712D01*
X298582Y645616D01*
X298291Y645561D01*
X298252Y645559D01*
X298000D01*
X298000Y645559D01*
X297885Y645536D01*
X297874Y645535D01*
X297849Y645529D01*
X296829Y645326D01*
X295837Y644663D01*
X281337Y630163D01*
X281108Y629820D01*
X279838Y630205D01*
Y656016D01*
X279932Y656548D01*
X280079Y656988D01*
X280252Y657310D01*
X280449Y657551D01*
X280690Y657748D01*
X281012Y657921D01*
X281452Y658068D01*
X281984Y658162D01*
X283500D01*
X285256Y658511D01*
X286388Y659268D01*
X286646Y659319D01*
X287533Y659912D01*
X300133D01*
X301864Y659787D01*
X303471Y659574D01*
X304145Y659447D01*
X305452Y659115D01*
X306031Y658921D01*
X306134Y658908D01*
X306770Y658645D01*
X309250Y658318D01*
X311730Y658645D01*
X314041Y659602D01*
X316026Y661125D01*
X317548Y663109D01*
X318505Y665420D01*
X318832Y667900D01*
X318505Y670380D01*
X317548Y672691D01*
X316026Y674676D01*
X314041Y676198D01*
X311730Y677156D01*
X309250Y677482D01*
X306770Y677156D01*
X304459Y676198D01*
X302475Y674676D01*
X300952Y672691D01*
X300219Y670921D01*
X300189Y670873D01*
X300083Y670592D01*
X299995Y670380D01*
X299993Y670365D01*
X299848Y670091D01*
X299677Y669853D01*
X299490Y669659D01*
X299277Y669495D01*
X299021Y669352D01*
X298706Y669229D01*
X298318Y669130D01*
X298019Y669088D01*
X287533D01*
X286646Y669681D01*
X284500Y670108D01*
X282354Y669681D01*
X280535Y668465D01*
X279782Y667338D01*
X267580D01*
X267165Y667375D01*
X266585Y667471D01*
X266150Y667587D01*
X265866Y667702D01*
X265750Y667773D01*
Y672750D01*
X252236D01*
X250756Y673739D01*
X249000Y674088D01*
X238319D01*
Y689182D01*
X238334Y689358D01*
X238357Y689500D01*
X239750D01*
Y691487D01*
X239759Y691531D01*
X239750Y691574D01*
Y697921D01*
X239750Y698500D01*
X240734Y699191D01*
X245500D01*
Y693000D01*
X270700D01*
Y712000D01*
X261159D01*
Y791400D01*
X261159Y791400D01*
X260926Y792571D01*
X260263Y793563D01*
X260263Y793563D01*
X249992Y803833D01*
X249694Y804155D01*
X249501Y804397D01*
X249500Y804397D01*
Y804815D01*
X249509Y804859D01*
X249500Y804903D01*
Y825000D01*
X224500D01*
Y800000D01*
X244597D01*
X244641Y799991D01*
X244685Y800000D01*
X245099D01*
X245589Y799585D01*
X255041Y790133D01*
Y712000D01*
X245500D01*
Y705309D01*
X240034D01*
X239837Y705545D01*
X239757Y705654D01*
X239750Y705665D01*
Y708500D01*
X237209D01*
X237124Y708522D01*
X237013Y708562D01*
X236883Y708622D01*
X236734Y708706D01*
X236567Y708816D01*
X236383Y708955D01*
X236299Y709027D01*
X233413Y711913D01*
X232421Y712576D01*
X231250Y712809D01*
X231250Y712809D01*
X212000D01*
Y714250D01*
X202000D01*
Y705520D01*
X202000Y705250D01*
Y704250D01*
X202000Y703980D01*
Y695250D01*
X203941D01*
Y693758D01*
X203937Y693730D01*
X203909Y693612D01*
X203866Y693485D01*
X203805Y693347D01*
X203722Y693195D01*
X203615Y693029D01*
X203480Y692849D01*
X203317Y692658D01*
X203305Y692646D01*
X203035Y692465D01*
X201819Y690646D01*
X201392Y688500D01*
X201819Y686354D01*
X203035Y684535D01*
X204553Y683520D01*
X204215Y682250D01*
X195107D01*
X195085Y682383D01*
X195069Y682568D01*
Y694932D01*
X195084Y695108D01*
X195107Y695250D01*
X196500D01*
Y697237D01*
X196509Y697281D01*
X196500Y697324D01*
Y703980D01*
X196500Y704250D01*
Y705250D01*
X196500Y705520D01*
Y714250D01*
X194559D01*
Y802544D01*
X195915Y803585D01*
X197919Y806196D01*
X199178Y809237D01*
X199608Y812500D01*
X199178Y815763D01*
X197919Y818804D01*
X195915Y821415D01*
X193304Y823419D01*
X190263Y824678D01*
X187000Y825108D01*
D02*
G37*
G36*
X313540Y701230D02*
X301670D01*
Y692460D01*
X313540D01*
Y701230D01*
D02*
G37*
G36*
X299130D02*
X287260D01*
Y692460D01*
X299130D01*
Y701230D01*
D02*
G37*
G36*
X87000Y825108D02*
X83737Y824678D01*
X80696Y823419D01*
X78085Y821415D01*
X76081Y818804D01*
X74822Y815763D01*
X74392Y812500D01*
X74822Y809237D01*
X76081Y806196D01*
X78085Y803585D01*
X78399Y803344D01*
X78502Y803230D01*
X78769Y802854D01*
X79019Y802405D01*
X79249Y801877D01*
X79455Y801266D01*
X79630Y800571D01*
X79766Y799820D01*
X79939Y797962D01*
X79940Y797948D01*
Y753110D01*
X37190Y710360D01*
X35035D01*
X34576Y710300D01*
X10095D01*
Y668200D01*
X42035D01*
Y696519D01*
X43645Y697186D01*
X45107Y698307D01*
X91992Y745193D01*
X93115Y746655D01*
X93820Y748358D01*
X94060Y750185D01*
Y797948D01*
X94061Y797989D01*
X94125Y798931D01*
X94229Y799793D01*
X94370Y800571D01*
X94545Y801266D01*
X94751Y801877D01*
X94981Y802405D01*
X95231Y802854D01*
X95498Y803230D01*
X95601Y803344D01*
X95915Y803585D01*
X97919Y806196D01*
X99178Y809237D01*
X99608Y812500D01*
X99178Y815763D01*
X97919Y818804D01*
X95915Y821415D01*
X93304Y823419D01*
X90263Y824678D01*
X87000Y825108D01*
D02*
G37*
G36*
X154040Y674540D02*
X144770D01*
Y665270D01*
X154040D01*
Y674540D01*
D02*
G37*
G36*
X142230D02*
X132960D01*
Y665270D01*
X142230D01*
Y674540D01*
D02*
G37*
G36*
X154040Y662730D02*
X144770D01*
Y653460D01*
X154040D01*
Y662730D01*
D02*
G37*
G36*
X142230D02*
X132960D01*
Y653460D01*
X142230D01*
Y662730D01*
D02*
G37*
G36*
X214142Y645310D02*
X162750D01*
X160923Y645070D01*
X159220Y644364D01*
X157758Y643242D01*
X155723Y641208D01*
X155070Y641222D01*
X153500Y641348D01*
Y642000D01*
X151513D01*
X151469Y642009D01*
X151451Y642005D01*
X151433Y642008D01*
X151395Y642000D01*
X133500D01*
Y638995D01*
X132173Y638820D01*
X130470Y638115D01*
X129008Y636992D01*
X93076Y601060D01*
X60925D01*
X45424Y616561D01*
Y619123D01*
X46433Y620439D01*
X47394Y622760D01*
X47722Y625250D01*
X47394Y627741D01*
X46433Y630061D01*
X44904Y632054D01*
X42911Y633583D01*
X40590Y634544D01*
X38100Y634872D01*
X35610Y634544D01*
X33289Y633583D01*
X31296Y632054D01*
X29767Y630061D01*
X28806Y627741D01*
X28478Y625250D01*
X28806Y622760D01*
X29767Y620439D01*
X31296Y618446D01*
X31303Y618441D01*
Y613637D01*
X31543Y611810D01*
X32249Y610107D01*
X33371Y608644D01*
X53007Y589008D01*
X54470Y587886D01*
X56173Y587180D01*
X58000Y586940D01*
X96000D01*
X97827Y587180D01*
X99530Y587886D01*
X100992Y589008D01*
X133985Y622000D01*
X153500D01*
Y626491D01*
X153849Y626619D01*
X154445Y626765D01*
X155206Y626887D01*
X157329Y627046D01*
X158607D01*
X160434Y627287D01*
X162137Y627992D01*
X163599Y629114D01*
X165674Y631190D01*
X211218D01*
X212940Y629468D01*
Y611500D01*
X213180Y609673D01*
X213250Y609504D01*
Y598750D01*
X226750D01*
Y609504D01*
X226820Y609673D01*
X227060Y611500D01*
Y632392D01*
X226820Y634220D01*
X226115Y635922D01*
X224993Y637385D01*
X219135Y643242D01*
X217672Y644364D01*
X215970Y645070D01*
X214142Y645310D01*
D02*
G37*
G36*
X266290Y641290D02*
X257020D01*
Y632020D01*
X266290D01*
Y641290D01*
D02*
G37*
G36*
X254480D02*
X245210D01*
Y632020D01*
X254480D01*
Y641290D01*
D02*
G37*
G36*
X64770Y635250D02*
Y626520D01*
X73500D01*
X73320Y627881D01*
X72305Y630334D01*
X70689Y632439D01*
X68583Y634055D01*
X66131Y635070D01*
X64770Y635250D01*
D02*
G37*
G36*
X62230Y635250D02*
X60869Y635070D01*
X58417Y634055D01*
X56311Y632439D01*
X54695Y630334D01*
X53679Y627881D01*
X53500Y626520D01*
X62230D01*
Y635250D01*
D02*
G37*
G36*
X266290Y629480D02*
X257020D01*
Y620210D01*
X266290D01*
Y629480D01*
D02*
G37*
G36*
X254480D02*
X245210D01*
Y620210D01*
X254480D01*
Y629480D01*
D02*
G37*
G36*
X310520Y627059D02*
Y618370D01*
X319209D01*
X319032Y619721D01*
X318020Y622163D01*
X316411Y624261D01*
X314313Y625870D01*
X311871Y626882D01*
X310520Y627059D01*
D02*
G37*
G36*
X307980D02*
X306629Y626882D01*
X304187Y625870D01*
X302089Y624261D01*
X300480Y622163D01*
X299468Y619721D01*
X299291Y618370D01*
X307980D01*
Y627059D01*
D02*
G37*
G36*
X113405Y710300D02*
X81465D01*
Y670271D01*
X81456Y670226D01*
X81464Y670187D01*
X81458Y670148D01*
X81465Y669974D01*
Y668200D01*
X81537D01*
X81840Y660713D01*
Y641168D01*
X81837Y640937D01*
X81644Y637860D01*
X81487Y636701D01*
X81295Y635765D01*
X81088Y635093D01*
X80947Y634790D01*
X79360D01*
Y632803D01*
X79351Y632760D01*
X79360Y632716D01*
Y615710D01*
X98440D01*
Y632716D01*
X98449Y632760D01*
X98440Y632803D01*
Y634790D01*
X96853D01*
X96712Y635093D01*
X96505Y635765D01*
X96323Y636650D01*
X95963Y640958D01*
X95960Y641168D01*
Y661011D01*
X95987Y662018D01*
X96124Y663581D01*
X96345Y664909D01*
X96636Y665993D01*
X96976Y666827D01*
X97336Y667416D01*
X97684Y667793D01*
X98023Y668021D01*
X98407Y668157D01*
X98807Y668200D01*
X113405D01*
Y710300D01*
D02*
G37*
G36*
X73500Y623980D02*
X64770D01*
Y615250D01*
X66131Y615429D01*
X68583Y616445D01*
X70689Y618061D01*
X72305Y620167D01*
X73320Y622619D01*
X73500Y623980D01*
D02*
G37*
G36*
X62230D02*
X53500D01*
X53679Y622619D01*
X54695Y620167D01*
X56311Y618061D01*
X58417Y616445D01*
X60869Y615429D01*
X62230Y615250D01*
Y623980D01*
D02*
G37*
G36*
X181290Y624790D02*
X175270D01*
Y612770D01*
X181290D01*
Y624790D01*
D02*
G37*
G36*
X172730D02*
X166710D01*
Y612770D01*
X172730D01*
Y624790D01*
D02*
G37*
G36*
X319209Y615830D02*
X310520D01*
Y607141D01*
X311871Y607318D01*
X314313Y608330D01*
X316411Y609939D01*
X318020Y612037D01*
X319032Y614479D01*
X319209Y615830D01*
D02*
G37*
G36*
X307980D02*
X299291D01*
X299468Y614479D01*
X300480Y612037D01*
X302089Y609939D01*
X304187Y608330D01*
X306629Y607318D01*
X307980Y607141D01*
Y615830D01*
D02*
G37*
G36*
X181290Y610230D02*
X175270D01*
Y598210D01*
X181290D01*
Y610230D01*
D02*
G37*
G36*
X172730D02*
X166710D01*
Y598210D01*
X172730D01*
Y610230D01*
D02*
G37*
G36*
X309250Y601282D02*
X306770Y600956D01*
X304459Y599998D01*
X302475Y598475D01*
X300952Y596491D01*
X300479Y595350D01*
X300387Y595221D01*
X300295Y595016D01*
X300257Y594954D01*
X300228Y594918D01*
X300203Y594894D01*
X300169Y594871D01*
X300113Y594842D01*
X300021Y594809D01*
X299882Y594776D01*
X299753Y594759D01*
X299450D01*
X299450Y594759D01*
X298279Y594526D01*
X297287Y593863D01*
X289337Y585913D01*
X288674Y584921D01*
X288441Y583750D01*
X288441Y583750D01*
Y495267D01*
X259483Y466309D01*
X245267D01*
X236413Y475163D01*
X235420Y475826D01*
X234250Y476059D01*
X234250Y476059D01*
X224500D01*
X223329Y475826D01*
X222337Y475163D01*
X222337Y475163D01*
X218337Y471163D01*
X217674Y470171D01*
X217441Y469000D01*
X217441Y469000D01*
Y466927D01*
X216550Y466196D01*
X214450D01*
X213533Y466014D01*
X213000Y465658D01*
X212467Y466014D01*
X211550Y466196D01*
X209450D01*
X208533Y466014D01*
X208000Y465658D01*
X207467Y466014D01*
X206550Y466196D01*
X204450D01*
X203533Y466014D01*
X203000Y465658D01*
X202467Y466014D01*
X201550Y466196D01*
X199450D01*
X198533Y466014D01*
X198000Y465658D01*
X197467Y466014D01*
X196550Y466196D01*
X194450D01*
X193533Y466014D01*
X193000Y465658D01*
X192467Y466014D01*
X191550Y466196D01*
X189450D01*
X188533Y466014D01*
X188000Y465658D01*
X187467Y466014D01*
X186550Y466196D01*
X184450D01*
X183533Y466014D01*
X183000Y465658D01*
X182467Y466014D01*
X181550Y466196D01*
X179450D01*
X178533Y466014D01*
X178000Y465658D01*
X177467Y466014D01*
X176550Y466196D01*
X174450D01*
X173533Y466014D01*
X173000Y465658D01*
X172467Y466014D01*
X171550Y466196D01*
X169450D01*
X168533Y466014D01*
X168000Y465658D01*
X167467Y466014D01*
X166550Y466196D01*
X164450D01*
X163533Y466014D01*
X163000Y465658D01*
X162467Y466014D01*
X161550Y466196D01*
X159450D01*
X158533Y466014D01*
X158000Y465658D01*
X157467Y466014D01*
X156550Y466196D01*
X154450D01*
X153533Y466014D01*
X152756Y465494D01*
X152236Y464717D01*
X152054Y463800D01*
Y459859D01*
X139200D01*
X139200Y459859D01*
X139200Y459859D01*
X137058D01*
X136916Y459874D01*
X136704Y459915D01*
X136506Y459969D01*
X136317Y460038D01*
X136135Y460122D01*
X135957Y460223D01*
X135780Y460343D01*
X135670Y460431D01*
X135438Y460663D01*
X134446Y461326D01*
X133276Y461559D01*
X133275Y461559D01*
X131367D01*
X130912Y462829D01*
X131931Y464354D01*
X132358Y466500D01*
X131931Y468646D01*
X130715Y470465D01*
X129490Y471284D01*
X129875Y472554D01*
X143300D01*
X144217Y472736D01*
X144994Y473256D01*
X145514Y474033D01*
X145696Y474950D01*
Y477050D01*
X145514Y477967D01*
X145157Y478500D01*
X145514Y479033D01*
X145696Y479950D01*
Y482050D01*
X145514Y482967D01*
X145157Y483500D01*
X145514Y484033D01*
X145696Y484950D01*
Y487050D01*
X145514Y487967D01*
X145157Y488500D01*
X145514Y489033D01*
X145696Y489950D01*
Y492050D01*
X145514Y492967D01*
X145157Y493500D01*
X145514Y494033D01*
X145696Y494950D01*
Y497050D01*
X145514Y497967D01*
X145157Y498500D01*
X145514Y499033D01*
X145696Y499950D01*
Y502050D01*
X145514Y502967D01*
X145157Y503500D01*
X145514Y504033D01*
X145696Y504950D01*
Y507050D01*
X145514Y507967D01*
X145157Y508500D01*
X145514Y509033D01*
X145696Y509950D01*
Y512050D01*
X145514Y512967D01*
X145157Y513500D01*
X145514Y514033D01*
X145696Y514950D01*
Y517050D01*
X145514Y517967D01*
X145157Y518500D01*
X145514Y519033D01*
X145696Y519950D01*
Y522050D01*
X145514Y522967D01*
X145157Y523500D01*
X145514Y524033D01*
X145696Y524950D01*
Y527050D01*
X145514Y527967D01*
X145157Y528500D01*
X145514Y529033D01*
X145696Y529950D01*
Y532050D01*
X145514Y532967D01*
X145157Y533500D01*
X145514Y534033D01*
X145696Y534950D01*
Y537050D01*
X145514Y537967D01*
X145157Y538500D01*
X145514Y539033D01*
X145696Y539950D01*
Y542050D01*
X145514Y542967D01*
X145482Y543014D01*
X146022Y543822D01*
X146203Y544730D01*
X126173D01*
X125898Y544395D01*
X124482Y544344D01*
X119413Y549413D01*
X118420Y550076D01*
X117250Y550309D01*
X117250Y550309D01*
X114000D01*
Y552250D01*
X105336Y552250D01*
X104290Y552790D01*
X103954Y552790D01*
X100520D01*
Y547250D01*
Y541710D01*
X103954D01*
X104290Y541710D01*
X105336Y542250D01*
X105560Y542250D01*
X107441D01*
Y537036D01*
X107441Y537035D01*
X107674Y535865D01*
X108337Y534873D01*
X109509Y533701D01*
X109509Y533701D01*
X110501Y533038D01*
X111207Y532898D01*
X112285Y531285D01*
X113715Y530329D01*
X113330Y529059D01*
X69850D01*
X69850Y529059D01*
X68679Y528826D01*
X67687Y528163D01*
X67687Y528163D01*
X25673Y486149D01*
X25649Y486129D01*
X25417Y485986D01*
X25071Y485828D01*
X24609Y485671D01*
X24032Y485525D01*
X23347Y485401D01*
X22578Y485305D01*
X20659Y485194D01*
X19818Y485190D01*
X19500Y485232D01*
X17020Y484906D01*
X14709Y483948D01*
X12725Y482425D01*
X11202Y480441D01*
X10245Y478130D01*
X9918Y475650D01*
X10245Y473170D01*
X11202Y470859D01*
X12725Y468875D01*
X14709Y467352D01*
X17020Y466395D01*
X19500Y466068D01*
X21980Y466395D01*
X24291Y467352D01*
X26275Y468875D01*
X27798Y470859D01*
X28756Y473170D01*
X29082Y475650D01*
X29040Y475968D01*
X29044Y476809D01*
X29155Y478728D01*
X29251Y479497D01*
X29375Y480183D01*
X29520Y480759D01*
X29678Y481221D01*
X29836Y481567D01*
X29979Y481799D01*
X29999Y481823D01*
X71117Y522941D01*
X113819D01*
X114345Y521671D01*
X108733Y516059D01*
X82250D01*
X82250Y516059D01*
X81080Y515826D01*
X80087Y515163D01*
X25673Y460749D01*
X25649Y460729D01*
X25417Y460586D01*
X25071Y460428D01*
X24609Y460271D01*
X24032Y460125D01*
X23347Y460001D01*
X22578Y459905D01*
X20659Y459794D01*
X19818Y459790D01*
X19500Y459832D01*
X17020Y459506D01*
X14709Y458548D01*
X12725Y457025D01*
X11202Y455041D01*
X10245Y452730D01*
X9918Y450250D01*
X10245Y447770D01*
X11202Y445459D01*
X12725Y443475D01*
X14709Y441952D01*
X17020Y440994D01*
X19500Y440668D01*
X21980Y440994D01*
X24291Y441952D01*
X26275Y443475D01*
X27798Y445459D01*
X28756Y447770D01*
X29082Y450250D01*
X29040Y450568D01*
X29044Y451409D01*
X29155Y453328D01*
X29251Y454097D01*
X29375Y454783D01*
X29520Y455359D01*
X29678Y455821D01*
X29836Y456167D01*
X29979Y456399D01*
X29999Y456423D01*
X83517Y509941D01*
X110000D01*
X110000Y509941D01*
X111171Y510174D01*
X112163Y510837D01*
X118867Y517541D01*
X126501D01*
X126904Y517050D01*
Y514950D01*
X127086Y514033D01*
X127443Y513500D01*
X127086Y512967D01*
X126904Y512050D01*
Y509950D01*
X127086Y509033D01*
X127443Y508500D01*
X127086Y507967D01*
X126904Y507050D01*
Y504950D01*
X126173Y504059D01*
X86250D01*
X85079Y503826D01*
X84087Y503163D01*
X84087Y503163D01*
X80087Y499163D01*
X79424Y498171D01*
X79191Y497000D01*
X79191Y497000D01*
Y462500D01*
X77250D01*
Y453770D01*
X77250Y453500D01*
Y452500D01*
X77250Y452230D01*
Y443500D01*
X79341D01*
Y431900D01*
X74100D01*
Y415300D01*
X90700D01*
Y431900D01*
X85459D01*
Y443500D01*
X87250D01*
Y452230D01*
X87250Y452500D01*
Y453500D01*
X87250Y453770D01*
Y462500D01*
X85309D01*
Y495733D01*
X87517Y497941D01*
X126173D01*
X126904Y497050D01*
Y494950D01*
X127086Y494033D01*
X127443Y493500D01*
X127086Y492967D01*
X126904Y492050D01*
Y489950D01*
X127086Y489033D01*
X127443Y488500D01*
X127086Y487967D01*
X126904Y487050D01*
Y485968D01*
X125634Y485442D01*
X119163Y491913D01*
X118171Y492576D01*
X117000Y492809D01*
X117000Y492809D01*
X115000D01*
Y494750D01*
X106336Y494750D01*
X105290Y495290D01*
X104954Y495290D01*
X101520D01*
Y489750D01*
Y484210D01*
X104954D01*
X105290Y484210D01*
X106336Y484750D01*
X106560Y484750D01*
X115000D01*
Y485628D01*
X116270Y486154D01*
X122346Y480079D01*
X121819Y478809D01*
X115250D01*
Y480750D01*
X106586Y480750D01*
X105540Y481290D01*
X105204Y481290D01*
X101770D01*
Y475750D01*
Y470210D01*
X105204D01*
X105540Y470210D01*
X105928Y470410D01*
X106308Y470216D01*
X106413Y470109D01*
X106578Y468654D01*
X103415Y465491D01*
X102753Y464499D01*
X102554Y463500D01*
X101000D01*
Y453500D01*
X109730D01*
X110000Y453500D01*
Y453500D01*
X111000D01*
Y453500D01*
X120000D01*
Y455441D01*
X127632D01*
X128118Y454268D01*
X122387Y448537D01*
X121724Y447545D01*
X121491Y446374D01*
X121491Y446374D01*
Y439250D01*
X120211Y438720D01*
X118414Y437341D01*
X117034Y435543D01*
X116167Y433450D01*
X115872Y431204D01*
Y417996D01*
X116167Y415750D01*
X117034Y413657D01*
X118414Y411860D01*
X120211Y410480D01*
X122304Y409613D01*
X124550Y409318D01*
X126796Y409613D01*
X128889Y410480D01*
X130686Y411860D01*
X132066Y413657D01*
X132933Y415750D01*
X133228Y417996D01*
Y431204D01*
X132933Y433450D01*
X132066Y435543D01*
X130686Y437341D01*
X128889Y438720D01*
X127609Y439250D01*
Y445107D01*
X135665Y453164D01*
X135777Y453253D01*
X135955Y453374D01*
X136134Y453476D01*
X136317Y453561D01*
X136506Y453630D01*
X136706Y453685D01*
X136917Y453726D01*
X137059Y453741D01*
X139200D01*
X139200Y453741D01*
X152054D01*
Y449800D01*
X152236Y448883D01*
X152756Y448106D01*
X153533Y447586D01*
X154450Y447404D01*
X156550D01*
X157467Y447586D01*
X158000Y447943D01*
X158533Y447586D01*
X159450Y447404D01*
X161550D01*
X162467Y447586D01*
X163000Y447943D01*
X163533Y447586D01*
X164450Y447404D01*
X166550D01*
X167467Y447586D01*
X168000Y447943D01*
X168533Y447586D01*
X169450Y447404D01*
X171550D01*
X172467Y447586D01*
X173000Y447943D01*
X173533Y447586D01*
X174450Y447404D01*
X176550D01*
X176831Y447173D01*
Y444128D01*
X171477Y438773D01*
X170703Y437616D01*
X170431Y436250D01*
Y421250D01*
X170703Y419884D01*
X171477Y418727D01*
X176227Y413977D01*
X177384Y413203D01*
X178750Y412931D01*
X276500D01*
X277866Y413203D01*
X279023Y413977D01*
X288478Y423431D01*
X293182D01*
X293358Y423416D01*
X293500Y423393D01*
Y422000D01*
X295487D01*
X295530Y421991D01*
X295574Y422000D01*
X302230D01*
X302500Y422000D01*
X303500D01*
X303770Y422000D01*
X312500D01*
Y429926D01*
X312509Y429969D01*
X312500Y430013D01*
Y432000D01*
X311588D01*
X311569Y432238D01*
Y434432D01*
X311585Y434616D01*
X311607Y434750D01*
X314000D01*
Y451250D01*
X299020D01*
X299000Y451250D01*
X297750Y451298D01*
Y451500D01*
X287210D01*
X287087Y451587D01*
X286210Y452337D01*
X285023Y453523D01*
X283866Y454297D01*
X282500Y454569D01*
X278188D01*
X278035Y454574D01*
X278000Y454578D01*
Y455500D01*
X276013D01*
X275970Y455509D01*
X275926Y455500D01*
X268000D01*
Y446770D01*
X268000Y446500D01*
Y445500D01*
X268000Y445230D01*
Y438574D01*
X267991Y438531D01*
X268000Y438487D01*
Y436500D01*
X269393D01*
X269416Y436358D01*
X269431Y436183D01*
Y432654D01*
X269407Y432500D01*
X269373Y432357D01*
X269336Y432244D01*
X269299Y432158D01*
X269264Y432094D01*
X269231Y432046D01*
X269199Y432008D01*
X269139Y431952D01*
X268785Y431715D01*
X267569Y429896D01*
X267142Y427750D01*
X267569Y425604D01*
X268785Y423785D01*
X270604Y422569D01*
X272750Y422142D01*
X274896Y422569D01*
X276715Y423785D01*
X277931Y425604D01*
X278358Y427750D01*
X277931Y429896D01*
X276741Y431677D01*
X276711Y431744D01*
X276667Y431870D01*
X276626Y432021D01*
X276591Y432197D01*
X276569Y432362D01*
Y436183D01*
X276584Y436358D01*
X276607Y436500D01*
X278000D01*
Y438487D01*
X278009Y438531D01*
X278000Y438574D01*
Y445230D01*
X278000Y445500D01*
Y446500D01*
X278996Y447431D01*
X281022D01*
X281028Y447425D01*
X282020Y446299D01*
X282405Y445794D01*
X282688Y445367D01*
X282750Y445252D01*
Y435000D01*
X297730D01*
X297750Y435000D01*
X299000Y434952D01*
Y434750D01*
X304393D01*
X304415Y434616D01*
X304431Y434432D01*
Y433266D01*
X303500Y432000D01*
X302500D01*
X302230Y432000D01*
X295574D01*
X295530Y432009D01*
X295487Y432000D01*
X293500D01*
Y430607D01*
X293358Y430584D01*
X293183Y430569D01*
X287000D01*
X285634Y430297D01*
X284477Y429523D01*
X275022Y420069D01*
X235350D01*
X235040Y421210D01*
X235040Y421339D01*
Y424980D01*
X229500D01*
X223960D01*
Y421339D01*
X223960Y421210D01*
X223650Y420069D01*
X180228D01*
X177569Y422728D01*
Y434772D01*
X180758Y437961D01*
X181931Y437475D01*
Y433524D01*
X181908Y433362D01*
X181873Y433203D01*
X181833Y433071D01*
X181791Y432964D01*
X181749Y432879D01*
X181728Y432844D01*
X181535Y432715D01*
X180319Y430896D01*
X179892Y428750D01*
X180319Y426604D01*
X181535Y424785D01*
X183354Y423569D01*
X185500Y423142D01*
X187646Y423569D01*
X189465Y424785D01*
X190681Y426604D01*
X191108Y428750D01*
X190681Y430896D01*
X189465Y432715D01*
X189272Y432844D01*
X189251Y432879D01*
X189209Y432964D01*
X189167Y433071D01*
X189127Y433203D01*
X189093Y433362D01*
X189069Y433524D01*
Y447091D01*
X189450Y447404D01*
X191550D01*
X192467Y447586D01*
X193000Y447943D01*
X193533Y447586D01*
X194450Y447404D01*
X196550D01*
X197441Y446673D01*
Y434672D01*
X197440Y434664D01*
X197424Y434607D01*
X197405Y434562D01*
X197380Y434518D01*
X197343Y434468D01*
X197285Y434406D01*
X197198Y434330D01*
X197089Y434254D01*
X197069Y434240D01*
X196842Y434109D01*
X196749Y434027D01*
X195535Y433215D01*
X194319Y431396D01*
X193892Y429250D01*
X194319Y427104D01*
X195535Y425285D01*
X197354Y424069D01*
X199500Y423642D01*
X201646Y424069D01*
X203465Y425285D01*
X204681Y427104D01*
X204842Y427917D01*
X204912Y428072D01*
X204998Y428444D01*
X205075Y428728D01*
X205272Y429301D01*
X205357Y429498D01*
X205453Y429689D01*
X205548Y429853D01*
X205639Y429989D01*
X205661Y430016D01*
X208263Y432618D01*
X208263Y432618D01*
X208926Y433611D01*
X209159Y434781D01*
X209159Y434781D01*
Y447165D01*
X209450Y447404D01*
X211550D01*
X212467Y447586D01*
X213000Y447943D01*
X213533Y447586D01*
X214450Y447404D01*
X216550D01*
X217467Y447586D01*
X218000Y447943D01*
X218533Y447586D01*
X219450Y447404D01*
X221550D01*
X222441Y446673D01*
Y440500D01*
X222441Y440500D01*
X222674Y439329D01*
X223337Y438337D01*
X224040Y437634D01*
X224359Y437293D01*
X224500Y437119D01*
X224500Y432336D01*
X223960Y431290D01*
X223960Y430954D01*
Y427520D01*
X229500D01*
X235040D01*
Y430954D01*
X235040Y431290D01*
X234500Y432336D01*
X234500Y432560D01*
Y441000D01*
X229533D01*
X229422Y441073D01*
X228559Y441804D01*
Y446673D01*
X229450Y447404D01*
X231550D01*
X232467Y447586D01*
X233244Y448106D01*
X234067Y448187D01*
X239733Y442520D01*
X239500Y441250D01*
X239500D01*
Y439263D01*
X239491Y439220D01*
X239500Y439176D01*
X239500Y432586D01*
X238960Y431540D01*
X238960Y431204D01*
Y427770D01*
X244500D01*
X250040D01*
Y431204D01*
X250040Y431540D01*
X249848Y431911D01*
X250555Y433084D01*
X250762Y433181D01*
X253976D01*
X254138Y433158D01*
X254297Y433123D01*
X254429Y433083D01*
X254536Y433041D01*
X254621Y432999D01*
X254656Y432978D01*
X254785Y432785D01*
X256604Y431569D01*
X258750Y431142D01*
X260896Y431569D01*
X262715Y432785D01*
X263931Y434604D01*
X264358Y436750D01*
X263931Y438896D01*
X262715Y440715D01*
X260896Y441931D01*
X258750Y442358D01*
X256604Y441931D01*
X254785Y440715D01*
X254656Y440522D01*
X254621Y440501D01*
X254536Y440459D01*
X254429Y440417D01*
X254297Y440377D01*
X254138Y440342D01*
X253976Y440319D01*
X249688D01*
X249535Y440324D01*
X249500Y440328D01*
Y441250D01*
X248107D01*
X248084Y441392D01*
X248069Y441567D01*
Y442800D01*
X247797Y444166D01*
X247023Y445323D01*
X237266Y455081D01*
X236108Y455854D01*
X234743Y456126D01*
X234085D01*
X234069Y456127D01*
Y456800D01*
X233946Y457416D01*
Y463800D01*
X233764Y464717D01*
X233244Y465494D01*
X232467Y466014D01*
X231550Y466196D01*
X229450D01*
X228533Y466014D01*
X228000Y465658D01*
X227467Y466014D01*
X226550Y466196D01*
X224450D01*
X223935Y466619D01*
X223881Y468056D01*
X225767Y469941D01*
X232983D01*
X241837Y461087D01*
X241837Y461087D01*
X242829Y460424D01*
X244000Y460191D01*
X260750D01*
X260750Y460191D01*
X261921Y460424D01*
X262913Y461087D01*
X293663Y491837D01*
X293663Y491837D01*
X294326Y492829D01*
X294559Y494000D01*
Y582483D01*
X299404Y587328D01*
X300902Y587030D01*
X300952Y586909D01*
X302475Y584925D01*
X304459Y583402D01*
X306770Y582445D01*
X309250Y582118D01*
X311730Y582445D01*
X314041Y583402D01*
X316026Y584925D01*
X317548Y586909D01*
X318505Y589220D01*
X318832Y591700D01*
X318505Y594180D01*
X317548Y596491D01*
X316026Y598475D01*
X314041Y599998D01*
X311730Y600956D01*
X309250Y601282D01*
D02*
G37*
G36*
X252520Y594790D02*
Y590520D01*
X256290D01*
Y594790D01*
X252520D01*
D02*
G37*
G36*
X132230Y594540D02*
X128460D01*
Y590270D01*
X132230D01*
Y594540D01*
D02*
G37*
G36*
X273290Y593540D02*
X269020D01*
Y589770D01*
X273290D01*
Y593540D01*
D02*
G37*
G36*
X266480D02*
X262210D01*
Y589770D01*
X266480D01*
Y593540D01*
D02*
G37*
G36*
X256290Y587980D02*
X252520D01*
Y583710D01*
X256290D01*
Y587980D01*
D02*
G37*
G36*
X132230Y587730D02*
X128460D01*
Y583460D01*
X132230D01*
Y587730D01*
D02*
G37*
G36*
X138540Y594540D02*
X138204Y594540D01*
X134770D01*
Y589000D01*
Y583460D01*
X138204D01*
X138540Y583460D01*
X139273Y583839D01*
X139915Y583626D01*
X140153Y583280D01*
X140210Y583170D01*
X140259Y583027D01*
X140393Y582213D01*
X140265Y582061D01*
X140106Y581896D01*
X139896Y581707D01*
X139535Y581465D01*
X138319Y579646D01*
X137892Y577500D01*
X138319Y575354D01*
X138870Y574529D01*
X138192Y573259D01*
X37850D01*
X37850Y573259D01*
X36679Y573026D01*
X35687Y572363D01*
X35687Y572363D01*
X25155Y561831D01*
X24837Y561535D01*
X24607Y561350D01*
X10000D01*
Y542350D01*
X29000D01*
Y556953D01*
X29406Y557430D01*
X39117Y567141D01*
X152054D01*
Y563200D01*
X152236Y562283D01*
X152756Y561506D01*
X153533Y560986D01*
X154450Y560804D01*
X156550D01*
X157467Y560986D01*
X158000Y561343D01*
X158533Y560986D01*
X159450Y560804D01*
X161550D01*
X162467Y560986D01*
X163000Y561343D01*
X163533Y560986D01*
X164450Y560804D01*
X166550D01*
X167467Y560986D01*
X168000Y561343D01*
X168533Y560986D01*
X169450Y560804D01*
X171550D01*
X172467Y560986D01*
X172514Y561018D01*
X173322Y560478D01*
X174230Y560297D01*
Y570200D01*
Y580327D01*
X173559Y580878D01*
Y587250D01*
X173326Y588420D01*
X172663Y589413D01*
X170913Y591163D01*
X169921Y591826D01*
X168750Y592059D01*
X168750Y592059D01*
X148250D01*
Y594000D01*
X139586Y594000D01*
X138540Y594540D01*
D02*
G37*
G36*
X273290Y587230D02*
X267750D01*
X262210D01*
Y583796D01*
X262210Y583460D01*
X262402Y583089D01*
X261695Y581916D01*
X261488Y581819D01*
X258500D01*
X257134Y581547D01*
X255977Y580773D01*
X251419Y576216D01*
X250646Y575058D01*
X250374Y573693D01*
Y554740D01*
X250359Y554569D01*
X249700D01*
X249084Y554446D01*
X242700D01*
X241783Y554264D01*
X241006Y553744D01*
X240486Y552967D01*
X240304Y552050D01*
Y549950D01*
X240486Y549033D01*
X240518Y548986D01*
X239978Y548178D01*
X239797Y547270D01*
X259603D01*
X259422Y548178D01*
X258882Y548986D01*
X258914Y549033D01*
X259096Y549950D01*
Y552050D01*
X258914Y552967D01*
X258573Y553477D01*
X258486Y553629D01*
X258455Y553654D01*
X258394Y553744D01*
X257997Y554010D01*
X257858Y554118D01*
X257768Y554163D01*
X257690Y554215D01*
X257687Y554218D01*
X257655Y554275D01*
X257612Y554381D01*
X257565Y554545D01*
X257523Y554770D01*
X257511Y554882D01*
Y572215D01*
X259978Y574681D01*
X262562D01*
X262715Y574676D01*
X262750Y574672D01*
Y573750D01*
X264143D01*
X264166Y573608D01*
X264181Y573433D01*
Y571024D01*
X264158Y570862D01*
X264123Y570703D01*
X264083Y570571D01*
X264041Y570464D01*
X263999Y570379D01*
X263978Y570344D01*
X263785Y570215D01*
X262569Y568396D01*
X262142Y566250D01*
X262569Y564104D01*
X263785Y562285D01*
X265604Y561069D01*
X267750Y560642D01*
X269896Y561069D01*
X271715Y562285D01*
X272931Y564104D01*
X273358Y566250D01*
X272931Y568396D01*
X271715Y570215D01*
X271522Y570344D01*
X271501Y570379D01*
X271459Y570464D01*
X271417Y570571D01*
X271377Y570703D01*
X271343Y570862D01*
X271319Y571024D01*
Y573432D01*
X271334Y573608D01*
X271357Y573750D01*
X272750D01*
Y575737D01*
X272759Y575780D01*
X272750Y575824D01*
X272750Y582414D01*
X273290Y583460D01*
X273290Y583796D01*
Y587230D01*
D02*
G37*
G36*
X97980Y552790D02*
X94210D01*
Y548520D01*
X97980D01*
Y552790D01*
D02*
G37*
G36*
X126550Y563809D02*
X126550Y563809D01*
X79200D01*
X78029Y563576D01*
X77037Y562913D01*
X77037Y562913D01*
X53287Y539163D01*
X53287Y539163D01*
X25673Y511549D01*
X25649Y511529D01*
X25417Y511386D01*
X25071Y511228D01*
X24609Y511071D01*
X24032Y510925D01*
X23347Y510801D01*
X22578Y510705D01*
X20659Y510594D01*
X19818Y510590D01*
X19500Y510632D01*
X17020Y510305D01*
X14709Y509348D01*
X12725Y507826D01*
X11202Y505841D01*
X10245Y503530D01*
X9918Y501050D01*
X10245Y498570D01*
X11202Y496259D01*
X12725Y494275D01*
X14709Y492752D01*
X17020Y491795D01*
X19500Y491468D01*
X21980Y491795D01*
X24291Y492752D01*
X26275Y494275D01*
X27798Y496259D01*
X28756Y498570D01*
X29082Y501050D01*
X29040Y501368D01*
X29044Y502209D01*
X29155Y504128D01*
X29251Y504897D01*
X29375Y505583D01*
X29520Y506159D01*
X29678Y506621D01*
X29836Y506968D01*
X29979Y507199D01*
X29999Y507223D01*
X57613Y534837D01*
X57613Y534837D01*
X80467Y557691D01*
X125283D01*
X127664Y555310D01*
X127606Y553744D01*
X127086Y552967D01*
X126904Y552050D01*
Y549950D01*
X127086Y549033D01*
X127118Y548986D01*
X126578Y548178D01*
X126397Y547270D01*
X146203D01*
X146022Y548178D01*
X145482Y548986D01*
X145514Y549033D01*
X145696Y549950D01*
Y552050D01*
X145514Y552967D01*
X144994Y553744D01*
X144217Y554264D01*
X143300Y554446D01*
X137499D01*
X137498Y554446D01*
X137389Y554485D01*
X137260Y554545D01*
X137112Y554628D01*
X136944Y554739D01*
X136759Y554879D01*
X136674Y554952D01*
X128713Y562913D01*
X127720Y563576D01*
X126550Y563809D01*
D02*
G37*
G36*
X314020Y550790D02*
Y546520D01*
X317790D01*
Y550790D01*
X314020D01*
D02*
G37*
G36*
X97980Y545980D02*
X94210D01*
Y541710D01*
X97980D01*
Y545980D01*
D02*
G37*
G36*
X317790Y543980D02*
X314020D01*
Y539710D01*
X317790D01*
Y543980D01*
D02*
G37*
G36*
X318750Y575800D02*
X299750D01*
Y560834D01*
X299674Y560720D01*
X299441Y559550D01*
X299441Y559550D01*
Y550250D01*
X298000D01*
Y540250D01*
X299941D01*
Y536500D01*
X298500D01*
Y526500D01*
X299941D01*
Y522509D01*
X299937Y522480D01*
X299909Y522362D01*
X299866Y522235D01*
X299805Y522097D01*
X299722Y521945D01*
X299615Y521779D01*
X299481Y521599D01*
X299316Y521408D01*
X299305Y521396D01*
X299035Y521215D01*
X297819Y519396D01*
X297392Y517250D01*
X297819Y515104D01*
X299035Y513285D01*
X300854Y512069D01*
X303000Y511642D01*
X305146Y512069D01*
X306965Y513285D01*
X308181Y515104D01*
X309431Y514881D01*
Y512274D01*
X309408Y512112D01*
X309373Y511953D01*
X309333Y511821D01*
X309291Y511714D01*
X309249Y511629D01*
X309228Y511594D01*
X309035Y511465D01*
X307819Y509646D01*
X307392Y507500D01*
X307819Y505354D01*
X309035Y503535D01*
X310854Y502319D01*
X313000Y501892D01*
X315146Y502319D01*
X316965Y503535D01*
X318181Y505354D01*
X318608Y507500D01*
X318181Y509646D01*
X316965Y511465D01*
X316772Y511594D01*
X316751Y511629D01*
X316709Y511714D01*
X316667Y511821D01*
X316627Y511953D01*
X316593Y512112D01*
X316569Y512274D01*
Y526312D01*
X316574Y526465D01*
X316578Y526500D01*
X317500D01*
Y528487D01*
X317509Y528531D01*
X317500Y528574D01*
Y536500D01*
X308770D01*
X308500Y536500D01*
X307500D01*
X307329Y536500D01*
X306059Y536739D01*
Y539148D01*
X307329Y539907D01*
X307710Y539710D01*
X308046Y539710D01*
X311480D01*
Y545250D01*
Y550790D01*
X308046D01*
X307710Y550790D01*
X306829Y550335D01*
X306142Y550565D01*
X305559Y551148D01*
Y556800D01*
X318750D01*
Y575800D01*
D02*
G37*
G36*
X20770Y536409D02*
Y527720D01*
X29459D01*
X29282Y529071D01*
X28270Y531513D01*
X26661Y533611D01*
X24563Y535220D01*
X22121Y536232D01*
X20770Y536409D01*
D02*
G37*
G36*
X18230D02*
X16879Y536232D01*
X14437Y535220D01*
X12339Y533611D01*
X10730Y531513D01*
X9718Y529071D01*
X9541Y527720D01*
X18230D01*
Y536409D01*
D02*
G37*
G36*
X29459Y525180D02*
X20770D01*
Y516491D01*
X22121Y516668D01*
X24563Y517680D01*
X26661Y519289D01*
X28270Y521387D01*
X29282Y523829D01*
X29459Y525180D01*
D02*
G37*
G36*
X18230D02*
X9541D01*
X9718Y523829D01*
X10730Y521387D01*
X12339Y519289D01*
X14437Y517680D01*
X16879Y516668D01*
X18230Y516491D01*
Y525180D01*
D02*
G37*
G36*
X275790Y504730D02*
X271520D01*
Y500960D01*
X275790D01*
Y504730D01*
D02*
G37*
G36*
X268980D02*
X264710D01*
Y500960D01*
X268980D01*
Y504730D01*
D02*
G37*
G36*
X98980Y495290D02*
X95210D01*
Y491020D01*
X98980D01*
Y495290D01*
D02*
G37*
G36*
Y488480D02*
X95210D01*
Y484210D01*
X98980D01*
Y488480D01*
D02*
G37*
G36*
X99230Y481290D02*
X95460D01*
Y477020D01*
X99230D01*
Y481290D01*
D02*
G37*
G36*
Y474480D02*
X95460D01*
Y470210D01*
X99230D01*
Y474480D01*
D02*
G37*
G36*
X288980Y475040D02*
X282210D01*
Y467520D01*
X288980D01*
Y475040D01*
D02*
G37*
G36*
X307770Y474790D02*
Y467270D01*
X314540D01*
Y474790D01*
X307770D01*
D02*
G37*
G36*
X288980Y464980D02*
X282210D01*
Y457460D01*
X288980D01*
Y464980D01*
D02*
G37*
G36*
X314540Y464730D02*
X307770D01*
Y457210D01*
X314540D01*
Y464730D01*
D02*
G37*
G36*
X298290Y475040D02*
X297294Y475040D01*
X291520D01*
Y466250D01*
Y457460D01*
X297294D01*
X298460Y457210D01*
X299456Y457210D01*
X305230D01*
Y466000D01*
Y474790D01*
X299456D01*
X298290Y475040D01*
D02*
G37*
G36*
X151220Y440260D02*
Y425870D01*
X159173D01*
Y431204D01*
X158859Y433591D01*
X157937Y435816D01*
X156472Y437726D01*
X154561Y439191D01*
X152337Y440113D01*
X151220Y440260D01*
D02*
G37*
G36*
X148680Y440260D02*
X147563Y440113D01*
X145338Y439191D01*
X143428Y437726D01*
X141963Y435816D01*
X141041Y433591D01*
X140727Y431204D01*
Y425870D01*
X148680D01*
Y440260D01*
D02*
G37*
G36*
X58270Y432349D02*
Y424870D01*
X65749D01*
X65613Y425908D01*
X64722Y428058D01*
X63305Y429905D01*
X61458Y431322D01*
X59308Y432212D01*
X58270Y432349D01*
D02*
G37*
G36*
X55730D02*
X54692Y432212D01*
X52542Y431322D01*
X50695Y429905D01*
X49278Y428058D01*
X48388Y425908D01*
X48251Y424870D01*
X55730D01*
Y432349D01*
D02*
G37*
G36*
X250040Y425230D02*
X245770D01*
Y421460D01*
X250040D01*
Y425230D01*
D02*
G37*
G36*
X243230D02*
X238960D01*
Y421460D01*
X243230D01*
Y425230D01*
D02*
G37*
G36*
X31600Y431972D02*
X29433Y431686D01*
X27414Y430850D01*
X25680Y429520D01*
X24350Y427786D01*
X23514Y425767D01*
X23228Y423600D01*
X23514Y421433D01*
X24350Y419414D01*
X25680Y417680D01*
X27414Y416350D01*
X29433Y415514D01*
X31600Y415228D01*
X33767Y415514D01*
X35786Y416350D01*
X37520Y417680D01*
X38850Y419414D01*
X39686Y421433D01*
X39972Y423600D01*
X39686Y425767D01*
X38850Y427786D01*
X37520Y429520D01*
X35786Y430850D01*
X33767Y431686D01*
X31600Y431972D01*
D02*
G37*
G36*
X65749Y422330D02*
X58270D01*
Y414851D01*
X59308Y414987D01*
X61458Y415878D01*
X63305Y417295D01*
X64722Y419142D01*
X65613Y421292D01*
X65749Y422330D01*
D02*
G37*
G36*
X55730D02*
X48251D01*
X48388Y421292D01*
X49278Y419142D01*
X50695Y417295D01*
X52542Y415878D01*
X54692Y414987D01*
X55730Y414851D01*
Y422330D01*
D02*
G37*
G36*
X159173Y423330D02*
X151220D01*
Y408940D01*
X152337Y409087D01*
X154561Y410009D01*
X156472Y411474D01*
X157937Y413385D01*
X158859Y415609D01*
X159173Y417996D01*
Y423330D01*
D02*
G37*
G36*
X148680D02*
X140727D01*
Y417996D01*
X141041Y415609D01*
X141963Y413385D01*
X143428Y411474D01*
X145338Y410009D01*
X147563Y409087D01*
X148680Y408940D01*
Y423330D01*
D02*
G37*
%LPD*%
G36*
X247356Y804703D02*
X247300Y804520D01*
Y804307D01*
X247356Y804067D01*
X247470Y803798D01*
X247639Y803501D01*
X247866Y803176D01*
X248148Y802822D01*
X248884Y802030D01*
X247470Y800616D01*
X247059Y801012D01*
X246324Y801635D01*
X245999Y801861D01*
X245702Y802030D01*
X245433Y802144D01*
X245193Y802200D01*
X244981D01*
X244797Y802144D01*
X244641Y802030D01*
X247470Y804859D01*
X247356Y804703D01*
D02*
G37*
G36*
X192510Y713834D02*
X192540Y713489D01*
X192590Y713184D01*
X192660Y712920D01*
X192750Y712697D01*
X192860Y712514D01*
X192990Y712372D01*
X193140Y712270D01*
X193310Y712209D01*
X193500Y712189D01*
X189500D01*
X189690Y712209D01*
X189860Y712270D01*
X190010Y712372D01*
X190140Y712514D01*
X190250Y712697D01*
X190340Y712920D01*
X190410Y713184D01*
X190460Y713489D01*
X190490Y713834D01*
X190500Y714220D01*
X192500D01*
X192510Y713834D01*
D02*
G37*
G36*
X259110Y711584D02*
X259140Y711238D01*
X259190Y710934D01*
X259260Y710670D01*
X259350Y710447D01*
X259460Y710264D01*
X259590Y710122D01*
X259740Y710020D01*
X259910Y709959D01*
X260100Y709939D01*
X256100D01*
X256290Y709959D01*
X256460Y710020D01*
X256610Y710122D01*
X256740Y710264D01*
X256850Y710447D01*
X256940Y710670D01*
X257010Y710934D01*
X257060Y711238D01*
X257090Y711584D01*
X257100Y711970D01*
X259100D01*
X259110Y711584D01*
D02*
G37*
G36*
X209959Y711560D02*
X210020Y711390D01*
X210122Y711240D01*
X210264Y711110D01*
X210447Y711000D01*
X210670Y710910D01*
X210934Y710840D01*
X211239Y710790D01*
X211584Y710760D01*
X211970Y710750D01*
Y708750D01*
X211584Y708740D01*
X211239Y708710D01*
X210934Y708660D01*
X210670Y708590D01*
X210447Y708500D01*
X210264Y708390D01*
X210122Y708260D01*
X210020Y708110D01*
X209959Y707940D01*
X209939Y707750D01*
Y711750D01*
X209959Y711560D01*
D02*
G37*
G36*
X234818Y707611D02*
X235103Y707366D01*
X235389Y707150D01*
X235673Y706963D01*
X235956Y706804D01*
X236238Y706674D01*
X236520Y706572D01*
X236800Y706499D01*
X237080Y706455D01*
X237359Y706439D01*
X231780Y706469D01*
X232020Y706484D01*
X232205Y706526D01*
X232334Y706597D01*
X232409Y706696D01*
X232429Y706823D01*
X232393Y706979D01*
X232303Y707162D01*
X232158Y707375D01*
X231957Y707615D01*
X231702Y707884D01*
X234531D01*
X234818Y707611D01*
D02*
G37*
G36*
X237734Y705204D02*
X237776Y705052D01*
X237847Y704884D01*
X237946Y704701D01*
X238073Y704503D01*
X238229Y704289D01*
X238625Y703816D01*
X239134Y703280D01*
X238043Y701543D01*
X237981Y701601D01*
X237927Y701646D01*
X237878Y701678D01*
X237836Y701696D01*
X237800Y701702D01*
X237771Y701694D01*
X237749Y701673D01*
X237732Y701638D01*
X237723Y701591D01*
X237719Y701531D01*
Y705341D01*
X237734Y705204D01*
D02*
G37*
G36*
X247561Y700250D02*
X247541Y700440D01*
X247480Y700610D01*
X247378Y700760D01*
X247236Y700890D01*
X247053Y701000D01*
X246830Y701090D01*
X246566Y701160D01*
X246261Y701210D01*
X245916Y701240D01*
X245530Y701250D01*
Y703250D01*
X245916Y703260D01*
X246261Y703290D01*
X246566Y703340D01*
X246830Y703410D01*
X247053Y703500D01*
X247236Y703610D01*
X247378Y703740D01*
X247480Y703890D01*
X247541Y704060D01*
X247561Y704250D01*
Y700250D01*
D02*
G37*
G36*
X208810Y697291D02*
X208640Y697230D01*
X208490Y697128D01*
X208360Y696986D01*
X208250Y696803D01*
X208160Y696580D01*
X208090Y696316D01*
X208040Y696012D01*
X208010Y695666D01*
X208000Y695281D01*
X206000D01*
X205990Y695666D01*
X205960Y696012D01*
X205910Y696316D01*
X205840Y696580D01*
X205750Y696803D01*
X205640Y696986D01*
X205510Y697128D01*
X205360Y697230D01*
X205190Y697291D01*
X205000Y697311D01*
X209000D01*
X208810Y697291D01*
D02*
G37*
G36*
X194190Y697251D02*
X193941Y697160D01*
X193720Y697010D01*
X193529Y696801D01*
X193367Y696531D01*
X193235Y696200D01*
X193132Y695810D01*
X193059Y695360D01*
X193015Y694850D01*
X193000Y694280D01*
X190000D01*
X189985Y694850D01*
X189941Y695360D01*
X189868Y695810D01*
X189765Y696200D01*
X189633Y696531D01*
X189471Y696801D01*
X189280Y697010D01*
X189060Y697160D01*
X188810Y697251D01*
X188531Y697281D01*
X194470D01*
X194190Y697251D01*
D02*
G37*
G36*
X208015Y693649D02*
X208058Y693345D01*
X208130Y693044D01*
X208232Y692745D01*
X208363Y692449D01*
X208522Y692154D01*
X208710Y691862D01*
X208928Y691572D01*
X209174Y691285D01*
X209450Y691000D01*
X204550D01*
X204825Y691285D01*
X205072Y691572D01*
X205289Y691862D01*
X205478Y692154D01*
X205637Y692449D01*
X205768Y692745D01*
X205870Y693044D01*
X205942Y693345D01*
X205986Y693649D01*
X206000Y693954D01*
X208000D01*
X208015Y693649D01*
D02*
G37*
G36*
X237440Y691500D02*
X237190Y691411D01*
X236970Y691261D01*
X236779Y691050D01*
X236617Y690780D01*
X236485Y690451D01*
X236382Y690061D01*
X236309Y689611D01*
X236265Y689100D01*
X236250Y688531D01*
X233250D01*
X233235Y689100D01*
X233191Y689611D01*
X233118Y690061D01*
X233015Y690451D01*
X232883Y690780D01*
X232721Y691050D01*
X232530Y691261D01*
X232309Y691411D01*
X232060Y691500D01*
X231780Y691531D01*
X237719D01*
X237440Y691500D01*
D02*
G37*
G36*
X193015Y682644D02*
X193060Y682129D01*
X193135Y681674D01*
X193240Y681280D01*
X193375Y680947D01*
X193540Y680674D01*
X193735Y680462D01*
X193960Y680310D01*
X194215Y680219D01*
X194500Y680189D01*
X188500D01*
X188785Y680219D01*
X189040Y680310D01*
X189265Y680462D01*
X189460Y680674D01*
X189625Y680947D01*
X189760Y681280D01*
X189865Y681674D01*
X189940Y682129D01*
X189985Y682644D01*
X190000Y683220D01*
X193000D01*
X193015Y682644D01*
D02*
G37*
G36*
X228658Y706665D02*
X229745Y706349D01*
X229750Y706330D01*
Y699770D01*
X229750Y699500D01*
Y698500D01*
X229750Y698230D01*
Y691574D01*
X229741Y691531D01*
X229750Y691487D01*
Y689500D01*
X231143D01*
X231166Y689358D01*
X231181Y689183D01*
Y674088D01*
X217080D01*
X216665Y674125D01*
X216085Y674221D01*
X215650Y674337D01*
X215366Y674453D01*
X215250Y674523D01*
Y682250D01*
X209785D01*
X209447Y683520D01*
X210965Y684535D01*
X212181Y686354D01*
X212608Y688500D01*
X212181Y690646D01*
X210965Y692465D01*
X210695Y692646D01*
X210683Y692658D01*
X210520Y692849D01*
X210385Y693029D01*
X210278Y693195D01*
X210195Y693347D01*
X210134Y693485D01*
X210091Y693612D01*
X210063Y693730D01*
X210059Y693758D01*
Y695250D01*
X212000D01*
Y703980D01*
X212000Y704250D01*
Y705250D01*
X212000Y705421D01*
X212239Y706691D01*
X228506D01*
X228658Y706665D01*
D02*
G37*
G36*
X197002Y672000D02*
X194500Y669498D01*
X194465Y669606D01*
X194359Y669776D01*
X194184Y670008D01*
X193622Y670661D01*
X190990Y673389D01*
X193111Y675510D01*
X197002Y672000D01*
D02*
G37*
G36*
X243731Y671987D02*
X245980Y671795D01*
X246530Y671680D01*
X246980Y671539D01*
X247330Y671373D01*
X247581Y671180D01*
X247731Y670963D01*
X247780Y670720D01*
Y664500D01*
X247731Y664975D01*
X247581Y665400D01*
X247330Y665775D01*
X246980Y666100D01*
X246530Y666375D01*
X245980Y666600D01*
X245331Y666775D01*
X244580Y666900D01*
X243731Y666975D01*
X242780Y667000D01*
Y672000D01*
X243731Y671987D01*
D02*
G37*
G36*
X213239Y674025D02*
X213390Y673600D01*
X213642Y673225D01*
X213994Y672900D01*
X214447Y672625D01*
X215000Y672400D01*
X215654Y672225D01*
X216409Y672100D01*
X217264Y672025D01*
X218220Y672000D01*
Y667000D01*
X217264Y666975D01*
X216409Y666900D01*
X215654Y666775D01*
X215000Y666600D01*
X214447Y666375D01*
X213994Y666100D01*
X213642Y665775D01*
X213390Y665400D01*
X213239Y664975D01*
X213189Y664500D01*
Y674500D01*
X213239Y674025D01*
D02*
G37*
G36*
X306678Y660855D02*
X306027Y661072D01*
X304585Y661439D01*
X303794Y661588D01*
X302072Y661817D01*
X300162Y661954D01*
X298065Y662000D01*
X297304Y667000D01*
X298036Y667031D01*
X298712Y667126D01*
X299331Y667284D01*
X299895Y667504D01*
X300402Y667788D01*
X300853Y668135D01*
X301248Y668544D01*
X301587Y669017D01*
X301870Y669553D01*
X302096Y670151D01*
X306678Y660855D01*
D02*
G37*
G36*
X263739Y667275D02*
X263890Y666850D01*
X264142Y666475D01*
X264494Y666150D01*
X264947Y665875D01*
X265500Y665650D01*
X266154Y665475D01*
X266908Y665350D01*
X267764Y665275D01*
X268720Y665250D01*
Y660896D01*
X275250Y665250D01*
X282750Y660250D01*
X281800Y660200D01*
X280950Y660050D01*
X280200Y659800D01*
X279550Y659450D01*
X279000Y659000D01*
X278550Y658450D01*
X278200Y657800D01*
X277950Y657050D01*
X277800Y656200D01*
X277750Y655250D01*
X272750D01*
X272700Y656200D01*
X272550Y657050D01*
X272300Y657800D01*
X271950Y658450D01*
X271500Y659000D01*
X270950Y659450D01*
X270300Y659800D01*
X269550Y660050D01*
X268700Y660200D01*
X268072Y660233D01*
X267764Y660225D01*
X266908Y660150D01*
X266154Y660025D01*
X265500Y659850D01*
X264947Y659625D01*
X264494Y659350D01*
X264142Y659025D01*
X263890Y658650D01*
X263739Y658225D01*
X263689Y657750D01*
Y667750D01*
X263739Y667275D01*
D02*
G37*
G36*
X303158Y638125D02*
X302670Y638766D01*
X302176Y639340D01*
X301676Y639846D01*
X301169Y640285D01*
X300657Y640656D01*
X300138Y640960D01*
X299613Y641196D01*
X299081Y641365D01*
X298544Y641466D01*
X298000Y641500D01*
Y643500D01*
X298544Y643534D01*
X299081Y643635D01*
X299613Y643804D01*
X300138Y644040D01*
X300657Y644344D01*
X301169Y644715D01*
X301676Y645154D01*
X302176Y645660D01*
X302670Y646234D01*
X303158Y646875D01*
Y638125D01*
D02*
G37*
G36*
X190319Y590657D02*
X190401Y590551D01*
X190504Y590458D01*
X190630Y590377D01*
X190778Y590309D01*
X190947Y590253D01*
X191139Y590210D01*
X191353Y590179D01*
X191588Y590160D01*
X191846Y590154D01*
Y588154D01*
X191548Y588148D01*
X191024Y588105D01*
X190798Y588067D01*
X190595Y588018D01*
X190417Y587958D01*
X190263Y587887D01*
X190133Y587805D01*
X190027Y587712D01*
X189945Y587609D01*
X190260Y590774D01*
X190319Y590657D01*
D02*
G37*
G36*
X238531Y586281D02*
X239293D01*
X239231Y587483D01*
X242769D01*
X242718Y587383D01*
X242672Y587188D01*
X242632Y586899D01*
X242585Y586281D01*
X243470D01*
X243285Y586250D01*
X243120Y586161D01*
X242975Y586011D01*
X242849Y585801D01*
X242742Y585531D01*
X242655Y585201D01*
X242587Y584810D01*
X242539Y584361D01*
X242536Y584286D01*
X242500Y582250D01*
X239500D01*
X239350Y585172D01*
X239345Y585201D01*
X239258Y585531D01*
X239151Y585801D01*
X239025Y586011D01*
X238880Y586161D01*
X238715Y586250D01*
X238531Y586281D01*
X238480Y586370D01*
X238330Y586450D01*
X238081Y586520D01*
X237731Y586581D01*
X237281Y586633D01*
X235331Y586731D01*
X233531Y586750D01*
Y591750D01*
X234480Y591755D01*
X238081Y591980D01*
X238330Y592051D01*
X238480Y592130D01*
X238531Y592220D01*
Y586281D01*
D02*
G37*
G36*
X201503Y579169D02*
X201574Y578031D01*
X201606Y577839D01*
X201644Y577685D01*
X201688Y577568D01*
X201739Y577487D01*
X201794Y577444D01*
X199205D01*
X199261Y577487D01*
X199312Y577568D01*
X199356Y577685D01*
X199394Y577839D01*
X199426Y578031D01*
X199473Y578525D01*
X199497Y579169D01*
X199500Y579546D01*
X201500D01*
X201503Y579169D01*
D02*
G37*
G36*
X231861Y577024D02*
X231950Y576797D01*
X232096Y576597D01*
X232300Y576423D01*
X232563Y576276D01*
X232883Y576156D01*
X233261Y576063D01*
X233697Y575996D01*
X234191Y575956D01*
X234743Y575943D01*
Y572943D01*
X234195Y572929D01*
X233704Y572889D01*
X233272Y572821D01*
X232897Y572727D01*
X232581Y572606D01*
X232322Y572458D01*
X232121Y572283D01*
X231978Y572081D01*
X231893Y571852D01*
X231865Y571596D01*
X231831Y577278D01*
X231861Y577024D01*
D02*
G37*
G36*
X256987Y532239D02*
X257068Y532188D01*
X257185Y532144D01*
X257339Y532106D01*
X257531Y532074D01*
X258025Y532026D01*
X258668Y532003D01*
X259046Y532000D01*
Y530000D01*
X258668Y529997D01*
X257531Y529926D01*
X257339Y529894D01*
X257185Y529856D01*
X257068Y529812D01*
X256987Y529761D01*
X256945Y529705D01*
Y532295D01*
X256987Y532239D01*
D02*
G37*
G36*
X271260Y520084D02*
X271290Y519739D01*
X271340Y519434D01*
X271410Y519170D01*
X271500Y518947D01*
X271610Y518764D01*
X271740Y518622D01*
X271890Y518520D01*
X272060Y518459D01*
X272250Y518439D01*
X268250D01*
X268440Y518459D01*
X268610Y518520D01*
X268760Y518622D01*
X268890Y518764D01*
X269000Y518947D01*
X269090Y519170D01*
X269160Y519434D01*
X269210Y519739D01*
X269240Y520084D01*
X269250Y520470D01*
X271250D01*
X271260Y520084D01*
D02*
G37*
G36*
X256987Y477239D02*
X257068Y477188D01*
X257185Y477144D01*
X257339Y477106D01*
X257531Y477074D01*
X258025Y477026D01*
X258668Y477003D01*
X259046Y477000D01*
Y475000D01*
X258668Y474997D01*
X257531Y474926D01*
X257339Y474894D01*
X257185Y474856D01*
X257068Y474812D01*
X256987Y474761D01*
X256945Y474706D01*
Y477295D01*
X256987Y477239D01*
D02*
G37*
G36*
X93904Y804507D02*
X93504Y803943D01*
X93152Y803311D01*
X92846Y802610D01*
X92587Y801841D01*
X92376Y801003D01*
X92212Y800097D01*
X92094Y799122D01*
X92023Y798079D01*
X92000Y796967D01*
X82000D01*
X81976Y798079D01*
X81789Y800097D01*
X81624Y801003D01*
X81412Y801841D01*
X81154Y802610D01*
X80849Y803311D01*
X80496Y803943D01*
X80097Y804507D01*
X79650Y805002D01*
X94350D01*
X93904Y804507D01*
D02*
G37*
G36*
X151541Y639806D02*
X151755Y639659D01*
X152112Y639529D01*
X152612Y639417D01*
X153254Y639322D01*
X154967Y639184D01*
X158607Y639107D01*
Y629107D01*
X157250Y629085D01*
X154967Y628914D01*
X154039Y628765D01*
X153254Y628572D01*
X152612Y628337D01*
X152112Y628059D01*
X151755Y627739D01*
X151541Y627376D01*
X151469Y626969D01*
Y639969D01*
X151541Y639806D01*
D02*
G37*
G36*
X97950Y670159D02*
X97100Y669857D01*
X96350Y669354D01*
X95700Y668651D01*
X95150Y667748D01*
X94700Y666645D01*
X94350Y665342D01*
X94100Y663838D01*
X93950Y662134D01*
X93900Y660230D01*
X83900D01*
X83496Y670230D01*
X98900Y670261D01*
X97950Y670159D01*
D02*
G37*
G36*
X93925Y640860D02*
X94302Y636359D01*
X94527Y635260D01*
X94803Y634360D01*
X95130Y633660D01*
X95506Y633159D01*
X95933Y632859D01*
X96410Y632760D01*
X81390D01*
X81867Y632859D01*
X82294Y633159D01*
X82670Y633660D01*
X82997Y634360D01*
X83273Y635260D01*
X83498Y636359D01*
X83674Y637659D01*
X83875Y640860D01*
X83900Y642759D01*
X93900D01*
X93925Y640860D01*
D02*
G37*
G36*
X302246Y589017D02*
X302102Y589337D01*
X301928Y589623D01*
X301724Y589875D01*
X301489Y590094D01*
X301225Y590279D01*
X300930Y590431D01*
X300605Y590549D01*
X300250Y590633D01*
X299865Y590683D01*
X299450Y590700D01*
Y592700D01*
X299865Y592717D01*
X300250Y592767D01*
X300605Y592851D01*
X300930Y592969D01*
X301225Y593121D01*
X301489Y593306D01*
X301724Y593525D01*
X301928Y593777D01*
X302102Y594063D01*
X302246Y594383D01*
Y589017D01*
D02*
G37*
G36*
X111959Y549060D02*
X112020Y548890D01*
X112122Y548740D01*
X112264Y548610D01*
X112447Y548500D01*
X112670Y548410D01*
X112934Y548340D01*
X113238Y548290D01*
X113584Y548260D01*
X113969Y548250D01*
Y546250D01*
X113584Y546240D01*
X113238Y546210D01*
X112934Y546160D01*
X112670Y546090D01*
X112447Y546000D01*
X112264Y545890D01*
X112122Y545760D01*
X112020Y545610D01*
X111959Y545440D01*
X111939Y545250D01*
Y549250D01*
X111959Y549060D01*
D02*
G37*
G36*
X111969Y544281D02*
X111880Y544260D01*
X111800Y544201D01*
X111730Y544100D01*
X111669Y543960D01*
X111617Y543781D01*
X111575Y543560D01*
X111542Y543301D01*
X111505Y542660D01*
X111500Y542281D01*
X109500D01*
X109490Y542665D01*
X109460Y543009D01*
X109410Y543312D01*
X109340Y543576D01*
X109250Y543799D01*
X109140Y543982D01*
X109010Y544124D01*
X108860Y544227D01*
X108690Y544289D01*
X108500Y544311D01*
X111969Y544281D01*
D02*
G37*
G36*
X129056Y539705D02*
X129012Y539761D01*
X128932Y539812D01*
X128815Y539856D01*
X128661Y539894D01*
X128469Y539926D01*
X127975Y539973D01*
X127331Y539997D01*
X126954Y540000D01*
Y542000D01*
X127331Y542003D01*
X128469Y542074D01*
X128661Y542106D01*
X128815Y542144D01*
X128932Y542188D01*
X129012Y542239D01*
X129056Y542295D01*
Y539705D01*
D02*
G37*
G36*
X112828Y534518D02*
X112803Y534583D01*
X112758Y534642D01*
X112692Y534694D01*
X112607Y534739D01*
X112501Y534777D01*
X112376Y534809D01*
X112230Y534833D01*
X112064Y534850D01*
X111672Y534864D01*
Y536864D01*
X111950Y536866D01*
X112806Y536928D01*
X112955Y536956D01*
X113077Y536989D01*
X113175Y537028D01*
X113246Y537071D01*
X113291Y537119D01*
X112828Y534518D01*
D02*
G37*
G36*
X129056Y524706D02*
X129012Y524761D01*
X128932Y524812D01*
X128815Y524856D01*
X128661Y524894D01*
X128469Y524926D01*
X127975Y524973D01*
X127331Y524997D01*
X126954Y525000D01*
Y527000D01*
X127331Y527003D01*
X128469Y527074D01*
X128661Y527106D01*
X128815Y527144D01*
X128932Y527188D01*
X129012Y527239D01*
X129056Y527295D01*
Y524706D01*
D02*
G37*
G36*
Y519706D02*
X129042Y519685D01*
X128985Y519668D01*
X128885Y519652D01*
X128740Y519638D01*
X128044Y519609D01*
X126954Y519600D01*
Y521600D01*
X127302Y521607D01*
X127905Y521662D01*
X128161Y521711D01*
X128386Y521774D01*
X128581Y521850D01*
X128745Y521940D01*
X128879Y522044D01*
X128983Y522163D01*
X129056Y522295D01*
Y519706D01*
D02*
G37*
G36*
Y499706D02*
X129012Y499761D01*
X128932Y499812D01*
X128815Y499856D01*
X128661Y499894D01*
X128469Y499926D01*
X127975Y499973D01*
X127331Y499997D01*
X126954Y500000D01*
Y502000D01*
X127331Y502003D01*
X128469Y502074D01*
X128661Y502106D01*
X128815Y502144D01*
X128932Y502188D01*
X129012Y502239D01*
X129056Y502295D01*
Y499706D01*
D02*
G37*
G36*
X112959Y491560D02*
X113020Y491390D01*
X113122Y491240D01*
X113264Y491110D01*
X113447Y491000D01*
X113670Y490910D01*
X113934Y490840D01*
X114239Y490790D01*
X114584Y490760D01*
X114970Y490750D01*
Y488750D01*
X114584Y488740D01*
X114239Y488710D01*
X113934Y488660D01*
X113670Y488590D01*
X113447Y488500D01*
X113264Y488390D01*
X113122Y488260D01*
X113020Y488110D01*
X112959Y487940D01*
X112939Y487750D01*
Y491750D01*
X112959Y491560D01*
D02*
G37*
G36*
X129056Y479705D02*
X129012Y479761D01*
X128932Y479812D01*
X128815Y479856D01*
X128661Y479894D01*
X128469Y479926D01*
X127975Y479973D01*
X127331Y479997D01*
X126954Y480000D01*
Y482000D01*
X127331Y482003D01*
X128469Y482074D01*
X128661Y482106D01*
X128815Y482144D01*
X128932Y482188D01*
X129012Y482239D01*
X129056Y482295D01*
Y479705D01*
D02*
G37*
G36*
X28645Y483381D02*
X28322Y482997D01*
X28034Y482529D01*
X27781Y481976D01*
X27563Y481338D01*
X27381Y480614D01*
X27234Y479806D01*
X27123Y478913D01*
X27005Y476873D01*
X27000Y475725D01*
X19575Y483150D01*
X20723Y483155D01*
X22763Y483273D01*
X23656Y483384D01*
X24464Y483531D01*
X25187Y483713D01*
X25826Y483931D01*
X26379Y484184D01*
X26847Y484472D01*
X27231Y484795D01*
X28645Y483381D01*
D02*
G37*
G36*
X129056Y474706D02*
X129032Y474714D01*
X128969Y474721D01*
X128866Y474728D01*
X127037Y474750D01*
X126954Y476750D01*
X127313Y476755D01*
X127931Y476799D01*
X128191Y476837D01*
X128417Y476886D01*
X128611Y476946D01*
X128772Y477017D01*
X128899Y477099D01*
X128994Y477191D01*
X129056Y477295D01*
Y474706D01*
D02*
G37*
G36*
X113209Y477560D02*
X113270Y477390D01*
X113372Y477240D01*
X113514Y477110D01*
X113697Y477000D01*
X113920Y476910D01*
X114184Y476840D01*
X114488Y476790D01*
X114834Y476760D01*
X115219Y476750D01*
Y474750D01*
X114834Y474740D01*
X114488Y474710D01*
X114184Y474660D01*
X113920Y474590D01*
X113697Y474500D01*
X113514Y474390D01*
X113372Y474260D01*
X113270Y474110D01*
X113209Y473940D01*
X113189Y473750D01*
Y477750D01*
X113209Y477560D01*
D02*
G37*
G36*
X112560Y472791D02*
X112390Y472730D01*
X112240Y472628D01*
X112110Y472486D01*
X112000Y472303D01*
X111910Y472080D01*
X111840Y471816D01*
X111790Y471511D01*
X111765Y471220D01*
X111770Y471120D01*
X111830Y470780D01*
X111930Y470480D01*
X112070Y470220D01*
X112250Y470000D01*
X112470Y469820D01*
X112730Y469680D01*
X113030Y469580D01*
X113370Y469520D01*
X113750Y469500D01*
X113164Y467500D01*
X112770Y467486D01*
X112388Y467443D01*
X112017Y467373D01*
X111658Y467274D01*
X111311Y467146D01*
X110975Y466991D01*
X110651Y466807D01*
X110339Y466595D01*
X110039Y466354D01*
X109750Y466086D01*
X108336Y467500D01*
X108604Y467789D01*
X108845Y468089D01*
X109057Y468401D01*
X109241Y468725D01*
X109396Y469061D01*
X109524Y469408D01*
X109623Y469767D01*
X109693Y470138D01*
X109736Y470520D01*
X109748Y470858D01*
X109740Y471166D01*
X109710Y471511D01*
X109660Y471816D01*
X109590Y472080D01*
X109500Y472303D01*
X109390Y472486D01*
X109260Y472628D01*
X109110Y472730D01*
X108940Y472791D01*
X108750Y472811D01*
X112750D01*
X112560Y472791D01*
D02*
G37*
G36*
X221503Y465769D02*
X221574Y464631D01*
X221606Y464439D01*
X221644Y464285D01*
X221688Y464168D01*
X221739Y464087D01*
X221794Y464044D01*
X219205D01*
X219261Y464087D01*
X219312Y464168D01*
X219356Y464285D01*
X219394Y464439D01*
X219426Y464631D01*
X219473Y465125D01*
X219497Y465769D01*
X219500Y466146D01*
X221500D01*
X221503Y465769D01*
D02*
G37*
G36*
X106587Y462975D02*
X106613Y462659D01*
X106656Y462380D01*
X106716Y462139D01*
X106793Y461934D01*
X106888Y461767D01*
X106999Y461637D01*
X107128Y461544D01*
X107274Y461488D01*
X107437Y461469D01*
X103720D01*
X103883Y461488D01*
X104029Y461544D01*
X104158Y461637D01*
X104269Y461767D01*
X104364Y461934D01*
X104441Y462139D01*
X104501Y462380D01*
X104544Y462659D01*
X104570Y462975D01*
X104578Y463328D01*
X106578D01*
X106587Y462975D01*
D02*
G37*
G36*
X83260Y462084D02*
X83290Y461739D01*
X83340Y461434D01*
X83410Y461170D01*
X83500Y460947D01*
X83610Y460764D01*
X83740Y460622D01*
X83890Y460520D01*
X84060Y460459D01*
X84250Y460439D01*
X80250D01*
X80440Y460459D01*
X80610Y460520D01*
X80760Y460622D01*
X80890Y460764D01*
X81000Y460947D01*
X81090Y461170D01*
X81160Y461434D01*
X81210Y461739D01*
X81240Y462084D01*
X81250Y462469D01*
X83250D01*
X83260Y462084D01*
D02*
G37*
G36*
X117959Y460310D02*
X118020Y460140D01*
X118122Y459990D01*
X118264Y459860D01*
X118447Y459750D01*
X118670Y459660D01*
X118934Y459590D01*
X119239Y459540D01*
X119584Y459510D01*
X119970Y459500D01*
Y457500D01*
X119584Y457490D01*
X119239Y457460D01*
X118934Y457410D01*
X118670Y457340D01*
X118447Y457250D01*
X118264Y457140D01*
X118122Y457010D01*
X118020Y456860D01*
X117959Y456690D01*
X117939Y456500D01*
Y460500D01*
X117959Y460310D01*
D02*
G37*
G36*
X154135Y454800D02*
X154114Y454990D01*
X154053Y455160D01*
X153952Y455310D01*
X153810Y455440D01*
X153627Y455550D01*
X153404Y455640D01*
X153140Y455710D01*
X152835Y455760D01*
X152490Y455790D01*
X152104Y455800D01*
Y457800D01*
X152490Y457810D01*
X152835Y457840D01*
X153140Y457890D01*
X153404Y457960D01*
X153627Y458050D01*
X153810Y458160D01*
X153952Y458290D01*
X154053Y458440D01*
X154114Y458610D01*
X154135Y458800D01*
Y454800D01*
D02*
G37*
G36*
X134270Y458940D02*
X134569Y458701D01*
X134880Y458489D01*
X135203Y458307D01*
X135538Y458152D01*
X135885Y458025D01*
X136243Y457927D01*
X136614Y457856D01*
X136996Y457814D01*
X137390Y457800D01*
Y455800D01*
X136996Y455786D01*
X136613Y455743D01*
X136243Y455673D01*
X135884Y455574D01*
X135536Y455447D01*
X135201Y455291D01*
X134877Y455107D01*
X134565Y454895D01*
X134264Y454655D01*
X133976Y454386D01*
X132147Y455386D01*
X132406Y455664D01*
X132617Y455935D01*
X132779Y456196D01*
X132893Y456450D01*
X132960Y456695D01*
X132978Y456931D01*
X132948Y457159D01*
X132869Y457379D01*
X132743Y457590D01*
X132569Y457793D01*
X133983Y459207D01*
X134270Y458940D01*
D02*
G37*
G36*
X28645Y457981D02*
X28322Y457597D01*
X28034Y457129D01*
X27781Y456576D01*
X27563Y455938D01*
X27381Y455214D01*
X27234Y454406D01*
X27123Y453513D01*
X27005Y451473D01*
X27000Y450325D01*
X19575Y457750D01*
X20723Y457755D01*
X22763Y457873D01*
X23656Y457984D01*
X24464Y458131D01*
X25187Y458313D01*
X25826Y458531D01*
X26379Y458784D01*
X26847Y459072D01*
X27231Y459395D01*
X28645Y457981D01*
D02*
G37*
G36*
X231893Y455148D02*
X231978Y454919D01*
X232121Y454717D01*
X232322Y454542D01*
X232581Y454394D01*
X232897Y454273D01*
X233272Y454179D01*
X233704Y454111D01*
X234195Y454071D01*
X234743Y454057D01*
Y451057D01*
X234191Y451044D01*
X233697Y451004D01*
X233261Y450937D01*
X232883Y450844D01*
X232563Y450724D01*
X232300Y450577D01*
X232096Y450403D01*
X231950Y450203D01*
X231861Y449976D01*
X231831Y449722D01*
X231865Y455404D01*
X231893Y455148D01*
D02*
G37*
G36*
X276000Y453285D02*
X276089Y453120D01*
X276239Y452975D01*
X276450Y452849D01*
X276719Y452742D01*
X277050Y452655D01*
X277439Y452587D01*
X277889Y452539D01*
X278969Y452500D01*
Y449500D01*
X278400Y449490D01*
X277439Y449413D01*
X277050Y449345D01*
X276719Y449258D01*
X276450Y449151D01*
X276239Y449025D01*
X276089Y448880D01*
X276000Y448715D01*
X275970Y448531D01*
Y453470D01*
X276000Y453285D01*
D02*
G37*
G36*
X226739Y449512D02*
X226688Y449432D01*
X226644Y449315D01*
X226606Y449161D01*
X226574Y448969D01*
X226527Y448475D01*
X226503Y447831D01*
X226500Y447454D01*
X224500D01*
X224497Y447831D01*
X224426Y448969D01*
X224394Y449161D01*
X224356Y449315D01*
X224312Y449432D01*
X224261Y449512D01*
X224205Y449556D01*
X226794D01*
X226739Y449512D01*
D02*
G37*
G36*
X201739D02*
X201688Y449432D01*
X201644Y449315D01*
X201606Y449161D01*
X201574Y448969D01*
X201527Y448475D01*
X201503Y447831D01*
X201500Y447454D01*
X199500D01*
X199497Y447831D01*
X199426Y448969D01*
X199394Y449161D01*
X199356Y449315D01*
X199312Y449432D01*
X199261Y449512D01*
X199205Y449556D01*
X201794D01*
X201739Y449512D01*
D02*
G37*
G36*
X284682Y450960D02*
X285833Y449976D01*
X286333Y449622D01*
X286783Y449361D01*
X287182Y449192D01*
X287530Y449115D01*
X287829Y449131D01*
X288076Y449239D01*
X288273Y449439D01*
X284811Y444477D01*
X284933Y444752D01*
X284957Y445083D01*
X284883Y445471D01*
X284709Y445916D01*
X284438Y446418D01*
X284067Y446977D01*
X283598Y447593D01*
X282364Y448994D01*
X281598Y449780D01*
X284030Y451591D01*
X284682Y450960D01*
D02*
G37*
G36*
X84210Y445541D02*
X84040Y445480D01*
X83890Y445378D01*
X83760Y445236D01*
X83650Y445053D01*
X83560Y444830D01*
X83490Y444566D01*
X83440Y444261D01*
X83410Y443916D01*
X83400Y443531D01*
X81400D01*
X81390Y443916D01*
X81360Y444261D01*
X81310Y444566D01*
X81240Y444830D01*
X81150Y445053D01*
X81040Y445236D01*
X80910Y445378D01*
X80760Y445480D01*
X80590Y445541D01*
X80400Y445561D01*
X84400D01*
X84210Y445541D01*
D02*
G37*
G36*
X246015Y441650D02*
X246059Y441139D01*
X246132Y440690D01*
X246235Y440299D01*
X246367Y439969D01*
X246529Y439700D01*
X246720Y439490D01*
X246940Y439339D01*
X247190Y439249D01*
X247470Y439220D01*
X241530D01*
X241810Y439249D01*
X242059Y439339D01*
X242280Y439490D01*
X242471Y439700D01*
X242633Y439969D01*
X242765Y440299D01*
X242868Y440690D01*
X242941Y441139D01*
X242985Y441650D01*
X243000Y442220D01*
X246000D01*
X246015Y441650D01*
D02*
G37*
G36*
X125560Y439279D02*
X125590Y438892D01*
X125639Y438551D01*
X125709Y438256D01*
X125798Y438006D01*
X125907Y437801D01*
X126036Y437642D01*
X126184Y437528D01*
X126353Y437460D01*
X126541Y437438D01*
X122559D01*
X122747Y437460D01*
X122916Y437528D01*
X123064Y437642D01*
X123193Y437801D01*
X123302Y438006D01*
X123391Y438256D01*
X123461Y438551D01*
X123510Y438892D01*
X123540Y439279D01*
X123550Y439711D01*
X125550D01*
X125560Y439279D01*
D02*
G37*
G36*
X226848Y440580D02*
X228195Y439441D01*
X228567Y439193D01*
X228902Y439011D01*
X229198Y438894D01*
X229457Y438843D01*
X229677Y438858D01*
X229859Y438939D01*
X226561Y436641D01*
X226693Y436772D01*
X226764Y436936D01*
X226773Y437134D01*
X226721Y437366D01*
X226607Y437632D01*
X226432Y437932D01*
X226196Y438266D01*
X225897Y438633D01*
X225116Y439469D01*
X226323Y441091D01*
X226848Y440580D01*
D02*
G37*
G36*
X275690Y438501D02*
X275441Y438410D01*
X275220Y438260D01*
X275029Y438050D01*
X274867Y437780D01*
X274735Y437450D01*
X274632Y437061D01*
X274559Y436610D01*
X274515Y436101D01*
X274500Y435531D01*
X271500D01*
X271485Y436101D01*
X271441Y436610D01*
X271368Y437061D01*
X271265Y437450D01*
X271133Y437780D01*
X270971Y438050D01*
X270780Y438260D01*
X270560Y438410D01*
X270310Y438501D01*
X270030Y438531D01*
X275970D01*
X275690Y438501D01*
D02*
G37*
G36*
X256250Y434300D02*
X256055Y434481D01*
X255842Y434642D01*
X255611Y434785D01*
X255361Y434908D01*
X255094Y435013D01*
X254809Y435098D01*
X254506Y435164D01*
X254184Y435212D01*
X253845Y435241D01*
X253488Y435250D01*
Y438250D01*
X253845Y438260D01*
X254184Y438288D01*
X254506Y438335D01*
X254809Y438402D01*
X255094Y438488D01*
X255361Y438592D01*
X255611Y438716D01*
X255842Y438858D01*
X256055Y439020D01*
X256250Y439200D01*
Y434300D01*
D02*
G37*
G36*
X247500Y439035D02*
X247589Y438871D01*
X247740Y438725D01*
X247950Y438599D01*
X248220Y438492D01*
X248549Y438405D01*
X248939Y438337D01*
X249389Y438289D01*
X250469Y438250D01*
Y435250D01*
X249900Y435240D01*
X248939Y435163D01*
X248549Y435095D01*
X248220Y435008D01*
X247950Y434901D01*
X247740Y434775D01*
X247589Y434630D01*
X247500Y434465D01*
X247470Y434281D01*
Y439220D01*
X247500Y439035D01*
D02*
G37*
G36*
X310715Y436781D02*
X310460Y436690D01*
X310235Y436538D01*
X310040Y436326D01*
X309875Y436053D01*
X309740Y435720D01*
X309635Y435326D01*
X309560Y434871D01*
X309515Y434356D01*
X309500Y433781D01*
X306500D01*
X306485Y434356D01*
X306440Y434871D01*
X306365Y435326D01*
X306260Y435720D01*
X306125Y436053D01*
X305960Y436326D01*
X305765Y436538D01*
X305540Y436690D01*
X305285Y436781D01*
X305000Y436811D01*
X311000D01*
X310715Y436781D01*
D02*
G37*
G36*
X187010Y433655D02*
X187038Y433316D01*
X187085Y432994D01*
X187152Y432691D01*
X187237Y432406D01*
X187342Y432138D01*
X187465Y431889D01*
X187608Y431658D01*
X187770Y431445D01*
X187950Y431250D01*
X183050Y431250D01*
X183230Y431445D01*
X183392Y431658D01*
X183535Y431889D01*
X183658Y432138D01*
X183762Y432406D01*
X183848Y432691D01*
X183915Y432994D01*
X183962Y433316D01*
X183990Y433655D01*
X184000Y434012D01*
X187000Y434012D01*
X187010Y433655D01*
D02*
G37*
G36*
X274500Y432881D02*
X274509Y432524D01*
X274535Y432184D01*
X274578Y431861D01*
X274640Y431554D01*
X274718Y431265D01*
X274814Y430992D01*
X274927Y430736D01*
X275058Y430496D01*
X275207Y430274D01*
X275372Y430068D01*
X270485Y430418D01*
X270678Y430600D01*
X270850Y430802D01*
X271003Y431023D01*
X271134Y431264D01*
X271246Y431524D01*
X271338Y431804D01*
X271409Y432104D01*
X271459Y432423D01*
X271490Y432761D01*
X271500Y433119D01*
X274500Y432881D01*
D02*
G37*
G36*
X309510Y432399D02*
X309587Y431440D01*
X309655Y431049D01*
X309742Y430719D01*
X309849Y430449D01*
X309975Y430239D01*
X310121Y430089D01*
X310285Y430000D01*
X310469Y429969D01*
X305530D01*
X305715Y430000D01*
X305879Y430089D01*
X306025Y430239D01*
X306151Y430449D01*
X306258Y430719D01*
X306345Y431049D01*
X306413Y431440D01*
X306461Y431889D01*
X306500Y432970D01*
X309500D01*
X309510Y432399D01*
D02*
G37*
G36*
X83410Y431484D02*
X83440Y431138D01*
X83490Y430834D01*
X83560Y430570D01*
X83650Y430347D01*
X83760Y430164D01*
X83890Y430022D01*
X84040Y429920D01*
X84210Y429859D01*
X84400Y429839D01*
X80400D01*
X80590Y429859D01*
X80760Y429920D01*
X80910Y430022D01*
X81040Y430164D01*
X81150Y430347D01*
X81240Y430570D01*
X81310Y430834D01*
X81360Y431138D01*
X81390Y431484D01*
X81400Y431870D01*
X83400D01*
X83410Y431484D01*
D02*
G37*
G36*
X201500Y434704D02*
X201511Y434335D01*
X201542Y433965D01*
X201596Y433593D01*
X201670Y433219D01*
X201765Y432844D01*
X201847Y432604D01*
X201961Y432625D01*
X202253Y432713D01*
X202531Y432831D01*
X202795Y432982D01*
X203045Y433163D01*
X203281Y433377D01*
X204367Y431634D01*
X204173Y431424D01*
X203990Y431191D01*
X203818Y430936D01*
X203657Y430658D01*
X203507Y430359D01*
X203369Y430037D01*
X203125Y429327D01*
X203019Y428939D01*
X202925Y428529D01*
X201106Y431379D01*
X197866Y432345D01*
X198177Y432526D01*
X198454Y432721D01*
X198699Y432933D01*
X198912Y433160D01*
X199092Y433403D01*
X199239Y433661D01*
X199353Y433935D01*
X199435Y434224D01*
X199484Y434529D01*
X199500Y434850D01*
X201500Y434704D01*
D02*
G37*
G36*
X295530Y424030D02*
X295501Y424310D01*
X295410Y424560D01*
X295261Y424780D01*
X295051Y424971D01*
X294781Y425133D01*
X294450Y425265D01*
X294060Y425368D01*
X293610Y425441D01*
X293100Y425485D01*
X292530Y425500D01*
Y428500D01*
X293100Y428515D01*
X293610Y428559D01*
X294060Y428632D01*
X294450Y428735D01*
X294781Y428867D01*
X295051Y429029D01*
X295261Y429220D01*
X295410Y429440D01*
X295501Y429690D01*
X295530Y429969D01*
Y424030D01*
D02*
G37*
G36*
X146209Y590810D02*
X146270Y590640D01*
X146372Y590490D01*
X146514Y590360D01*
X146697Y590250D01*
X146920Y590160D01*
X147184Y590090D01*
X147489Y590040D01*
X147834Y590010D01*
X148219Y590000D01*
Y588000D01*
X147834Y587990D01*
X147489Y587960D01*
X147184Y587910D01*
X146920Y587840D01*
X146697Y587750D01*
X146514Y587640D01*
X146372Y587510D01*
X146270Y587360D01*
X146209Y587190D01*
X146189Y587000D01*
Y591000D01*
X146209Y590810D01*
D02*
G37*
G36*
X145560Y586041D02*
X145390Y585980D01*
X145240Y585878D01*
X145110Y585736D01*
X145000Y585553D01*
X144910Y585330D01*
X144840Y585066D01*
X144790Y584761D01*
X144760Y584416D01*
X144750Y584030D01*
X142750D01*
X142740Y584416D01*
X142710Y584761D01*
X142660Y585066D01*
X142590Y585330D01*
X142500Y585553D01*
X142390Y585736D01*
X142260Y585878D01*
X142110Y585980D01*
X141940Y586041D01*
X141750Y586061D01*
X145750D01*
X145560Y586041D01*
D02*
G37*
G36*
X144750Y582869D02*
X144764Y582569D01*
X144805Y582267D01*
X144874Y581965D01*
X144970Y581662D01*
X145093Y581357D01*
X145244Y581051D01*
X145422Y580745D01*
X145628Y580437D01*
X145862Y580128D01*
X146122Y579818D01*
X141235Y580168D01*
X141523Y580428D01*
X141780Y580694D01*
X142008Y580965D01*
X142205Y581242D01*
X142371Y581524D01*
X142508Y581812D01*
X142614Y582105D01*
X142689Y582404D01*
X142735Y582709D01*
X142750Y583019D01*
X144750Y582869D01*
D02*
G37*
G36*
X171503Y579169D02*
X171574Y578031D01*
X171606Y577839D01*
X171644Y577685D01*
X171688Y577568D01*
X171739Y577487D01*
X171794Y577444D01*
X169205D01*
X169261Y577487D01*
X169312Y577568D01*
X169356Y577685D01*
X169394Y577839D01*
X169426Y578031D01*
X169473Y578525D01*
X169497Y579169D01*
X169500Y579546D01*
X171500D01*
X171503Y579169D01*
D02*
G37*
G36*
X154135Y568200D02*
X154114Y568390D01*
X154053Y568560D01*
X153952Y568710D01*
X153810Y568840D01*
X153627Y568950D01*
X153404Y569040D01*
X153140Y569110D01*
X152835Y569160D01*
X152490Y569190D01*
X152104Y569200D01*
Y571200D01*
X152490Y571210D01*
X152835Y571240D01*
X153140Y571290D01*
X153404Y571360D01*
X153627Y571450D01*
X153810Y571560D01*
X153952Y571690D01*
X154053Y571840D01*
X154114Y572010D01*
X154135Y572200D01*
Y568200D01*
D02*
G37*
G36*
X28384Y559319D02*
X27985Y558907D01*
X27356Y558168D01*
X27127Y557841D01*
X26954Y557544D01*
X26838Y557276D01*
X26779Y557036D01*
X26775Y556826D01*
X26829Y556644D01*
X26939Y556491D01*
X24141Y559289D01*
X24294Y559179D01*
X24476Y559125D01*
X24686Y559128D01*
X24926Y559188D01*
X25194Y559304D01*
X25491Y559477D01*
X25818Y559706D01*
X26173Y559992D01*
X26969Y560734D01*
X28384Y559319D01*
D02*
G37*
G36*
X264781Y575780D02*
X270720D01*
X270440Y575751D01*
X270191Y575661D01*
X269970Y575510D01*
X269779Y575300D01*
X269617Y575031D01*
X269485Y574701D01*
X269382Y574310D01*
X269309Y573861D01*
X269265Y573350D01*
X269250Y572780D01*
X266250D01*
X266235Y573350D01*
X266191Y573861D01*
X266118Y574310D01*
X266015Y574701D01*
X265883Y575031D01*
X265721Y575300D01*
X265530Y575510D01*
X265310Y575661D01*
X265060Y575751D01*
X264781Y575780D01*
X264750Y575965D01*
X264660Y576129D01*
X264510Y576275D01*
X264300Y576401D01*
X264030Y576508D01*
X263701Y576595D01*
X263311Y576663D01*
X262861Y576711D01*
X261780Y576750D01*
Y579750D01*
X262351Y579760D01*
X263311Y579837D01*
X263701Y579905D01*
X264030Y579992D01*
X264300Y580099D01*
X264510Y580225D01*
X264660Y580370D01*
X264750Y580535D01*
X264781Y580719D01*
Y575780D01*
D02*
G37*
G36*
X269259Y571155D02*
X269288Y570816D01*
X269335Y570494D01*
X269402Y570191D01*
X269487Y569906D01*
X269592Y569638D01*
X269715Y569389D01*
X269858Y569158D01*
X270019Y568945D01*
X270200Y568750D01*
X265300D01*
X265480Y568945D01*
X265642Y569158D01*
X265784Y569389D01*
X265908Y569638D01*
X266012Y569906D01*
X266098Y570191D01*
X266164Y570494D01*
X266212Y570816D01*
X266241Y571155D01*
X266250Y571512D01*
X269250D01*
X269259Y571155D01*
D02*
G37*
G36*
X255458Y554919D02*
X255503Y554478D01*
X255578Y554075D01*
X255683Y553710D01*
X255818Y553381D01*
X255983Y553089D01*
X256178Y552835D01*
X256404Y552618D01*
X256659Y552438D01*
X256945Y552295D01*
X250943Y552365D01*
X251228Y552393D01*
X251483Y552481D01*
X251708Y552631D01*
X251903Y552842D01*
X252068Y553114D01*
X252203Y553448D01*
X252308Y553843D01*
X252383Y554299D01*
X252428Y554817D01*
X252443Y555396D01*
X255443D01*
X255458Y554919D01*
D02*
G37*
G36*
X135192Y553535D02*
X135480Y553290D01*
X135765Y553073D01*
X136050Y552885D01*
X136334Y552727D01*
X136616Y552597D01*
X136897Y552495D01*
X137177Y552423D01*
X137455Y552380D01*
X137733Y552365D01*
X132076D01*
X132336Y552380D01*
X132538Y552423D01*
X132683Y552495D01*
X132769Y552597D01*
X132798Y552727D01*
X132769Y552885D01*
X132683Y553073D01*
X132538Y553290D01*
X132336Y553535D01*
X132076Y553810D01*
X134904D01*
X135192Y553535D01*
D02*
G37*
G36*
X28645Y508781D02*
X28322Y508397D01*
X28034Y507929D01*
X27781Y507376D01*
X27563Y506738D01*
X27381Y506014D01*
X27234Y505206D01*
X27123Y504313D01*
X27005Y502273D01*
X27000Y501125D01*
X19575Y508550D01*
X20723Y508555D01*
X22763Y508673D01*
X23656Y508784D01*
X24464Y508931D01*
X25187Y509113D01*
X25826Y509331D01*
X26379Y509584D01*
X26847Y509872D01*
X27231Y510195D01*
X28645Y508781D01*
D02*
G37*
G36*
X304310Y558811D02*
X304140Y558750D01*
X303990Y558651D01*
X303860Y558511D01*
X303750Y558330D01*
X303660Y558111D01*
X303590Y557850D01*
X303540Y557551D01*
X303510Y557211D01*
X303500Y556830D01*
X301500D01*
X301503Y557211D01*
X301570Y558330D01*
X301601Y558511D01*
X301637Y558651D01*
X301679Y558750D01*
X301727Y558811D01*
X301780Y558830D01*
X304500D01*
X304310Y558811D01*
D02*
G37*
G36*
X303510Y549840D02*
X303540Y549500D01*
X303590Y549199D01*
X303660Y548940D01*
X303750Y548719D01*
X303860Y548540D01*
X303990Y548400D01*
X304140Y548299D01*
X304310Y548240D01*
X304500Y548219D01*
X300500D01*
X300690Y548240D01*
X300860Y548299D01*
X301010Y548400D01*
X301140Y548540D01*
X301250Y548719D01*
X301340Y548940D01*
X301410Y549199D01*
X301460Y549500D01*
X301490Y549840D01*
X301500Y550219D01*
X303500D01*
X303510Y549840D01*
D02*
G37*
G36*
X304970Y542281D02*
X304785Y542261D01*
X304620Y542201D01*
X304475Y542100D01*
X304349Y541960D01*
X304242Y541781D01*
X304155Y541561D01*
X304087Y541301D01*
X304039Y541001D01*
X304010Y540661D01*
X304000Y540280D01*
X302000D01*
X301990Y540665D01*
X301960Y541009D01*
X301910Y541313D01*
X301840Y541576D01*
X301750Y541800D01*
X301640Y541982D01*
X301510Y542125D01*
X301360Y542227D01*
X301190Y542289D01*
X301000Y542311D01*
X304970Y542281D01*
D02*
G37*
G36*
X304010Y536084D02*
X304040Y535739D01*
X304090Y535434D01*
X304160Y535170D01*
X304250Y534947D01*
X304360Y534764D01*
X304490Y534622D01*
X304640Y534520D01*
X304810Y534459D01*
X305000Y534439D01*
X301000D01*
X301190Y534459D01*
X301360Y534520D01*
X301510Y534622D01*
X301640Y534764D01*
X301750Y534947D01*
X301840Y535170D01*
X301910Y535434D01*
X301960Y535739D01*
X301990Y536084D01*
X302000Y536469D01*
X304000D01*
X304010Y536084D01*
D02*
G37*
G36*
X304810Y528511D02*
X304640Y528451D01*
X304490Y528350D01*
X304360Y528210D01*
X304250Y528031D01*
X304160Y527811D01*
X304090Y527551D01*
X304040Y527251D01*
X304010Y526911D01*
X304000Y526530D01*
X302000D01*
X301990Y526911D01*
X301960Y527251D01*
X301910Y527551D01*
X301840Y527811D01*
X301750Y528031D01*
X301640Y528210D01*
X301510Y528350D01*
X301360Y528451D01*
X301190Y528511D01*
X301000Y528531D01*
X305000D01*
X304810Y528511D01*
D02*
G37*
G36*
X315285Y528501D02*
X315121Y528410D01*
X314975Y528260D01*
X314849Y528050D01*
X314742Y527780D01*
X314655Y527450D01*
X314587Y527061D01*
X314539Y526610D01*
X314500Y525531D01*
X311500D01*
X311490Y526101D01*
X311413Y527061D01*
X311345Y527450D01*
X311258Y527780D01*
X311151Y528050D01*
X311025Y528260D01*
X310879Y528410D01*
X310715Y528501D01*
X310530Y528531D01*
X315469D01*
X315285Y528501D01*
D02*
G37*
G36*
X304014Y522398D02*
X304058Y522095D01*
X304130Y521794D01*
X304232Y521495D01*
X304363Y521199D01*
X304522Y520904D01*
X304711Y520612D01*
X304928Y520322D01*
X305175Y520035D01*
X305450Y519749D01*
X300550Y519749D01*
X300826Y520035D01*
X301072Y520322D01*
X301290Y520612D01*
X301478Y520905D01*
X301637Y521199D01*
X301768Y521495D01*
X301870Y521794D01*
X301942Y522095D01*
X301985Y522399D01*
X302000Y522704D01*
X304000D01*
X304014Y522398D01*
D02*
G37*
G36*
X314510Y512405D02*
X314538Y512066D01*
X314585Y511744D01*
X314652Y511441D01*
X314737Y511156D01*
X314842Y510888D01*
X314965Y510639D01*
X315108Y510408D01*
X315270Y510195D01*
X315450Y510000D01*
X310550D01*
X310730Y510195D01*
X310892Y510408D01*
X311035Y510639D01*
X311158Y510888D01*
X311262Y511156D01*
X311348Y511441D01*
X311415Y511744D01*
X311462Y512066D01*
X311490Y512405D01*
X311500Y512762D01*
X314500D01*
X314510Y512405D01*
D02*
G37*
%LPC*%
G36*
X277892Y382086D02*
X131971D01*
X129360Y381743D01*
X126927Y380735D01*
X124838Y379132D01*
X118981Y373274D01*
X117378Y371185D01*
X116370Y368753D01*
X116088Y366608D01*
X112946D01*
Y330192D01*
X136154D01*
Y349622D01*
X136199Y349963D01*
Y361914D01*
X139212D01*
X139726Y360644D01*
X138645Y358033D01*
X138246Y355004D01*
Y341796D01*
X138645Y338767D01*
X139814Y335944D01*
X141674Y333520D01*
X144098Y331660D01*
X146921Y330491D01*
X149950Y330092D01*
X152979Y330491D01*
X153401Y330665D01*
X159485Y324483D01*
X160021Y323190D01*
X162265Y320265D01*
X165190Y318021D01*
X168595Y316610D01*
X172250Y316129D01*
X175905Y316610D01*
X179310Y318021D01*
X182235Y320265D01*
X184479Y323190D01*
X185890Y326595D01*
X186371Y330250D01*
X185890Y333905D01*
X184479Y337310D01*
X182235Y340235D01*
X179310Y342479D01*
X175905Y343890D01*
X172250Y344371D01*
X168889Y343928D01*
X168858Y343950D01*
X167832Y344818D01*
X167237Y345392D01*
X167222Y345402D01*
X167211Y345417D01*
X167172Y345442D01*
X164300Y348314D01*
X162211Y349917D01*
X161654Y350148D01*
Y355004D01*
X161255Y358033D01*
X160174Y360644D01*
X160688Y361914D01*
X273564D01*
X273693Y361763D01*
X274110Y358595D01*
X275521Y355190D01*
X277765Y352265D01*
X280690Y350021D01*
X284095Y348610D01*
X287750Y348129D01*
X291405Y348610D01*
X294810Y350021D01*
X297735Y352265D01*
X299979Y355190D01*
X301390Y358595D01*
X301871Y362250D01*
X301390Y365905D01*
X299979Y369310D01*
X297735Y372235D01*
X294810Y374479D01*
X291405Y375890D01*
X288075Y376328D01*
X286286Y377895D01*
X285666Y378506D01*
X285659Y378511D01*
X285654Y378518D01*
X285607Y378549D01*
X285024Y379132D01*
X282935Y380735D01*
X280503Y381743D01*
X277892Y382086D01*
D02*
G37*
G36*
X57000Y358797D02*
X54050Y358409D01*
X51301Y357271D01*
X48941Y355459D01*
X47130Y353099D01*
X45991Y350350D01*
X45603Y347400D01*
X45991Y344450D01*
X47130Y341701D01*
X48941Y339341D01*
X51301Y337529D01*
X54050Y336391D01*
X57000Y336003D01*
X59950Y336391D01*
X62699Y337529D01*
X65059Y339341D01*
X66871Y341701D01*
X68009Y344450D01*
X68397Y347400D01*
X68009Y350350D01*
X66871Y353099D01*
X65059Y355459D01*
X62699Y357271D01*
X59950Y358409D01*
X57000Y358797D01*
D02*
G37*
G36*
X287750Y324371D02*
X284095Y323890D01*
X280690Y322479D01*
X277765Y320235D01*
X275521Y317310D01*
X274110Y313905D01*
X273629Y310250D01*
X274110Y306595D01*
X275521Y303190D01*
X277765Y300265D01*
X280690Y298021D01*
X284095Y296610D01*
X287750Y296129D01*
X291405Y296610D01*
X294810Y298021D01*
X297735Y300265D01*
X299979Y303190D01*
X301390Y306595D01*
X301871Y310250D01*
X301390Y313905D01*
X299979Y317310D01*
X297735Y320235D01*
X294810Y322479D01*
X291405Y323890D01*
X287750Y324371D01*
D02*
G37*
G36*
X82400Y358797D02*
X79450Y358409D01*
X76701Y357271D01*
X74341Y355459D01*
X72530Y353099D01*
X71391Y350350D01*
X71003Y347400D01*
X71391Y344450D01*
X72314Y342222D01*
Y337100D01*
X72657Y334490D01*
X73665Y332057D01*
X75268Y329968D01*
X115118Y290118D01*
X117207Y288515D01*
X119640Y287507D01*
X122250Y287164D01*
X158822D01*
X177924Y268062D01*
X177953Y268017D01*
X178597Y267356D01*
X179074Y266836D01*
X179893Y265842D01*
X180096Y265555D01*
X180213Y265366D01*
X180610Y262345D01*
X182021Y258940D01*
X184265Y256015D01*
X187190Y253771D01*
X190595Y252360D01*
X194250Y251879D01*
X197905Y252360D01*
X201310Y253771D01*
X204235Y256015D01*
X206479Y258940D01*
X207890Y262345D01*
X208371Y266000D01*
X207890Y269655D01*
X206479Y273060D01*
X204235Y275985D01*
X201310Y278229D01*
X197905Y279640D01*
X194884Y280037D01*
X194695Y280154D01*
X194450Y280328D01*
X192831Y281715D01*
X192233Y282297D01*
X192188Y282326D01*
X170132Y304382D01*
X168043Y305985D01*
X165611Y306993D01*
X163000Y307336D01*
X126428D01*
X92486Y341278D01*
Y342222D01*
X93409Y344450D01*
X93798Y347400D01*
X93409Y350350D01*
X92271Y353099D01*
X90459Y355459D01*
X88099Y357271D01*
X85350Y358409D01*
X82400Y358797D01*
D02*
G37*
G36*
X224250Y344371D02*
X220595Y343890D01*
X217190Y342479D01*
X214265Y340235D01*
X212021Y337310D01*
X210610Y333905D01*
X210129Y330250D01*
X210610Y326595D01*
X212021Y323190D01*
X212348Y322764D01*
X212894Y321444D01*
X214978Y318728D01*
X282388Y251319D01*
Y231428D01*
X281860Y230155D01*
X281379Y226500D01*
X281860Y222845D01*
X283271Y219440D01*
X285515Y216515D01*
X288440Y214271D01*
X291845Y212860D01*
X295500Y212379D01*
X299155Y212860D01*
X302560Y214271D01*
X305485Y216515D01*
X307729Y219440D01*
X309140Y222845D01*
X309621Y226500D01*
X309140Y230155D01*
X308612Y231428D01*
Y256750D01*
X308165Y260144D01*
X306855Y263306D01*
X304772Y266022D01*
X238041Y332752D01*
X237890Y333905D01*
X236479Y337310D01*
X234235Y340235D01*
X231310Y342479D01*
X227905Y343890D01*
X224250Y344371D01*
D02*
G37*
G36*
X245250Y279573D02*
X242309Y279283D01*
X239482Y278425D01*
X236876Y277032D01*
X234592Y275158D01*
X186070Y226636D01*
X185876Y226532D01*
X183592Y224658D01*
X181718Y222374D01*
X180325Y219768D01*
X179467Y216940D01*
X179177Y214000D01*
X179467Y211059D01*
X180325Y208232D01*
X181718Y205626D01*
X183592Y203342D01*
X185876Y201468D01*
X188482Y200075D01*
X191310Y199217D01*
X194250Y198927D01*
X249757D01*
X284842Y163842D01*
X287126Y161968D01*
X289732Y160575D01*
X292560Y159717D01*
X295500Y159427D01*
X298440Y159717D01*
X301268Y160575D01*
X303874Y161968D01*
X306158Y163842D01*
X308032Y166126D01*
X309425Y168732D01*
X310283Y171560D01*
X310573Y174500D01*
X310283Y177440D01*
X309425Y180268D01*
X308032Y182874D01*
X306158Y185158D01*
X266658Y224658D01*
X264374Y226532D01*
X261768Y227925D01*
X258941Y228783D01*
X256000Y229073D01*
X232798D01*
X232312Y230246D01*
X255908Y253842D01*
X257782Y256126D01*
X259175Y258732D01*
X260033Y261560D01*
X260323Y264500D01*
X260033Y267440D01*
X259175Y270268D01*
X257782Y272874D01*
X255908Y275158D01*
X253624Y277032D01*
X251018Y278425D01*
X248190Y279283D01*
X245250Y279573D01*
D02*
G37*
G36*
X102250Y196573D02*
X99310Y196283D01*
X96482Y195425D01*
X93876Y194032D01*
X91592Y192158D01*
X89718Y189874D01*
X88325Y187268D01*
X87467Y184440D01*
X87177Y181500D01*
X87467Y178559D01*
X88325Y175732D01*
X89718Y173126D01*
X91592Y170842D01*
X108592Y153842D01*
X110876Y151968D01*
X113482Y150575D01*
X116309Y149717D01*
X119250Y149427D01*
X141250D01*
X144191Y149717D01*
X147018Y150575D01*
X149624Y151968D01*
X151908Y153842D01*
X153782Y156126D01*
X155175Y158732D01*
X156033Y161560D01*
X156323Y164500D01*
X156033Y167440D01*
X155175Y170268D01*
X153782Y172874D01*
X151908Y175158D01*
X149624Y177032D01*
X147018Y178425D01*
X144191Y179283D01*
X141250Y179573D01*
X125493D01*
X112908Y192158D01*
X110624Y194032D01*
X108018Y195425D01*
X105190Y196283D01*
X102250Y196573D01*
D02*
G37*
G36*
X300770Y63240D02*
Y51020D01*
X312990D01*
X312691Y53285D01*
X311327Y56578D01*
X309157Y59407D01*
X306328Y61577D01*
X303035Y62941D01*
X300770Y63240D01*
D02*
G37*
G36*
X298230D02*
X295965Y62941D01*
X292672Y61577D01*
X289843Y59407D01*
X287673Y56578D01*
X286308Y53285D01*
X286010Y51020D01*
X298230D01*
Y63240D01*
D02*
G37*
G36*
X31600Y358797D02*
X28650Y358409D01*
X25901Y357271D01*
X23541Y355459D01*
X21730Y353099D01*
X20591Y350350D01*
X20203Y347400D01*
X20591Y344450D01*
X21514Y342222D01*
Y306900D01*
X21857Y304289D01*
X22865Y301857D01*
X24468Y299768D01*
X27764Y296472D01*
Y267250D01*
X27753Y267199D01*
X27738Y266301D01*
X27627Y264766D01*
X27556Y264275D01*
X27469Y263852D01*
X27388Y263559D01*
X27358Y263478D01*
X25141Y260588D01*
X23674Y257048D01*
X23175Y253250D01*
X23674Y249452D01*
X25141Y245912D01*
X27473Y242873D01*
X30512Y240541D01*
X34052Y239074D01*
X37850Y238575D01*
X41648Y239074D01*
X45188Y240541D01*
X47038Y241961D01*
X48177Y241399D01*
Y200743D01*
X39592Y192158D01*
X37718Y189874D01*
X36325Y187268D01*
X35467Y184440D01*
X35178Y181500D01*
Y123750D01*
X35467Y120809D01*
X36325Y117982D01*
X37718Y115376D01*
X39592Y113092D01*
X71860Y80824D01*
X71722Y72000D01*
X71500D01*
Y67396D01*
X71434Y67106D01*
X71446Y67038D01*
X71432Y66969D01*
X71500Y66630D01*
Y41000D01*
X102500D01*
Y66630D01*
X102568Y66969D01*
X102556Y67029D01*
X102566Y67089D01*
X102500Y69904D01*
Y72000D01*
X102451D01*
X102097Y87089D01*
X102038Y87352D01*
X101783Y89941D01*
X100925Y92768D01*
X99532Y95374D01*
X97658Y97658D01*
X65323Y129993D01*
Y175257D01*
X73908Y183842D01*
X75782Y186126D01*
X77175Y188732D01*
X78033Y191560D01*
X78323Y194500D01*
X78323Y194500D01*
Y238700D01*
X84942D01*
X85709Y238467D01*
X88650Y238177D01*
X93257D01*
X104967Y226467D01*
X177592Y153842D01*
X179876Y151968D01*
X182482Y150575D01*
X185310Y149717D01*
X188250Y149427D01*
X207202D01*
X207688Y148254D01*
X176092Y116658D01*
X174218Y114374D01*
X172825Y111768D01*
X171967Y108940D01*
X171677Y106000D01*
Y87103D01*
X171652Y86976D01*
X171647Y83211D01*
X171472Y72000D01*
X171250D01*
Y67396D01*
X171184Y67106D01*
X171196Y67038D01*
X171182Y66969D01*
X171250Y66630D01*
Y41000D01*
X202250D01*
Y66630D01*
X202318Y66969D01*
X202306Y67029D01*
X202316Y67089D01*
X202250Y69904D01*
Y72000D01*
X202201D01*
X201847Y87089D01*
X201823Y87197D01*
Y99757D01*
X255908Y153842D01*
X257782Y156126D01*
X259175Y158732D01*
X260033Y161560D01*
X260323Y164500D01*
X260033Y167440D01*
X259175Y170268D01*
X257782Y172874D01*
X255908Y175158D01*
X253624Y177032D01*
X251018Y178425D01*
X248190Y179283D01*
X245250Y179573D01*
X194493D01*
X136066Y238000D01*
X151908Y253842D01*
X153782Y256126D01*
X155175Y258732D01*
X156033Y261560D01*
X156323Y264500D01*
X156033Y267440D01*
X155175Y270268D01*
X153782Y272874D01*
X151908Y275158D01*
X149624Y277032D01*
X147018Y278425D01*
X144191Y279283D01*
X141250Y279573D01*
X138309Y279283D01*
X135482Y278425D01*
X132876Y277032D01*
X130592Y275158D01*
X114750Y259316D01*
X110158Y263908D01*
X107874Y265782D01*
X105268Y267175D01*
X102441Y268033D01*
X99500Y268323D01*
X88650D01*
X85709Y268033D01*
X84942Y267800D01*
X74100D01*
Y265393D01*
X72830Y264792D01*
X71624Y265782D01*
X69018Y267175D01*
X66191Y268033D01*
X63250Y268323D01*
X60310Y268033D01*
X57482Y267175D01*
X54876Y265782D01*
X52592Y263908D01*
X51052Y262032D01*
X49569Y261879D01*
X48342Y263478D01*
X48312Y263559D01*
X48231Y263852D01*
X48144Y264275D01*
X48073Y264766D01*
X47962Y266301D01*
X47947Y267199D01*
X47936Y267250D01*
Y300650D01*
X47593Y303260D01*
X46585Y305693D01*
X44982Y307782D01*
X41686Y311078D01*
Y342222D01*
X42609Y344450D01*
X42997Y347400D01*
X42609Y350350D01*
X41471Y353099D01*
X39659Y355459D01*
X37299Y357271D01*
X34550Y358409D01*
X31600Y358797D01*
D02*
G37*
G36*
X136750Y72075D02*
X133712Y71776D01*
X130790Y70889D01*
X128097Y69450D01*
X125737Y67513D01*
X123800Y65153D01*
X122361Y62460D01*
X121474Y59538D01*
X121175Y56500D01*
X121474Y53461D01*
X122361Y50540D01*
X123800Y47847D01*
X125737Y45487D01*
X128097Y43550D01*
X130790Y42111D01*
X133712Y41224D01*
X136750Y40925D01*
X139789Y41224D01*
X142710Y42111D01*
X145403Y43550D01*
X147763Y45487D01*
X149700Y47847D01*
X151139Y50540D01*
X152026Y53461D01*
X152325Y56500D01*
X152026Y59538D01*
X151139Y62460D01*
X149700Y65153D01*
X147763Y67513D01*
X145403Y69450D01*
X142710Y70889D01*
X139789Y71776D01*
X136750Y72075D01*
D02*
G37*
G36*
X37000D02*
X33962Y71776D01*
X31040Y70889D01*
X28347Y69450D01*
X25987Y67513D01*
X24050Y65153D01*
X22611Y62460D01*
X21724Y59538D01*
X21425Y56500D01*
X21724Y53461D01*
X22611Y50540D01*
X24050Y47847D01*
X25987Y45487D01*
X28347Y43550D01*
X31040Y42111D01*
X33962Y41224D01*
X37000Y40925D01*
X40038Y41224D01*
X42960Y42111D01*
X45653Y43550D01*
X48013Y45487D01*
X49950Y47847D01*
X51389Y50540D01*
X52276Y53461D01*
X52575Y56500D01*
X52276Y59538D01*
X51389Y62460D01*
X49950Y65153D01*
X48013Y67513D01*
X45653Y69450D01*
X42960Y70889D01*
X40038Y71776D01*
X37000Y72075D01*
D02*
G37*
G36*
X312990Y48480D02*
X300770D01*
Y36260D01*
X303035Y36558D01*
X306328Y37923D01*
X309157Y40093D01*
X311327Y42922D01*
X312691Y46215D01*
X312990Y48480D01*
D02*
G37*
G36*
X298230D02*
X286010D01*
X286308Y46215D01*
X287673Y42922D01*
X289843Y40093D01*
X292672Y37923D01*
X295965Y36558D01*
X298230Y36260D01*
Y48480D01*
D02*
G37*
%LPD*%
G36*
X282813Y374160D02*
X285580Y371736D01*
X285959Y371484D01*
X286280Y371310D01*
X286544Y371213D01*
X286749Y371194D01*
X278790Y363099D01*
X278768Y363299D01*
X278668Y363557D01*
X278491Y363874D01*
X278236Y364249D01*
X277905Y364683D01*
X277010Y365728D01*
X275087Y367734D01*
X282086Y374877D01*
X282813Y374160D01*
D02*
G37*
G36*
X164412Y341034D02*
X165734Y339916D01*
X166341Y339487D01*
X166912Y339144D01*
X167447Y338888D01*
X167947Y338718D01*
X168410Y338635D01*
X168838Y338638D01*
X169231Y338728D01*
X163713Y327401D01*
X163629Y327516D01*
X163410Y327763D01*
X156805Y334474D01*
X163698Y341723D01*
X164412Y341034D01*
D02*
G37*
G36*
X189390Y277949D02*
X191312Y276303D01*
X191879Y275902D01*
X192409Y275574D01*
X192902Y275320D01*
X193358Y275140D01*
X193778Y275033D01*
X194160Y275000D01*
X185250Y266090D01*
X185217Y266472D01*
X185110Y266892D01*
X184930Y267348D01*
X184676Y267841D01*
X184348Y268371D01*
X183947Y268938D01*
X182923Y270182D01*
X182301Y270860D01*
X181605Y271574D01*
X188676Y278645D01*
X189390Y277949D01*
D02*
G37*
G36*
X42867Y266075D02*
X43002Y264216D01*
X43120Y263400D01*
X43271Y262658D01*
X43457Y261990D01*
X43676Y261398D01*
X43928Y260880D01*
X44215Y260438D01*
X44535Y260070D01*
X31165D01*
X31485Y260438D01*
X31772Y260880D01*
X32024Y261398D01*
X32243Y261990D01*
X32429Y262658D01*
X32580Y263400D01*
X32698Y264216D01*
X32833Y266075D01*
X32850Y267117D01*
X42850D01*
X42867Y266075D01*
D02*
G37*
G36*
X197220Y66969D02*
X176280D01*
X176370Y67169D01*
X176450Y67769D01*
X176520Y68769D01*
X176745Y83169D01*
X176750Y86969D01*
X196750D01*
X197220Y66969D01*
D02*
G37*
G36*
X97470D02*
X76530D01*
X76620Y67169D01*
X76700Y67769D01*
X76770Y68769D01*
X76995Y83169D01*
X77000Y86969D01*
X97000D01*
X97470Y66969D01*
D02*
G37*
D10*
X187346Y589154D02*
X191846D01*
X200500Y570200D02*
Y580500D01*
X191846Y589154D02*
X200500Y580500D01*
X187000Y589500D02*
X187346Y589154D01*
X249700Y531000D02*
X249700Y531000D01*
X269000D01*
X270250Y516000D02*
Y529750D01*
X269000Y531000D02*
X270250Y529750D01*
X109500Y547250D02*
X110500Y546250D01*
Y537035D02*
Y546250D01*
X111672Y535864D02*
X115636D01*
X110500Y537035D02*
X111672Y535864D01*
X115636D02*
X116250Y535250D01*
X244000Y463250D02*
X260750D01*
X291500Y494000D02*
Y583750D01*
X260750Y463250D02*
X291500Y494000D01*
X249700Y476000D02*
X261250D01*
X283500Y498250D02*
Y628000D01*
X261250Y476000D02*
X283500Y498250D01*
X200569Y429250D02*
X206100Y434781D01*
X205500Y456800D02*
X205900Y456400D01*
Y449478D02*
Y456400D01*
Y449478D02*
X206100Y449278D01*
Y434781D02*
Y449278D01*
X199500Y429250D02*
X200569D01*
X200457Y430207D02*
Y432378D01*
X200500Y432422D01*
Y456800D01*
X82250Y513000D02*
X110000D01*
X117600Y520600D02*
X135900D01*
X110000Y513000D02*
X117600Y520600D01*
X19500Y450250D02*
X82250Y513000D01*
X135900Y520600D02*
X136300Y521000D01*
X125397Y466500D02*
X126750D01*
X123397Y468500D02*
X125397Y466500D01*
X110750Y468500D02*
X123397D01*
X143750Y577750D02*
Y589000D01*
X143500Y577500D02*
X143750Y577750D01*
X303000Y517250D02*
Y531500D01*
X303000Y517250D02*
X303000Y517250D01*
X258100Y702500D02*
Y791400D01*
X237000Y812500D02*
X258100Y791400D01*
X257850Y702250D02*
X258100Y702500D01*
X238750Y702250D02*
X257850D01*
X207000Y709750D02*
X231250D01*
X238750Y702250D01*
X191500Y709750D02*
Y802859D01*
X187000Y807359D02*
X191500Y802859D01*
X187000Y807359D02*
Y812500D01*
X207000Y699750D02*
X207000Y699750D01*
X207000Y688500D02*
Y699750D01*
X225500Y440500D02*
Y456800D01*
Y440500D02*
X227500Y438500D01*
Y438000D02*
Y438500D01*
Y438000D02*
X229000Y436500D01*
X229500D01*
X220500Y456800D02*
Y469000D01*
X224500Y473000D02*
X234250D01*
X220500Y469000D02*
X224500Y473000D01*
X234250D02*
X244000Y463250D01*
X291500Y583750D02*
X299450Y591700D01*
X309250D01*
X298000Y642500D02*
X309250D01*
X283500Y628000D02*
X298000Y642500D01*
X302500Y545250D02*
Y559550D01*
X309250Y566300D01*
X303000Y531500D02*
Y544750D01*
X302500Y545250D02*
X303000Y544750D01*
X143750Y589000D02*
X168750D01*
X170500Y570200D02*
Y587250D01*
X168750Y589000D02*
X170500Y587250D01*
X109500Y547250D02*
X117250D01*
X123500Y541000D01*
X136300D01*
X55450Y537000D02*
X79200Y560750D01*
X126550D01*
X55450Y537000D02*
X55450D01*
X19500Y501050D02*
X55450Y537000D01*
X26000Y558350D02*
X37850Y570200D01*
X26000Y558350D02*
X26000D01*
X37850Y570200D02*
X155500D01*
X19500Y551850D02*
X26000Y558350D01*
X19500Y475650D02*
X69850Y526000D01*
X136300D01*
X86250Y501000D02*
X136300D01*
X82250Y497000D02*
X86250Y501000D01*
X126550Y560750D02*
X136300Y551000D01*
X82250Y458000D02*
Y497000D01*
X110750Y468500D02*
Y475750D01*
X105578Y463328D02*
X110750Y468500D01*
X105500Y458500D02*
X105578Y458578D01*
Y463328D01*
X115500Y458500D02*
X133276D01*
X134976Y456800D01*
X124550Y424600D02*
Y446374D01*
X139200Y456800D02*
X139200Y456800D01*
X124550Y446374D02*
X134976Y456800D01*
X139200D01*
X139200Y456800D02*
X155500D01*
X110750Y475750D02*
X136050D01*
X136300Y476000D01*
X110500Y489750D02*
X117000D01*
X125750Y481000D02*
X136300D01*
X117000Y489750D02*
X125750Y481000D01*
X82400Y423600D02*
Y447850D01*
X82250Y448000D02*
X82400Y447850D01*
D16*
X99250Y547250D02*
D03*
X109500D02*
D03*
X110500Y489750D02*
D03*
X100250D02*
D03*
X100500Y475750D02*
D03*
X110750D02*
D03*
X241000Y589250D02*
D03*
X251250D02*
D03*
X312750Y545250D02*
D03*
X302500D02*
D03*
X143750Y589000D02*
D03*
X133500D02*
D03*
X303000Y531500D02*
D03*
X313000D02*
D03*
X105500Y458500D02*
D03*
X115500D02*
D03*
X308000Y427000D02*
D03*
X298000D02*
D03*
D17*
X234750Y704000D02*
D03*
Y694000D02*
D03*
X229500Y436500D02*
D03*
Y426250D02*
D03*
X207000Y699750D02*
D03*
Y709750D02*
D03*
X191500D02*
D03*
Y699750D02*
D03*
X267750Y578250D02*
D03*
Y588500D02*
D03*
X244500Y436750D02*
D03*
Y426500D02*
D03*
X270250Y506000D02*
D03*
Y516000D02*
D03*
X273000Y451000D02*
D03*
Y441000D02*
D03*
X82250Y458000D02*
D03*
Y448000D02*
D03*
D18*
X255750Y630750D02*
D03*
Y662750D02*
D03*
X143500Y632000D02*
D03*
Y664000D02*
D03*
D19*
X136300Y551000D02*
D03*
Y546000D02*
D03*
Y541000D02*
D03*
Y536000D02*
D03*
Y531000D02*
D03*
Y526000D02*
D03*
Y521000D02*
D03*
Y516000D02*
D03*
Y511000D02*
D03*
Y506000D02*
D03*
Y501000D02*
D03*
Y496000D02*
D03*
Y491000D02*
D03*
Y486000D02*
D03*
Y481000D02*
D03*
Y476000D02*
D03*
X249700D02*
D03*
Y481000D02*
D03*
Y486000D02*
D03*
Y491000D02*
D03*
Y496000D02*
D03*
Y501000D02*
D03*
Y506000D02*
D03*
Y511000D02*
D03*
Y516000D02*
D03*
Y521000D02*
D03*
Y526000D02*
D03*
Y531000D02*
D03*
Y536000D02*
D03*
Y541000D02*
D03*
Y546000D02*
D03*
Y551000D02*
D03*
D20*
X230500Y570200D02*
D03*
X225500D02*
D03*
X220500D02*
D03*
X215500D02*
D03*
X210500D02*
D03*
X205500D02*
D03*
X200500D02*
D03*
X195500D02*
D03*
X190500D02*
D03*
X185500D02*
D03*
X180500D02*
D03*
X175500D02*
D03*
X170500D02*
D03*
X165500D02*
D03*
X160500D02*
D03*
X155500D02*
D03*
Y456800D02*
D03*
X160500D02*
D03*
X165500D02*
D03*
X170500D02*
D03*
X175500D02*
D03*
X180500D02*
D03*
X185500D02*
D03*
X190500D02*
D03*
X195500D02*
D03*
X200500D02*
D03*
X205500D02*
D03*
X210500D02*
D03*
X215500D02*
D03*
X220500D02*
D03*
X225500D02*
D03*
X230500D02*
D03*
D21*
X300400Y702500D02*
D03*
X258100D02*
D03*
D22*
X26065Y689250D02*
D03*
X97435D02*
D03*
D23*
X174000Y611500D02*
D03*
X197000D02*
D03*
X220000D02*
D03*
D24*
X197000Y669500D02*
D03*
D25*
X306500Y443000D02*
D03*
Y466000D02*
D03*
X290250Y443250D02*
D03*
Y466250D02*
D03*
D51*
X235750Y669500D02*
X249000D01*
X197000D02*
X235750D01*
X208500Y589250D02*
X241000D01*
X199250Y598500D02*
Y609250D01*
X197000Y611500D02*
X199250Y609250D01*
Y598500D02*
X208500Y589250D01*
X283500Y662750D02*
X285250Y664500D01*
X306544Y667900D02*
X309250D01*
X303144Y664500D02*
X306544Y667900D01*
X285250Y664500D02*
X303144D01*
X275250Y662750D02*
X283500D01*
X255750D02*
X275250D01*
X243679Y606000D02*
X268750D01*
X241000Y589250D02*
Y591214D01*
X240750Y591465D02*
X241000Y591214D01*
X240750Y591465D02*
Y603071D01*
X243679Y606000D01*
X268750D02*
X275250Y612500D01*
Y662750D01*
X249000Y669500D02*
X255750Y662750D01*
D52*
X234750Y670500D02*
Y694000D01*
Y670500D02*
X235750Y669500D01*
X308000Y427000D02*
Y441500D01*
X306500Y443000D02*
X308000Y441500D01*
X273000Y451000D02*
X282500D01*
X285500Y448000D01*
X286250D01*
X290250Y444000D01*
Y443250D02*
Y444000D01*
X178750Y416500D02*
X276500D01*
X174000Y421250D02*
X178750Y416500D01*
X174000Y421250D02*
Y436250D01*
X276500Y416500D02*
X287000Y427000D01*
X185500Y428750D02*
Y456800D01*
Y428750D02*
X185500Y428750D01*
X180400Y442650D02*
Y456700D01*
X174000Y436250D02*
X180400Y442650D01*
Y456700D02*
X180500Y456800D01*
X287000Y427000D02*
X298000D01*
X273000Y428000D02*
Y441000D01*
X272750Y427750D02*
X273000Y428000D01*
X244500Y436750D02*
X258750D01*
X267750Y566250D02*
Y578250D01*
X253943Y551100D02*
Y573693D01*
X258500Y578250D02*
X267750D01*
X253943Y573693D02*
X258500Y578250D01*
X313000Y507500D02*
Y531500D01*
X191500Y675000D02*
Y699750D01*
Y675000D02*
X197000Y669500D01*
X230500Y452657D02*
Y456800D01*
Y452657D02*
X230600Y452557D01*
X234743D01*
X244500Y442800D01*
Y436750D02*
Y442800D01*
X249700Y551000D02*
X253843D01*
X253943Y551100D01*
X241000Y580700D02*
Y589250D01*
X234743Y574443D02*
X241000Y580700D01*
X230500Y570200D02*
Y574343D01*
X230600Y574443D01*
X234743D01*
D53*
X134000Y632000D02*
X143500D01*
X162750Y638250D02*
X214142D01*
X143500Y632000D02*
X145607Y634107D01*
X158607D01*
X162750Y638250D01*
X96000Y594000D02*
X134000Y632000D01*
X220000Y611500D02*
Y632392D01*
X214142Y638250D02*
X220000Y632392D01*
X26065Y689250D02*
Y694330D01*
X35035Y703300D01*
X40115D01*
X87000Y750185D01*
Y812500D01*
X88900Y625250D02*
Y680715D01*
X97435Y689250D01*
X58000Y594000D02*
X96000D01*
X38363Y613637D02*
X58000Y594000D01*
X38363Y613637D02*
Y624987D01*
X38100Y625250D02*
X38363Y624987D01*
X149950Y342664D02*
Y348400D01*
Y342664D02*
X151432Y341182D01*
X157168D01*
X166569Y331781D01*
X170719D01*
X172250Y330250D01*
X126113Y349963D02*
Y366142D01*
X287642Y362250D02*
X287750D01*
X277892Y372000D02*
X287642Y362250D01*
X131971Y372000D02*
X277892D01*
X126113Y366142D02*
X131971Y372000D01*
X124550Y348400D02*
X126113Y349963D01*
X31600Y306900D02*
Y347400D01*
X37850Y253250D02*
Y300650D01*
X31600Y306900D02*
X37850Y300650D01*
X82400Y337100D02*
Y347400D01*
Y337100D02*
X122250Y297250D01*
X163000D02*
X194250Y266000D01*
X122250Y297250D02*
X163000D01*
D54*
X194750Y214000D02*
X256000D01*
X194250D02*
X194750D01*
X256000D02*
X295500Y174500D01*
X194750Y214000D02*
X245250Y264500D01*
X102250Y181500D02*
X119250Y164500D01*
X141250D01*
X115625Y237125D02*
X188250Y164500D01*
X99500Y253250D02*
X115625Y237125D01*
Y238875D02*
X141250Y264500D01*
X115625Y237125D02*
Y238875D01*
X88650Y253250D02*
X99500D01*
X188250Y164500D02*
X245250D01*
X186750Y56500D02*
Y106000D01*
X245250Y164500D01*
X63250Y194500D02*
Y253250D01*
X50250Y181500D02*
X63250Y194500D01*
X50250Y123750D02*
Y181500D01*
X87000Y56500D02*
Y87000D01*
X50250Y123750D02*
X87000Y87000D01*
D55*
X224250Y328000D02*
Y330250D01*
Y328000D02*
X295500Y256750D01*
Y226500D02*
Y256750D01*
D56*
X172250Y330250D02*
D03*
X224250D02*
D03*
X102250Y181500D02*
D03*
X50250D02*
D03*
X287750Y362250D02*
D03*
Y310250D02*
D03*
X295500Y174500D02*
D03*
Y226500D02*
D03*
X194250Y266000D02*
D03*
Y214000D02*
D03*
D57*
X299500Y49750D02*
D03*
D58*
X82400Y423600D02*
D03*
D59*
X57000D02*
D03*
X31600D02*
D03*
Y347400D02*
D03*
X57000D02*
D03*
X82400D02*
D03*
D60*
X124550Y424600D02*
D03*
X149950D02*
D03*
Y348400D02*
D03*
D61*
X124550D02*
D03*
D62*
X19500Y551850D02*
D03*
X309250Y566300D02*
D03*
D63*
X19500Y526450D02*
D03*
Y501050D02*
D03*
Y475650D02*
D03*
Y450250D02*
D03*
X309250Y591700D02*
D03*
Y617100D02*
D03*
Y642500D02*
D03*
Y667900D02*
D03*
D64*
X88900Y625250D02*
D03*
D65*
X63500D02*
D03*
X38100D02*
D03*
D66*
X37850Y253250D02*
D03*
X63250D02*
D03*
D67*
X88650D02*
D03*
D68*
X141250Y264500D02*
D03*
Y164500D02*
D03*
X245250Y264500D02*
D03*
Y164500D02*
D03*
D69*
X137000Y812500D02*
D03*
X237000D02*
D03*
X87000Y56500D02*
D03*
X186750D02*
D03*
X37000Y812500D02*
D03*
D70*
X187000D02*
D03*
X287000D02*
D03*
X37000Y56500D02*
D03*
X136750D02*
D03*
X87000Y812500D02*
D03*
D71*
X222000Y686750D02*
D03*
X187000Y589500D02*
D03*
X116250Y535250D02*
D03*
X199500Y429250D02*
D03*
X163750Y488250D02*
D03*
X165250Y540250D02*
D03*
X307000Y486500D02*
D03*
X214250Y428250D02*
D03*
X185500Y428750D02*
D03*
X272750Y427750D02*
D03*
X258750Y436750D02*
D03*
X126750Y466500D02*
D03*
X143500Y577500D02*
D03*
X284500Y664500D02*
D03*
X267750Y566250D02*
D03*
X313000Y507500D02*
D03*
X303000Y517250D02*
D03*
X207000Y688500D02*
D03*
M02*
