G04*
G04 #@! TF.GenerationSoftware,Altium Limited,Altium Designer,20.0.13 (296)*
G04*
G04 Layer_Physical_Order=2*
G04 Layer_Color=36540*
%FSLAX44Y44*%
%MOMM*%
G71*
G01*
G75*
%ADD59C,1.2600*%
%ADD60O,1.3208X2.6416*%
%ADD63C,1.5000*%
%ADD65C,1.5080*%
%ADD69R,2.1000X2.1000*%
%ADD70C,2.1000*%
%ADD71C,0.7000*%
G36*
X324941Y404000D02*
X3059D01*
Y865941D01*
X324941D01*
Y404000D01*
D02*
G37*
%LPC*%
G36*
X288270Y825485D02*
Y813770D01*
X299985D01*
X299704Y815904D01*
X298390Y819076D01*
X296300Y821800D01*
X293576Y823890D01*
X290404Y825204D01*
X288270Y825485D01*
D02*
G37*
G36*
X285730D02*
X283596Y825204D01*
X280424Y823890D01*
X277700Y821800D01*
X275610Y819076D01*
X274296Y815904D01*
X274015Y813770D01*
X285730D01*
Y825485D01*
D02*
G37*
G36*
X150040Y825540D02*
X138270D01*
Y813770D01*
X150040D01*
Y825540D01*
D02*
G37*
G36*
X135730D02*
X123960D01*
Y813770D01*
X135730D01*
Y825540D01*
D02*
G37*
G36*
X50040D02*
X38270D01*
Y813770D01*
X50040D01*
Y825540D01*
D02*
G37*
G36*
X35730D02*
X23960D01*
Y813770D01*
X35730D01*
Y825540D01*
D02*
G37*
G36*
X249500Y825000D02*
X224500D01*
Y800000D01*
X249500D01*
Y825000D01*
D02*
G37*
G36*
X187000Y825108D02*
X183737Y824678D01*
X180696Y823419D01*
X178085Y821415D01*
X176081Y818804D01*
X174822Y815763D01*
X174392Y812500D01*
X174822Y809237D01*
X176081Y806196D01*
X178085Y803585D01*
X180696Y801581D01*
X183737Y800322D01*
X187000Y799892D01*
X190263Y800322D01*
X193304Y801581D01*
X195915Y803585D01*
X197919Y806196D01*
X199178Y809237D01*
X199608Y812500D01*
X199178Y815763D01*
X197919Y818804D01*
X195915Y821415D01*
X193304Y823419D01*
X190263Y824678D01*
X187000Y825108D01*
D02*
G37*
G36*
X87000D02*
X83737Y824678D01*
X80696Y823419D01*
X78085Y821415D01*
X76081Y818804D01*
X74822Y815763D01*
X74392Y812500D01*
X74822Y809237D01*
X76081Y806196D01*
X78085Y803585D01*
X80696Y801581D01*
X83737Y800322D01*
X87000Y799892D01*
X90263Y800322D01*
X93304Y801581D01*
X95915Y803585D01*
X97919Y806196D01*
X99178Y809237D01*
X99608Y812500D01*
X99178Y815763D01*
X97919Y818804D01*
X95915Y821415D01*
X93304Y823419D01*
X90263Y824678D01*
X87000Y825108D01*
D02*
G37*
G36*
X299985Y811230D02*
X288270D01*
Y799515D01*
X290404Y799796D01*
X293576Y801110D01*
X296300Y803200D01*
X298390Y805924D01*
X299704Y809096D01*
X299985Y811230D01*
D02*
G37*
G36*
X285730D02*
X274015D01*
X274296Y809096D01*
X275610Y805924D01*
X277700Y803200D01*
X280424Y801110D01*
X283596Y799796D01*
X285730Y799515D01*
Y811230D01*
D02*
G37*
G36*
X150040D02*
X138270D01*
Y799460D01*
X150040D01*
Y811230D01*
D02*
G37*
G36*
X135730D02*
X123960D01*
Y799460D01*
X135730D01*
Y811230D01*
D02*
G37*
G36*
X50040D02*
X38270D01*
Y799460D01*
X50040D01*
Y811230D01*
D02*
G37*
G36*
X35730D02*
X23960D01*
Y799460D01*
X35730D01*
Y811230D01*
D02*
G37*
G36*
X207000Y694108D02*
X204854Y693681D01*
X203035Y692465D01*
X201819Y690646D01*
X201392Y688500D01*
X201819Y686354D01*
X203035Y684535D01*
X204854Y683319D01*
X207000Y682892D01*
X209146Y683319D01*
X210965Y684535D01*
X212181Y686354D01*
X212608Y688500D01*
X212181Y690646D01*
X210965Y692465D01*
X209146Y693681D01*
X207000Y694108D01*
D02*
G37*
G36*
X284500Y670108D02*
X282354Y669681D01*
X280535Y668465D01*
X279319Y666646D01*
X278892Y664500D01*
X279319Y662354D01*
X280535Y660535D01*
X282354Y659319D01*
X284500Y658892D01*
X286646Y659319D01*
X288465Y660535D01*
X289681Y662354D01*
X290108Y664500D01*
X289681Y666646D01*
X288465Y668465D01*
X286646Y669681D01*
X284500Y670108D01*
D02*
G37*
G36*
X309250Y677482D02*
X306770Y677156D01*
X304459Y676198D01*
X302475Y674676D01*
X300952Y672691D01*
X299995Y670380D01*
X299668Y667900D01*
X299995Y665420D01*
X300952Y663109D01*
X302475Y661125D01*
X304459Y659602D01*
X306770Y658645D01*
X309250Y658318D01*
X311730Y658645D01*
X314041Y659602D01*
X316026Y661125D01*
X317548Y663109D01*
X318505Y665420D01*
X318832Y667900D01*
X318505Y670380D01*
X317548Y672691D01*
X316026Y674676D01*
X314041Y676198D01*
X311730Y677156D01*
X309250Y677482D01*
D02*
G37*
G36*
Y652082D02*
X306770Y651756D01*
X304459Y650798D01*
X302475Y649276D01*
X300952Y647291D01*
X299995Y644980D01*
X299668Y642500D01*
X299995Y640020D01*
X300952Y637709D01*
X302475Y635725D01*
X304459Y634202D01*
X306770Y633245D01*
X309250Y632918D01*
X311730Y633245D01*
X314041Y634202D01*
X316026Y635725D01*
X317548Y637709D01*
X318505Y640020D01*
X318832Y642500D01*
X318505Y644980D01*
X317548Y647291D01*
X316026Y649276D01*
X314041Y650798D01*
X311730Y651756D01*
X309250Y652082D01*
D02*
G37*
G36*
X64770Y635250D02*
Y626520D01*
X73500D01*
X73320Y627881D01*
X72305Y630334D01*
X70689Y632439D01*
X68583Y634055D01*
X66131Y635070D01*
X64770Y635250D01*
D02*
G37*
G36*
X62230Y635250D02*
X60869Y635070D01*
X58417Y634055D01*
X56311Y632439D01*
X54695Y630334D01*
X53679Y627881D01*
X53500Y626520D01*
X62230D01*
Y635250D01*
D02*
G37*
G36*
X310520Y627059D02*
Y618370D01*
X319209D01*
X319032Y619721D01*
X318020Y622163D01*
X316411Y624261D01*
X314313Y625870D01*
X311871Y626882D01*
X310520Y627059D01*
D02*
G37*
G36*
X307980D02*
X306629Y626882D01*
X304187Y625870D01*
X302089Y624261D01*
X300480Y622163D01*
X299468Y619721D01*
X299291Y618370D01*
X307980D01*
Y627059D01*
D02*
G37*
G36*
X98440Y634790D02*
X79360D01*
Y615710D01*
X98440D01*
Y634790D01*
D02*
G37*
G36*
X38100Y634872D02*
X35610Y634544D01*
X33289Y633583D01*
X31296Y632054D01*
X29767Y630061D01*
X28806Y627741D01*
X28478Y625250D01*
X28806Y622760D01*
X29767Y620439D01*
X31296Y618446D01*
X33289Y616917D01*
X35610Y615956D01*
X38100Y615628D01*
X40590Y615956D01*
X42911Y616917D01*
X44904Y618446D01*
X46433Y620439D01*
X47394Y622760D01*
X47722Y625250D01*
X47394Y627741D01*
X46433Y630061D01*
X44904Y632054D01*
X42911Y633583D01*
X40590Y634544D01*
X38100Y634872D01*
D02*
G37*
G36*
X73500Y623980D02*
X64770D01*
Y615250D01*
X66131Y615429D01*
X68583Y616445D01*
X70689Y618061D01*
X72305Y620167D01*
X73320Y622619D01*
X73500Y623980D01*
D02*
G37*
G36*
X62230D02*
X53500D01*
X53679Y622619D01*
X54695Y620167D01*
X56311Y618061D01*
X58417Y616445D01*
X60869Y615429D01*
X62230Y615250D01*
Y623980D01*
D02*
G37*
G36*
X319209Y615830D02*
X310520D01*
Y607141D01*
X311871Y607318D01*
X314313Y608330D01*
X316411Y609939D01*
X318020Y612037D01*
X319032Y614479D01*
X319209Y615830D01*
D02*
G37*
G36*
X307980D02*
X299291D01*
X299468Y614479D01*
X300480Y612037D01*
X302089Y609939D01*
X304187Y608330D01*
X306629Y607318D01*
X307980Y607141D01*
Y615830D01*
D02*
G37*
G36*
X309250Y601282D02*
X306770Y600956D01*
X304459Y599998D01*
X302475Y598475D01*
X300952Y596491D01*
X299995Y594180D01*
X299668Y591700D01*
X299995Y589220D01*
X300952Y586909D01*
X302475Y584925D01*
X304459Y583402D01*
X306770Y582445D01*
X309250Y582118D01*
X311730Y582445D01*
X314041Y583402D01*
X316026Y584925D01*
X317548Y586909D01*
X318505Y589220D01*
X318832Y591700D01*
X318505Y594180D01*
X317548Y596491D01*
X316026Y598475D01*
X314041Y599998D01*
X311730Y600956D01*
X309250Y601282D01*
D02*
G37*
G36*
X143500Y583108D02*
X141354Y582681D01*
X139535Y581465D01*
X138319Y579646D01*
X137892Y577500D01*
X138319Y575354D01*
X139535Y573535D01*
X141354Y572319D01*
X143500Y571892D01*
X145646Y572319D01*
X147465Y573535D01*
X148681Y575354D01*
X149108Y577500D01*
X148681Y579646D01*
X147465Y581465D01*
X145646Y582681D01*
X143500Y583108D01*
D02*
G37*
G36*
X267750Y571858D02*
X265604Y571431D01*
X263785Y570215D01*
X262569Y568396D01*
X262142Y566250D01*
X262569Y564104D01*
X263785Y562285D01*
X265604Y561069D01*
X267750Y560642D01*
X269896Y561069D01*
X271715Y562285D01*
X272931Y564104D01*
X273358Y566250D01*
X272931Y568396D01*
X271715Y570215D01*
X269896Y571431D01*
X267750Y571858D01*
D02*
G37*
G36*
X318750Y575800D02*
X299750D01*
Y556800D01*
X318750D01*
Y575800D01*
D02*
G37*
G36*
X29000Y561350D02*
X10000D01*
Y542350D01*
X29000D01*
Y561350D01*
D02*
G37*
G36*
X116250Y540858D02*
X114104Y540431D01*
X112285Y539215D01*
X111069Y537396D01*
X110642Y535250D01*
X111069Y533104D01*
X112285Y531285D01*
X114104Y530069D01*
X116250Y529642D01*
X118396Y530069D01*
X120215Y531285D01*
X121431Y533104D01*
X121858Y535250D01*
X121431Y537396D01*
X120215Y539215D01*
X118396Y540431D01*
X116250Y540858D01*
D02*
G37*
G36*
X20770Y536409D02*
Y527720D01*
X29459D01*
X29282Y529071D01*
X28270Y531513D01*
X26661Y533611D01*
X24563Y535220D01*
X22121Y536232D01*
X20770Y536409D01*
D02*
G37*
G36*
X18230D02*
X16879Y536232D01*
X14437Y535220D01*
X12339Y533611D01*
X10730Y531513D01*
X9718Y529071D01*
X9541Y527720D01*
X18230D01*
Y536409D01*
D02*
G37*
G36*
X268625Y536733D02*
X266479Y536306D01*
X264660Y535090D01*
X263444Y533271D01*
X263017Y531125D01*
X263444Y528979D01*
X264660Y527160D01*
X266479Y525944D01*
X268625Y525517D01*
X270771Y525944D01*
X272590Y527160D01*
X273806Y528979D01*
X274233Y531125D01*
X273806Y533271D01*
X272590Y535090D01*
X270771Y536306D01*
X268625Y536733D01*
D02*
G37*
G36*
X29459Y525180D02*
X20770D01*
Y516491D01*
X22121Y516668D01*
X24563Y517680D01*
X26661Y519289D01*
X28270Y521387D01*
X29282Y523829D01*
X29459Y525180D01*
D02*
G37*
G36*
X18230D02*
X9541D01*
X9718Y523829D01*
X10730Y521387D01*
X12339Y519289D01*
X14437Y517680D01*
X16879Y516668D01*
X18230Y516491D01*
Y525180D01*
D02*
G37*
G36*
X303000Y522858D02*
X300854Y522431D01*
X299035Y521215D01*
X297819Y519396D01*
X297392Y517250D01*
X297819Y515104D01*
X299035Y513285D01*
X300854Y512069D01*
X303000Y511642D01*
X305146Y512069D01*
X306965Y513285D01*
X308181Y515104D01*
X308608Y517250D01*
X308181Y519396D01*
X306965Y521215D01*
X305146Y522431D01*
X303000Y522858D01*
D02*
G37*
G36*
X313000Y513108D02*
X310854Y512681D01*
X309035Y511465D01*
X307819Y509646D01*
X307392Y507500D01*
X307819Y505354D01*
X309035Y503535D01*
X310854Y502319D01*
X313000Y501892D01*
X315146Y502319D01*
X316965Y503535D01*
X318181Y505354D01*
X318608Y507500D01*
X318181Y509646D01*
X316965Y511465D01*
X315146Y512681D01*
X313000Y513108D01*
D02*
G37*
G36*
X19500Y510632D02*
X17020Y510305D01*
X14709Y509348D01*
X12725Y507826D01*
X11202Y505841D01*
X10245Y503530D01*
X9918Y501050D01*
X10245Y498570D01*
X11202Y496259D01*
X12725Y494275D01*
X14709Y492752D01*
X17020Y491795D01*
X19500Y491468D01*
X21980Y491795D01*
X24291Y492752D01*
X26275Y494275D01*
X27798Y496259D01*
X28756Y498570D01*
X29082Y501050D01*
X28756Y503530D01*
X27798Y505841D01*
X26275Y507826D01*
X24291Y509348D01*
X21980Y510305D01*
X19500Y510632D01*
D02*
G37*
G36*
Y485232D02*
X17020Y484906D01*
X14709Y483948D01*
X12725Y482425D01*
X11202Y480441D01*
X10245Y478130D01*
X9918Y475650D01*
X10245Y473170D01*
X11202Y470859D01*
X12725Y468875D01*
X14709Y467352D01*
X17020Y466395D01*
X19500Y466068D01*
X21980Y466395D01*
X24291Y467352D01*
X26275Y468875D01*
X27798Y470859D01*
X28756Y473170D01*
X29082Y475650D01*
X28756Y478130D01*
X27798Y480441D01*
X26275Y482425D01*
X24291Y483948D01*
X21980Y484906D01*
X19500Y485232D01*
D02*
G37*
G36*
X126750Y472108D02*
X124604Y471681D01*
X122785Y470465D01*
X121569Y468646D01*
X121142Y466500D01*
X121569Y464354D01*
X122785Y462535D01*
X124604Y461319D01*
X126750Y460892D01*
X128896Y461319D01*
X130715Y462535D01*
X131931Y464354D01*
X132358Y466500D01*
X131931Y468646D01*
X130715Y470465D01*
X128896Y471681D01*
X126750Y472108D01*
D02*
G37*
G36*
X19500Y459832D02*
X17020Y459506D01*
X14709Y458548D01*
X12725Y457025D01*
X11202Y455041D01*
X10245Y452730D01*
X9918Y450250D01*
X10245Y447770D01*
X11202Y445459D01*
X12725Y443475D01*
X14709Y441952D01*
X17020Y440994D01*
X19500Y440668D01*
X21980Y440994D01*
X24291Y441952D01*
X26275Y443475D01*
X27798Y445459D01*
X28756Y447770D01*
X29082Y450250D01*
X28756Y452730D01*
X27798Y455041D01*
X26275Y457025D01*
X24291Y458548D01*
X21980Y459506D01*
X19500Y459832D01*
D02*
G37*
G36*
X258750Y442358D02*
X256604Y441931D01*
X254785Y440715D01*
X253569Y438896D01*
X253142Y436750D01*
X253569Y434604D01*
X254785Y432785D01*
X256604Y431569D01*
X258750Y431142D01*
X260896Y431569D01*
X262715Y432785D01*
X263931Y434604D01*
X264358Y436750D01*
X263931Y438896D01*
X262715Y440715D01*
X260896Y441931D01*
X258750Y442358D01*
D02*
G37*
G36*
X151220Y440260D02*
Y425870D01*
X159173D01*
Y431204D01*
X158859Y433591D01*
X157937Y435816D01*
X156472Y437726D01*
X154561Y439191D01*
X152337Y440113D01*
X151220Y440260D01*
D02*
G37*
G36*
X148680Y440260D02*
X147563Y440113D01*
X145338Y439191D01*
X143428Y437726D01*
X141963Y435816D01*
X141041Y433591D01*
X140727Y431204D01*
Y425870D01*
X148680D01*
Y440260D01*
D02*
G37*
G36*
X58270Y432349D02*
Y424870D01*
X65749D01*
X65613Y425908D01*
X64722Y428058D01*
X63305Y429905D01*
X61458Y431322D01*
X59308Y432212D01*
X58270Y432349D01*
D02*
G37*
G36*
X55730D02*
X54692Y432212D01*
X52542Y431322D01*
X50695Y429905D01*
X49278Y428058D01*
X48388Y425908D01*
X48251Y424870D01*
X55730D01*
Y432349D01*
D02*
G37*
G36*
X199500Y434858D02*
X197354Y434431D01*
X195535Y433215D01*
X194319Y431396D01*
X193892Y429250D01*
X194319Y427104D01*
X195535Y425285D01*
X197354Y424069D01*
X199500Y423642D01*
X201646Y424069D01*
X203465Y425285D01*
X204681Y427104D01*
X205108Y429250D01*
X204681Y431396D01*
X203465Y433215D01*
X201646Y434431D01*
X199500Y434858D01*
D02*
G37*
G36*
X185500Y434358D02*
X183354Y433931D01*
X181535Y432715D01*
X180319Y430896D01*
X179892Y428750D01*
X180319Y426604D01*
X181535Y424785D01*
X183354Y423569D01*
X185500Y423142D01*
X187646Y423569D01*
X189465Y424785D01*
X190681Y426604D01*
X191108Y428750D01*
X190681Y430896D01*
X189465Y432715D01*
X187646Y433931D01*
X185500Y434358D01*
D02*
G37*
G36*
X272750Y433358D02*
X270604Y432931D01*
X268785Y431715D01*
X267569Y429896D01*
X267142Y427750D01*
X267569Y425604D01*
X268785Y423785D01*
X270604Y422569D01*
X272750Y422142D01*
X274896Y422569D01*
X276715Y423785D01*
X277931Y425604D01*
X278358Y427750D01*
X277931Y429896D01*
X276715Y431715D01*
X274896Y432931D01*
X272750Y433358D01*
D02*
G37*
G36*
X82400Y431972D02*
X80233Y431686D01*
X78214Y430850D01*
X76480Y429520D01*
X75150Y427786D01*
X74314Y425767D01*
X74028Y423600D01*
X74314Y421433D01*
X75150Y419414D01*
X76480Y417680D01*
X78214Y416350D01*
X80233Y415514D01*
X82400Y415228D01*
X84567Y415514D01*
X86586Y416350D01*
X88320Y417680D01*
X89650Y419414D01*
X90486Y421433D01*
X90772Y423600D01*
X90486Y425767D01*
X89650Y427786D01*
X88320Y429520D01*
X86586Y430850D01*
X84567Y431686D01*
X82400Y431972D01*
D02*
G37*
G36*
X31600D02*
X29433Y431686D01*
X27414Y430850D01*
X25680Y429520D01*
X24350Y427786D01*
X23514Y425767D01*
X23228Y423600D01*
X23514Y421433D01*
X24350Y419414D01*
X25680Y417680D01*
X27414Y416350D01*
X29433Y415514D01*
X31600Y415228D01*
X33767Y415514D01*
X35786Y416350D01*
X37520Y417680D01*
X38850Y419414D01*
X39686Y421433D01*
X39972Y423600D01*
X39686Y425767D01*
X38850Y427786D01*
X37520Y429520D01*
X35786Y430850D01*
X33767Y431686D01*
X31600Y431972D01*
D02*
G37*
G36*
X65749Y422330D02*
X58270D01*
Y414851D01*
X59308Y414987D01*
X61458Y415878D01*
X63305Y417295D01*
X64722Y419142D01*
X65613Y421292D01*
X65749Y422330D01*
D02*
G37*
G36*
X55730D02*
X48251D01*
X48388Y421292D01*
X49278Y419142D01*
X50695Y417295D01*
X52542Y415878D01*
X54692Y414987D01*
X55730Y414851D01*
Y422330D01*
D02*
G37*
G36*
X124550Y439882D02*
X122304Y439586D01*
X120211Y438720D01*
X118414Y437341D01*
X117034Y435543D01*
X116167Y433450D01*
X115872Y431204D01*
Y417996D01*
X116167Y415750D01*
X117034Y413657D01*
X118414Y411860D01*
X120211Y410480D01*
X122304Y409613D01*
X124550Y409318D01*
X126796Y409613D01*
X128889Y410480D01*
X130686Y411860D01*
X132066Y413657D01*
X132933Y415750D01*
X133228Y417996D01*
Y431204D01*
X132933Y433450D01*
X132066Y435543D01*
X130686Y437341D01*
X128889Y438720D01*
X126796Y439586D01*
X124550Y439882D01*
D02*
G37*
G36*
X159173Y423330D02*
X151220D01*
Y408940D01*
X152337Y409087D01*
X154561Y410009D01*
X156472Y411474D01*
X157937Y413385D01*
X158859Y415609D01*
X159173Y417996D01*
Y423330D01*
D02*
G37*
G36*
X148680D02*
X140727D01*
Y417996D01*
X141041Y415609D01*
X141963Y413385D01*
X143428Y411474D01*
X145338Y410009D01*
X147563Y409087D01*
X148680Y408940D01*
Y423330D01*
D02*
G37*
%LPD*%
D59*
X57000Y423600D02*
D03*
D60*
X149950Y424600D02*
D03*
D63*
X19500Y526450D02*
D03*
X309250Y617100D02*
D03*
D65*
X63500Y625250D02*
D03*
D69*
X137000Y812500D02*
D03*
X37000D02*
D03*
D70*
X287000D02*
D03*
D71*
X163750Y488250D02*
D03*
X165250Y540250D02*
D03*
X307000Y486500D02*
D03*
X214250Y428250D02*
D03*
M02*
