G04*
G04 #@! TF.GenerationSoftware,Altium Limited,Altium Designer,20.0.13 (296)*
G04*
G04 Layer_Physical_Order=4*
G04 Layer_Color=16711680*
%FSLAX44Y44*%
%MOMM*%
G71*
G01*
G75*
%ADD10C,0.2000*%
%ADD52C,0.3000*%
%ADD54C,2.0000*%
%ADD56C,1.8000*%
%ADD57C,2.2000*%
%ADD58R,1.2600X1.2600*%
%ADD59C,1.2600*%
%ADD60O,1.3208X2.6416*%
%ADD61R,1.3208X2.6416*%
%ADD62R,1.5000X1.5000*%
%ADD63C,1.5000*%
%ADD64R,1.5080X1.5080*%
%ADD65C,1.5080*%
%ADD66C,1.9100*%
%ADD67R,1.9100X1.9100*%
%ADD68C,1.2000*%
%ADD69R,2.1000X2.1000*%
%ADD70C,2.1000*%
%ADD71C,0.7000*%
G36*
X324941Y404500D02*
X3059D01*
Y865941D01*
X324941D01*
Y404500D01*
D02*
G37*
G36*
X321883Y6118D02*
X6118D01*
Y384500D01*
X321883D01*
Y6118D01*
D02*
G37*
%LPC*%
G36*
X288270Y825485D02*
Y813770D01*
X299985D01*
X299704Y815904D01*
X298390Y819076D01*
X296300Y821800D01*
X293576Y823890D01*
X290404Y825204D01*
X288270Y825485D01*
D02*
G37*
G36*
X285730D02*
X283596Y825204D01*
X280424Y823890D01*
X277700Y821800D01*
X275610Y819076D01*
X274296Y815904D01*
X274015Y813770D01*
X285730D01*
Y825485D01*
D02*
G37*
G36*
X150040Y825540D02*
X138270D01*
Y813770D01*
X150040D01*
Y825540D01*
D02*
G37*
G36*
X135730D02*
X123960D01*
Y813770D01*
X135730D01*
Y825540D01*
D02*
G37*
G36*
X50040D02*
X38270D01*
Y813770D01*
X50040D01*
Y825540D01*
D02*
G37*
G36*
X35730D02*
X23960D01*
Y813770D01*
X35730D01*
Y825540D01*
D02*
G37*
G36*
X249500Y825000D02*
X224500D01*
Y800000D01*
X249500D01*
Y825000D01*
D02*
G37*
G36*
X187000Y825108D02*
X183737Y824678D01*
X180696Y823419D01*
X178085Y821415D01*
X176081Y818804D01*
X174822Y815763D01*
X174392Y812500D01*
X174822Y809237D01*
X176081Y806196D01*
X178085Y803585D01*
X180696Y801581D01*
X183737Y800322D01*
X187000Y799892D01*
X190263Y800322D01*
X193304Y801581D01*
X195915Y803585D01*
X197919Y806196D01*
X199178Y809237D01*
X199608Y812500D01*
X199178Y815763D01*
X197919Y818804D01*
X195915Y821415D01*
X193304Y823419D01*
X190263Y824678D01*
X187000Y825108D01*
D02*
G37*
G36*
X87000D02*
X83737Y824678D01*
X80696Y823419D01*
X78085Y821415D01*
X76081Y818804D01*
X74822Y815763D01*
X74392Y812500D01*
X74822Y809237D01*
X76081Y806196D01*
X78085Y803585D01*
X80696Y801581D01*
X83737Y800322D01*
X87000Y799892D01*
X90263Y800322D01*
X93304Y801581D01*
X95915Y803585D01*
X97919Y806196D01*
X99178Y809237D01*
X99608Y812500D01*
X99178Y815763D01*
X97919Y818804D01*
X95915Y821415D01*
X93304Y823419D01*
X90263Y824678D01*
X87000Y825108D01*
D02*
G37*
G36*
X299985Y811230D02*
X288270D01*
Y799515D01*
X290404Y799796D01*
X293576Y801110D01*
X296300Y803200D01*
X298390Y805924D01*
X299704Y809096D01*
X299985Y811230D01*
D02*
G37*
G36*
X285730D02*
X274015D01*
X274296Y809096D01*
X275610Y805924D01*
X277700Y803200D01*
X280424Y801110D01*
X283596Y799796D01*
X285730Y799515D01*
Y811230D01*
D02*
G37*
G36*
X150040D02*
X138270D01*
Y799460D01*
X150040D01*
Y811230D01*
D02*
G37*
G36*
X135730D02*
X123960D01*
Y799460D01*
X135730D01*
Y811230D01*
D02*
G37*
G36*
X50040D02*
X38270D01*
Y799460D01*
X50040D01*
Y811230D01*
D02*
G37*
G36*
X35730D02*
X23960D01*
Y799460D01*
X35730D01*
Y811230D01*
D02*
G37*
G36*
X207000Y694108D02*
X204854Y693681D01*
X203035Y692465D01*
X201819Y690646D01*
X201392Y688500D01*
X201482Y688047D01*
X201481Y688037D01*
X201501Y687720D01*
X201500Y687496D01*
X201485Y687302D01*
X201459Y687137D01*
X201424Y686998D01*
X201383Y686882D01*
X201337Y686782D01*
X201285Y686694D01*
X201271Y686675D01*
X197337Y682741D01*
X196674Y681749D01*
X196441Y680578D01*
X196441Y680578D01*
Y632267D01*
X170087Y605913D01*
X169424Y604921D01*
X169191Y603750D01*
X169191Y603750D01*
Y574500D01*
X169191Y574500D01*
X169424Y573330D01*
X170087Y572337D01*
X196441Y545983D01*
Y434509D01*
X196437Y434480D01*
X196409Y434362D01*
X196366Y434235D01*
X196305Y434097D01*
X196222Y433945D01*
X196115Y433779D01*
X195980Y433599D01*
X195817Y433408D01*
X195805Y433396D01*
X195535Y433215D01*
X194319Y431396D01*
X193892Y429250D01*
X194319Y427104D01*
X195535Y425285D01*
X197354Y424069D01*
X199500Y423642D01*
X201646Y424069D01*
X203465Y425285D01*
X204681Y427104D01*
X205108Y429250D01*
X204681Y431396D01*
X203465Y433215D01*
X203195Y433396D01*
X203183Y433408D01*
X203020Y433599D01*
X202885Y433779D01*
X202778Y433945D01*
X202695Y434097D01*
X202634Y434235D01*
X202591Y434362D01*
X202563Y434480D01*
X202559Y434509D01*
Y547250D01*
X202559Y547250D01*
X202326Y548420D01*
X201663Y549413D01*
X201663Y549413D01*
X175309Y575767D01*
Y602483D01*
X201663Y628837D01*
X201663Y628837D01*
X202326Y629829D01*
X202559Y631000D01*
X202559Y631000D01*
Y679311D01*
X205737Y682489D01*
X205763Y682509D01*
X205880Y682584D01*
X206019Y682656D01*
X206182Y682727D01*
X206372Y682792D01*
X206562Y682844D01*
X206918Y682908D01*
X207000Y682892D01*
X207424Y682977D01*
X207465Y682981D01*
X207504Y682992D01*
X209146Y683319D01*
X210965Y684535D01*
X212181Y686354D01*
X212608Y688500D01*
X212181Y690646D01*
X210965Y692465D01*
X209146Y693681D01*
X207000Y694108D01*
D02*
G37*
G36*
X284500Y670108D02*
X282354Y669681D01*
X280535Y668465D01*
X279319Y666646D01*
X278892Y664500D01*
X279319Y662354D01*
X280535Y660535D01*
X282354Y659319D01*
X284500Y658892D01*
X286646Y659319D01*
X288465Y660535D01*
X289681Y662354D01*
X290108Y664500D01*
X289681Y666646D01*
X288465Y668465D01*
X286646Y669681D01*
X284500Y670108D01*
D02*
G37*
G36*
X309250Y677482D02*
X306770Y677156D01*
X304459Y676198D01*
X302475Y674676D01*
X300952Y672691D01*
X299995Y670380D01*
X299668Y667900D01*
X299995Y665420D01*
X300952Y663109D01*
X302475Y661125D01*
X304459Y659602D01*
X306770Y658645D01*
X309250Y658318D01*
X311730Y658645D01*
X314041Y659602D01*
X316026Y661125D01*
X317548Y663109D01*
X318505Y665420D01*
X318832Y667900D01*
X318505Y670380D01*
X317548Y672691D01*
X316026Y674676D01*
X314041Y676198D01*
X311730Y677156D01*
X309250Y677482D01*
D02*
G37*
G36*
Y652082D02*
X306770Y651756D01*
X304459Y650798D01*
X302475Y649276D01*
X300952Y647291D01*
X299995Y644980D01*
X299668Y642500D01*
X299995Y640020D01*
X300952Y637709D01*
X302475Y635725D01*
X304459Y634202D01*
X306770Y633245D01*
X309250Y632918D01*
X311730Y633245D01*
X314041Y634202D01*
X316026Y635725D01*
X317548Y637709D01*
X318505Y640020D01*
X318832Y642500D01*
X318505Y644980D01*
X317548Y647291D01*
X316026Y649276D01*
X314041Y650798D01*
X311730Y651756D01*
X309250Y652082D01*
D02*
G37*
G36*
X64770Y635250D02*
Y626520D01*
X73500D01*
X73320Y627881D01*
X72305Y630334D01*
X70689Y632439D01*
X68583Y634055D01*
X66131Y635070D01*
X64770Y635250D01*
D02*
G37*
G36*
X62230Y635250D02*
X60869Y635070D01*
X58417Y634055D01*
X56311Y632439D01*
X54695Y630334D01*
X53679Y627881D01*
X53500Y626520D01*
X62230D01*
Y635250D01*
D02*
G37*
G36*
X310520Y627059D02*
Y618370D01*
X319209D01*
X319032Y619721D01*
X318020Y622163D01*
X316411Y624261D01*
X314313Y625870D01*
X311871Y626882D01*
X310520Y627059D01*
D02*
G37*
G36*
X307980D02*
X306629Y626882D01*
X304187Y625870D01*
X302089Y624261D01*
X300480Y622163D01*
X299468Y619721D01*
X299291Y618370D01*
X307980D01*
Y627059D01*
D02*
G37*
G36*
X98440Y634790D02*
X79360D01*
Y615710D01*
X98440D01*
Y634790D01*
D02*
G37*
G36*
X38100Y634872D02*
X35610Y634544D01*
X33289Y633583D01*
X31296Y632054D01*
X29767Y630061D01*
X28806Y627741D01*
X28478Y625250D01*
X28806Y622760D01*
X29767Y620439D01*
X31296Y618446D01*
X33289Y616917D01*
X35610Y615956D01*
X38100Y615628D01*
X40590Y615956D01*
X42911Y616917D01*
X44904Y618446D01*
X46433Y620439D01*
X47394Y622760D01*
X47722Y625250D01*
X47394Y627741D01*
X46433Y630061D01*
X44904Y632054D01*
X42911Y633583D01*
X40590Y634544D01*
X38100Y634872D01*
D02*
G37*
G36*
X73500Y623980D02*
X64770D01*
Y615250D01*
X66131Y615429D01*
X68583Y616445D01*
X70689Y618061D01*
X72305Y620167D01*
X73320Y622619D01*
X73500Y623980D01*
D02*
G37*
G36*
X62230D02*
X53500D01*
X53679Y622619D01*
X54695Y620167D01*
X56311Y618061D01*
X58417Y616445D01*
X60869Y615429D01*
X62230Y615250D01*
Y623980D01*
D02*
G37*
G36*
X319209Y615830D02*
X310520D01*
Y607141D01*
X311871Y607318D01*
X314313Y608330D01*
X316411Y609939D01*
X318020Y612037D01*
X319032Y614479D01*
X319209Y615830D01*
D02*
G37*
G36*
X307980D02*
X299291D01*
X299468Y614479D01*
X300480Y612037D01*
X302089Y609939D01*
X304187Y608330D01*
X306629Y607318D01*
X307980Y607141D01*
Y615830D01*
D02*
G37*
G36*
X309250Y601282D02*
X306770Y600956D01*
X304459Y599998D01*
X302475Y598475D01*
X300952Y596491D01*
X299995Y594180D01*
X299668Y591700D01*
X299995Y589220D01*
X300952Y586909D01*
X302475Y584925D01*
X304459Y583402D01*
X306770Y582445D01*
X309250Y582118D01*
X311730Y582445D01*
X314041Y583402D01*
X316026Y584925D01*
X317548Y586909D01*
X318505Y589220D01*
X318832Y591700D01*
X318505Y594180D01*
X317548Y596491D01*
X316026Y598475D01*
X314041Y599998D01*
X311730Y600956D01*
X309250Y601282D01*
D02*
G37*
G36*
X143500Y583108D02*
X141354Y582681D01*
X139535Y581465D01*
X138319Y579646D01*
X137892Y577500D01*
X138319Y575354D01*
X139535Y573535D01*
X141354Y572319D01*
X143500Y571892D01*
X145646Y572319D01*
X147465Y573535D01*
X148681Y575354D01*
X149108Y577500D01*
X148681Y579646D01*
X147465Y581465D01*
X145646Y582681D01*
X143500Y583108D01*
D02*
G37*
G36*
X267750Y571858D02*
X265604Y571431D01*
X263785Y570215D01*
X262569Y568396D01*
X262142Y566250D01*
X262569Y564104D01*
X263785Y562285D01*
X265604Y561069D01*
X267750Y560642D01*
X269896Y561069D01*
X271715Y562285D01*
X272931Y564104D01*
X273358Y566250D01*
X272931Y568396D01*
X271715Y570215D01*
X269896Y571431D01*
X267750Y571858D01*
D02*
G37*
G36*
X318750Y575800D02*
X299750D01*
Y556800D01*
X318750D01*
Y575800D01*
D02*
G37*
G36*
X29000Y561350D02*
X10000D01*
Y542350D01*
X29000D01*
Y561350D01*
D02*
G37*
G36*
X116250Y540858D02*
X114104Y540431D01*
X112285Y539215D01*
X111069Y537396D01*
X110642Y535250D01*
X111069Y533104D01*
X112285Y531285D01*
X114104Y530069D01*
X116250Y529642D01*
X118396Y530069D01*
X120215Y531285D01*
X121431Y533104D01*
X121858Y535250D01*
X121431Y537396D01*
X120215Y539215D01*
X118396Y540431D01*
X116250Y540858D01*
D02*
G37*
G36*
X20770Y536409D02*
Y527720D01*
X29459D01*
X29282Y529071D01*
X28270Y531513D01*
X26661Y533611D01*
X24563Y535220D01*
X22121Y536232D01*
X20770Y536409D01*
D02*
G37*
G36*
X18230D02*
X16879Y536232D01*
X14437Y535220D01*
X12339Y533611D01*
X10730Y531513D01*
X9718Y529071D01*
X9541Y527720D01*
X18230D01*
Y536409D01*
D02*
G37*
G36*
X29459Y525180D02*
X20770D01*
Y516491D01*
X22121Y516668D01*
X24563Y517680D01*
X26661Y519289D01*
X28270Y521387D01*
X29282Y523829D01*
X29459Y525180D01*
D02*
G37*
G36*
X18230D02*
X9541D01*
X9718Y523829D01*
X10730Y521387D01*
X12339Y519289D01*
X14437Y517680D01*
X16879Y516668D01*
X18230Y516491D01*
Y525180D01*
D02*
G37*
G36*
X187000Y595108D02*
X184854Y594681D01*
X183035Y593465D01*
X181819Y591646D01*
X181392Y589500D01*
X181819Y587354D01*
X183035Y585535D01*
X184854Y584319D01*
X187000Y583892D01*
X189146Y584319D01*
X190965Y585535D01*
X191146Y585805D01*
X191158Y585817D01*
X191349Y585980D01*
X191529Y586115D01*
X191695Y586222D01*
X191847Y586305D01*
X191985Y586366D01*
X192112Y586409D01*
X192230Y586437D01*
X192258Y586441D01*
X207733D01*
X279087Y515087D01*
X279087Y515087D01*
X280079Y514424D01*
X281250Y514191D01*
X281250Y514191D01*
X297742D01*
X297770Y514187D01*
X297888Y514159D01*
X298015Y514116D01*
X298153Y514055D01*
X298305Y513972D01*
X298471Y513865D01*
X298651Y513731D01*
X298842Y513567D01*
X298854Y513555D01*
X299035Y513285D01*
X300854Y512069D01*
X303000Y511642D01*
X305146Y512069D01*
X306965Y513285D01*
X308181Y515104D01*
X308608Y517250D01*
X308181Y519396D01*
X306965Y521215D01*
X305146Y522431D01*
X303000Y522858D01*
X300854Y522431D01*
X299035Y521215D01*
X298854Y520945D01*
X298842Y520933D01*
X298651Y520770D01*
X298471Y520635D01*
X298305Y520528D01*
X298153Y520445D01*
X298015Y520384D01*
X297888Y520341D01*
X297770Y520313D01*
X297742Y520309D01*
X282517D01*
X211163Y591663D01*
X210170Y592326D01*
X209000Y592559D01*
X209000Y592559D01*
X192258D01*
X192230Y592563D01*
X192112Y592591D01*
X191985Y592634D01*
X191847Y592695D01*
X191695Y592778D01*
X191529Y592885D01*
X191349Y593019D01*
X191158Y593183D01*
X191146Y593195D01*
X190965Y593465D01*
X189146Y594681D01*
X187000Y595108D01*
D02*
G37*
G36*
X313000Y513108D02*
X310854Y512681D01*
X309035Y511465D01*
X307819Y509646D01*
X307392Y507500D01*
X307819Y505354D01*
X309035Y503535D01*
X310854Y502319D01*
X313000Y501892D01*
X315146Y502319D01*
X316965Y503535D01*
X318181Y505354D01*
X318608Y507500D01*
X318181Y509646D01*
X316965Y511465D01*
X315146Y512681D01*
X313000Y513108D01*
D02*
G37*
G36*
X19500Y510632D02*
X17020Y510305D01*
X14709Y509348D01*
X12725Y507826D01*
X11202Y505841D01*
X10245Y503530D01*
X9918Y501050D01*
X10245Y498570D01*
X11202Y496259D01*
X12725Y494275D01*
X14709Y492752D01*
X17020Y491795D01*
X19500Y491468D01*
X21980Y491795D01*
X24291Y492752D01*
X26275Y494275D01*
X27798Y496259D01*
X28756Y498570D01*
X29082Y501050D01*
X28756Y503530D01*
X27798Y505841D01*
X26275Y507826D01*
X24291Y509348D01*
X21980Y510305D01*
X19500Y510632D01*
D02*
G37*
G36*
Y485232D02*
X17020Y484906D01*
X14709Y483948D01*
X12725Y482425D01*
X11202Y480441D01*
X10245Y478130D01*
X9918Y475650D01*
X10245Y473170D01*
X11202Y470859D01*
X12725Y468875D01*
X14709Y467352D01*
X17020Y466395D01*
X19500Y466068D01*
X21980Y466395D01*
X24291Y467352D01*
X26275Y468875D01*
X27798Y470859D01*
X28756Y473170D01*
X29082Y475650D01*
X28756Y478130D01*
X27798Y480441D01*
X26275Y482425D01*
X24291Y483948D01*
X21980Y484906D01*
X19500Y485232D01*
D02*
G37*
G36*
X126750Y472108D02*
X124604Y471681D01*
X122785Y470465D01*
X121569Y468646D01*
X121142Y466500D01*
X121569Y464354D01*
X122785Y462535D01*
X124604Y461319D01*
X126750Y460892D01*
X128896Y461319D01*
X130715Y462535D01*
X131931Y464354D01*
X132358Y466500D01*
X131931Y468646D01*
X130715Y470465D01*
X128896Y471681D01*
X126750Y472108D01*
D02*
G37*
G36*
X19500Y459832D02*
X17020Y459506D01*
X14709Y458548D01*
X12725Y457025D01*
X11202Y455041D01*
X10245Y452730D01*
X9918Y450250D01*
X10245Y447770D01*
X11202Y445459D01*
X12725Y443475D01*
X14709Y441952D01*
X17020Y440994D01*
X19500Y440668D01*
X21980Y440994D01*
X24291Y441952D01*
X26275Y443475D01*
X27798Y445459D01*
X28756Y447770D01*
X29082Y450250D01*
X28756Y452730D01*
X27798Y455041D01*
X26275Y457025D01*
X24291Y458548D01*
X21980Y459506D01*
X19500Y459832D01*
D02*
G37*
G36*
X258750Y442358D02*
X256604Y441931D01*
X254785Y440715D01*
X253569Y438896D01*
X253142Y436750D01*
X253569Y434604D01*
X254785Y432785D01*
X256604Y431569D01*
X258750Y431142D01*
X260896Y431569D01*
X262715Y432785D01*
X263931Y434604D01*
X264358Y436750D01*
X263931Y438896D01*
X262715Y440715D01*
X260896Y441931D01*
X258750Y442358D01*
D02*
G37*
G36*
X151220Y440260D02*
Y425870D01*
X159173D01*
Y431204D01*
X158859Y433591D01*
X157937Y435816D01*
X156472Y437726D01*
X154561Y439191D01*
X152337Y440113D01*
X151220Y440260D01*
D02*
G37*
G36*
X148680Y440260D02*
X147563Y440113D01*
X145338Y439191D01*
X143428Y437726D01*
X141963Y435816D01*
X141041Y433591D01*
X140727Y431204D01*
Y425870D01*
X148680D01*
Y440260D01*
D02*
G37*
G36*
X58270Y432349D02*
Y424870D01*
X65749D01*
X65613Y425908D01*
X64722Y428058D01*
X63305Y429905D01*
X61458Y431322D01*
X59308Y432212D01*
X58270Y432349D01*
D02*
G37*
G36*
X55730D02*
X54692Y432212D01*
X52542Y431322D01*
X50695Y429905D01*
X49278Y428058D01*
X48388Y425908D01*
X48251Y424870D01*
X55730D01*
Y432349D01*
D02*
G37*
G36*
X185500Y434358D02*
X183354Y433931D01*
X181535Y432715D01*
X180319Y430896D01*
X179892Y428750D01*
X180319Y426604D01*
X181535Y424785D01*
X181931Y424520D01*
Y424007D01*
X182203Y422642D01*
X182977Y421484D01*
X191234Y413227D01*
X192392Y412453D01*
X193757Y412181D01*
X260750D01*
X262116Y412453D01*
X263273Y413227D01*
X271898Y421851D01*
X272029Y421948D01*
X272167Y422037D01*
X272288Y422102D01*
X272393Y422148D01*
X272483Y422178D01*
X272522Y422188D01*
X272750Y422142D01*
X274896Y422569D01*
X276715Y423785D01*
X277931Y425604D01*
X278358Y427750D01*
X277931Y429896D01*
X276715Y431715D01*
X274896Y432931D01*
X272750Y433358D01*
X270604Y432931D01*
X268785Y431715D01*
X267569Y429896D01*
X267142Y427750D01*
X267188Y427522D01*
X267178Y427483D01*
X267148Y427393D01*
X267102Y427288D01*
X267036Y427166D01*
X266948Y427029D01*
X266851Y426898D01*
X259272Y419319D01*
X195236D01*
X189587Y424967D01*
X190681Y426604D01*
X191108Y428750D01*
X190681Y430896D01*
X189465Y432715D01*
X187646Y433931D01*
X185500Y434358D01*
D02*
G37*
G36*
X90700Y431900D02*
X74100D01*
Y415300D01*
X90700D01*
Y431900D01*
D02*
G37*
G36*
X31600Y431972D02*
X29433Y431686D01*
X27414Y430850D01*
X25680Y429520D01*
X24350Y427786D01*
X23514Y425767D01*
X23228Y423600D01*
X23514Y421433D01*
X24350Y419414D01*
X25680Y417680D01*
X27414Y416350D01*
X29433Y415514D01*
X31600Y415228D01*
X33767Y415514D01*
X35786Y416350D01*
X37520Y417680D01*
X38850Y419414D01*
X39686Y421433D01*
X39972Y423600D01*
X39686Y425767D01*
X38850Y427786D01*
X37520Y429520D01*
X35786Y430850D01*
X33767Y431686D01*
X31600Y431972D01*
D02*
G37*
G36*
X65749Y422330D02*
X58270D01*
Y414851D01*
X59308Y414987D01*
X61458Y415878D01*
X63305Y417295D01*
X64722Y419142D01*
X65613Y421292D01*
X65749Y422330D01*
D02*
G37*
G36*
X55730D02*
X48251D01*
X48388Y421292D01*
X49278Y419142D01*
X50695Y417295D01*
X52542Y415878D01*
X54692Y414987D01*
X55730Y414851D01*
Y422330D01*
D02*
G37*
G36*
X124550Y439882D02*
X122304Y439586D01*
X120211Y438720D01*
X118414Y437341D01*
X117034Y435543D01*
X116167Y433450D01*
X115872Y431204D01*
Y417996D01*
X116167Y415750D01*
X117034Y413657D01*
X118414Y411860D01*
X120211Y410480D01*
X122304Y409613D01*
X124550Y409318D01*
X126796Y409613D01*
X128889Y410480D01*
X130686Y411860D01*
X132066Y413657D01*
X132933Y415750D01*
X133228Y417996D01*
Y431204D01*
X132933Y433450D01*
X132066Y435543D01*
X130686Y437341D01*
X128889Y438720D01*
X126796Y439586D01*
X124550Y439882D01*
D02*
G37*
G36*
X159173Y423330D02*
X151220D01*
Y408940D01*
X152337Y409087D01*
X154561Y410009D01*
X156472Y411474D01*
X157937Y413385D01*
X158859Y415609D01*
X159173Y417996D01*
Y423330D01*
D02*
G37*
G36*
X148680D02*
X140727D01*
Y417996D01*
X141041Y415609D01*
X141963Y413385D01*
X143428Y411474D01*
X145338Y410009D01*
X147563Y409087D01*
X148680Y408940D01*
Y423330D01*
D02*
G37*
%LPD*%
G36*
X207263Y685010D02*
X206859Y684970D01*
X206111Y684835D01*
X205767Y684741D01*
X205444Y684629D01*
X205141Y684499D01*
X204859Y684351D01*
X204597Y684185D01*
X204356Y684001D01*
X204135Y683799D01*
X202594Y685087D01*
X202803Y685317D01*
X202986Y685565D01*
X203143Y685830D01*
X203274Y686112D01*
X203380Y686412D01*
X203459Y686728D01*
X203512Y687062D01*
X203539Y687413D01*
X203540Y687782D01*
X203516Y688167D01*
X207263Y685010D01*
D02*
G37*
G36*
X200515Y434399D02*
X200558Y434095D01*
X200630Y433794D01*
X200732Y433495D01*
X200863Y433199D01*
X201022Y432904D01*
X201210Y432612D01*
X201428Y432323D01*
X201674Y432035D01*
X201950Y431749D01*
X197050D01*
X197325Y432035D01*
X197572Y432323D01*
X197789Y432612D01*
X197978Y432904D01*
X198137Y433199D01*
X198268Y433495D01*
X198370Y433794D01*
X198442Y434095D01*
X198486Y434399D01*
X198500Y434704D01*
X200500D01*
X200515Y434399D01*
D02*
G37*
G36*
X189785Y591674D02*
X190072Y591428D01*
X190362Y591211D01*
X190655Y591022D01*
X190949Y590863D01*
X191245Y590732D01*
X191544Y590630D01*
X191845Y590558D01*
X192149Y590514D01*
X192454Y590500D01*
Y588500D01*
X192149Y588485D01*
X191845Y588442D01*
X191544Y588369D01*
X191245Y588268D01*
X190949Y588138D01*
X190655Y587978D01*
X190362Y587789D01*
X190072Y587572D01*
X189785Y587326D01*
X189499Y587050D01*
Y591950D01*
X189785Y591674D01*
D02*
G37*
G36*
X300501Y514800D02*
X300215Y515075D01*
X299928Y515322D01*
X299638Y515540D01*
X299346Y515728D01*
X299051Y515887D01*
X298755Y516018D01*
X298456Y516119D01*
X298155Y516192D01*
X297851Y516236D01*
X297546Y516250D01*
Y518250D01*
X297851Y518265D01*
X298155Y518308D01*
X298456Y518381D01*
X298755Y518482D01*
X299051Y518613D01*
X299346Y518772D01*
X299638Y518960D01*
X299928Y519178D01*
X300215Y519425D01*
X300501Y519700D01*
Y514800D01*
D02*
G37*
G36*
X272715Y424250D02*
X272449Y424240D01*
X272184Y424203D01*
X271920Y424140D01*
X271656Y424052D01*
X271394Y423936D01*
X271131Y423795D01*
X270870Y423628D01*
X270609Y423434D01*
X270349Y423214D01*
X270090Y422968D01*
X267968Y425090D01*
X268214Y425349D01*
X268434Y425609D01*
X268628Y425870D01*
X268795Y426131D01*
X268936Y426394D01*
X269051Y426656D01*
X269140Y426920D01*
X269203Y427184D01*
X269240Y427449D01*
X269250Y427715D01*
X272715Y424250D01*
D02*
G37*
%LPC*%
G36*
X287750Y376371D02*
X284095Y375890D01*
X280690Y374479D01*
X277765Y372235D01*
X275521Y369310D01*
X274110Y365905D01*
X273629Y362250D01*
X274110Y358595D01*
X275521Y355190D01*
X277765Y352265D01*
X280690Y350021D01*
X284095Y348610D01*
X287750Y348129D01*
X291405Y348610D01*
X294810Y350021D01*
X297735Y352265D01*
X299979Y355190D01*
X301390Y358595D01*
X301871Y362250D01*
X301390Y365905D01*
X299979Y369310D01*
X297735Y372235D01*
X294810Y374479D01*
X291405Y375890D01*
X287750Y376371D01*
D02*
G37*
G36*
X82400Y358797D02*
X79450Y358409D01*
X76701Y357271D01*
X74341Y355459D01*
X72530Y353099D01*
X71391Y350350D01*
X71003Y347400D01*
X71391Y344450D01*
X72530Y341701D01*
X74341Y339341D01*
X76701Y337529D01*
X79450Y336391D01*
X82400Y336003D01*
X85350Y336391D01*
X88099Y337529D01*
X90459Y339341D01*
X92271Y341701D01*
X93409Y344450D01*
X93798Y347400D01*
X93409Y350350D01*
X92271Y353099D01*
X90459Y355459D01*
X88099Y357271D01*
X85350Y358409D01*
X82400Y358797D01*
D02*
G37*
G36*
X57000D02*
X54050Y358409D01*
X51301Y357271D01*
X48941Y355459D01*
X47130Y353099D01*
X45991Y350350D01*
X45603Y347400D01*
X45991Y344450D01*
X47130Y341701D01*
X48941Y339341D01*
X51301Y337529D01*
X54050Y336391D01*
X57000Y336003D01*
X59950Y336391D01*
X62699Y337529D01*
X65059Y339341D01*
X66871Y341701D01*
X68009Y344450D01*
X68397Y347400D01*
X68009Y350350D01*
X66871Y353099D01*
X65059Y355459D01*
X62699Y357271D01*
X59950Y358409D01*
X57000Y358797D01*
D02*
G37*
G36*
X31600D02*
X28650Y358409D01*
X25901Y357271D01*
X23541Y355459D01*
X21730Y353099D01*
X20591Y350350D01*
X20203Y347400D01*
X20591Y344450D01*
X21730Y341701D01*
X23541Y339341D01*
X25901Y337529D01*
X28650Y336391D01*
X31600Y336003D01*
X34550Y336391D01*
X37299Y337529D01*
X39659Y339341D01*
X41471Y341701D01*
X42609Y344450D01*
X42997Y347400D01*
X42609Y350350D01*
X41471Y353099D01*
X39659Y355459D01*
X37299Y357271D01*
X34550Y358409D01*
X31600Y358797D01*
D02*
G37*
G36*
X136154Y366608D02*
X112946D01*
Y330192D01*
X136154D01*
Y366608D01*
D02*
G37*
G36*
X149950Y366708D02*
X146921Y366309D01*
X144098Y365140D01*
X141674Y363280D01*
X139814Y360856D01*
X138645Y358033D01*
X138246Y355004D01*
Y341796D01*
X138645Y338767D01*
X139814Y335944D01*
X141674Y333520D01*
X144098Y331660D01*
X146921Y330491D01*
X149950Y330092D01*
X152979Y330491D01*
X155802Y331660D01*
X157172Y332711D01*
X158363Y332024D01*
X158129Y330250D01*
X158610Y326595D01*
X160021Y323190D01*
X162265Y320265D01*
X165190Y318021D01*
X168595Y316610D01*
X172250Y316129D01*
X175905Y316610D01*
X179310Y318021D01*
X182235Y320265D01*
X184479Y323190D01*
X185890Y326595D01*
X186371Y330250D01*
X185890Y333905D01*
X184479Y337310D01*
X182235Y340235D01*
X179310Y342479D01*
X175905Y343890D01*
X172250Y344371D01*
X168595Y343890D01*
X165190Y342479D01*
X162782Y340631D01*
X161591Y341319D01*
X161654Y341796D01*
Y355004D01*
X161255Y358033D01*
X160086Y360856D01*
X158226Y363280D01*
X155802Y365140D01*
X152979Y366309D01*
X149950Y366708D01*
D02*
G37*
G36*
X224250Y345323D02*
X221310Y345033D01*
X218482Y344175D01*
X215876Y342782D01*
X213592Y340908D01*
X211718Y338624D01*
X210325Y336018D01*
X209467Y333190D01*
X209177Y330250D01*
Y316709D01*
X206291Y313823D01*
X78750D01*
X75809Y313533D01*
X72982Y312675D01*
X70376Y311282D01*
X68092Y309408D01*
X52592Y293908D01*
X50718Y291624D01*
X49325Y289018D01*
X48467Y286190D01*
X48177Y283250D01*
Y265101D01*
X47038Y264539D01*
X45188Y265959D01*
X41648Y267425D01*
X37850Y267925D01*
X34052Y267425D01*
X30512Y265959D01*
X27473Y263627D01*
X25141Y260588D01*
X23674Y257048D01*
X23175Y253250D01*
X23674Y249452D01*
X25141Y245912D01*
X27473Y242873D01*
X30512Y240541D01*
X34052Y239074D01*
X37850Y238575D01*
X41648Y239074D01*
X45188Y240541D01*
X48227Y242873D01*
X49569Y244621D01*
X51052Y244468D01*
X52592Y242592D01*
X54876Y240718D01*
X57482Y239325D01*
X60310Y238467D01*
X63250Y238177D01*
X66191Y238467D01*
X69018Y239325D01*
X71624Y240718D01*
X72830Y241707D01*
X74100Y241107D01*
Y238700D01*
X103200D01*
Y267800D01*
X78323D01*
Y277007D01*
X84993Y283677D01*
X212534D01*
X215475Y283967D01*
X218302Y284825D01*
X220908Y286218D01*
X223192Y288092D01*
X234908Y299808D01*
X236782Y302092D01*
X238175Y304698D01*
X239033Y307525D01*
X239323Y310466D01*
Y330250D01*
X239033Y333190D01*
X238175Y336018D01*
X236782Y338624D01*
X234908Y340908D01*
X232624Y342782D01*
X230018Y344175D01*
X227190Y345033D01*
X224250Y345323D01*
D02*
G37*
G36*
X245250Y275595D02*
X242378Y275217D01*
X239703Y274109D01*
X237405Y272345D01*
X235641Y270047D01*
X234533Y267372D01*
X234155Y264500D01*
X234533Y261628D01*
X235641Y258953D01*
X237405Y256655D01*
X239703Y254891D01*
X242378Y253783D01*
X245250Y253405D01*
X248122Y253783D01*
X250797Y254891D01*
X253095Y256655D01*
X254858Y258953D01*
X255967Y261628D01*
X256345Y264500D01*
X255967Y267372D01*
X254858Y270047D01*
X253095Y272345D01*
X250797Y274109D01*
X248122Y275217D01*
X245250Y275595D01*
D02*
G37*
G36*
X141250D02*
X138378Y275217D01*
X135703Y274109D01*
X133405Y272345D01*
X131642Y270047D01*
X130533Y267372D01*
X130155Y264500D01*
X130533Y261628D01*
X131642Y258953D01*
X133405Y256655D01*
X135703Y254891D01*
X138378Y253783D01*
X141250Y253405D01*
X144122Y253783D01*
X146797Y254891D01*
X149095Y256655D01*
X150858Y258953D01*
X151967Y261628D01*
X152345Y264500D01*
X151967Y267372D01*
X150858Y270047D01*
X149095Y272345D01*
X146797Y274109D01*
X144122Y275217D01*
X141250Y275595D01*
D02*
G37*
G36*
X194250Y280121D02*
X190595Y279640D01*
X187190Y278229D01*
X184265Y275985D01*
X182021Y273060D01*
X180610Y269655D01*
X180129Y266000D01*
X180610Y262345D01*
X182021Y258940D01*
X184265Y256015D01*
X187190Y253771D01*
X190595Y252360D01*
X194250Y251879D01*
X197905Y252360D01*
X201310Y253771D01*
X204235Y256015D01*
X206479Y258940D01*
X207890Y262345D01*
X208371Y266000D01*
X207890Y269655D01*
X206479Y273060D01*
X204235Y275985D01*
X201310Y278229D01*
X197905Y279640D01*
X194250Y280121D01*
D02*
G37*
G36*
X287750Y325323D02*
X284809Y325033D01*
X281982Y324175D01*
X279376Y322782D01*
X277092Y320908D01*
X275218Y318624D01*
X273825Y316018D01*
X272967Y313190D01*
X272677Y310250D01*
Y266743D01*
X126092Y120158D01*
X124218Y117874D01*
X122825Y115268D01*
X121967Y112441D01*
X121677Y109500D01*
Y61593D01*
X120825Y59997D01*
X119967Y57170D01*
X119677Y54229D01*
Y43459D01*
X116791Y40573D01*
X103593D01*
X102500Y41000D01*
X102500Y41843D01*
Y72000D01*
X71500D01*
Y41843D01*
X71500Y41000D01*
X70407Y40573D01*
X54959D01*
X52073Y43459D01*
Y52792D01*
X52276Y53461D01*
X52575Y56500D01*
X52276Y59538D01*
X51389Y62460D01*
X49950Y65153D01*
X48013Y67513D01*
X45653Y69450D01*
X42960Y70889D01*
X40038Y71776D01*
X37000Y72075D01*
X33962Y71776D01*
X31040Y70889D01*
X28347Y69450D01*
X25987Y67513D01*
X24050Y65153D01*
X22611Y62460D01*
X21724Y59538D01*
X21425Y56500D01*
X21724Y53461D01*
X21927Y52792D01*
Y37216D01*
X22217Y34275D01*
X23075Y31448D01*
X24468Y28842D01*
X26342Y26558D01*
X38058Y14842D01*
X40342Y12968D01*
X42948Y11575D01*
X45775Y10717D01*
X48716Y10427D01*
X123034D01*
X125975Y10717D01*
X128802Y11575D01*
X131408Y12968D01*
X133692Y14842D01*
X145408Y26558D01*
X147282Y28842D01*
X148675Y31448D01*
X149533Y34275D01*
X149823Y37216D01*
Y48076D01*
X151139Y50540D01*
X152026Y53461D01*
X152325Y56500D01*
X152026Y59538D01*
X151823Y60208D01*
Y103257D01*
X281734Y233168D01*
X282811Y232449D01*
X281860Y230155D01*
X281379Y226500D01*
X281860Y222845D01*
X283271Y219440D01*
X285515Y216515D01*
X288440Y214271D01*
X291845Y212860D01*
X295500Y212379D01*
X299155Y212860D01*
X302560Y214271D01*
X305485Y216515D01*
X307729Y219440D01*
X309140Y222845D01*
X309621Y226500D01*
X309140Y230155D01*
X307729Y233560D01*
X305485Y236485D01*
X302560Y238729D01*
X299155Y240140D01*
X295500Y240621D01*
X291845Y240140D01*
X289551Y239189D01*
X288832Y240266D01*
X298408Y249842D01*
X300282Y252126D01*
X301675Y254732D01*
X302533Y257560D01*
X302823Y260500D01*
Y310250D01*
X302533Y313190D01*
X301675Y316018D01*
X300282Y318624D01*
X298408Y320908D01*
X296124Y322782D01*
X293518Y324175D01*
X290690Y325033D01*
X287750Y325323D01*
D02*
G37*
G36*
X194250Y228121D02*
X190595Y227640D01*
X187190Y226229D01*
X184265Y223985D01*
X182021Y221060D01*
X180610Y217655D01*
X180129Y214000D01*
X180610Y210345D01*
X182021Y206940D01*
X184265Y204015D01*
X187190Y201771D01*
X190595Y200360D01*
X194250Y199879D01*
X197905Y200360D01*
X201310Y201771D01*
X204235Y204015D01*
X206479Y206940D01*
X207890Y210345D01*
X208371Y214000D01*
X207890Y217655D01*
X206479Y221060D01*
X204235Y223985D01*
X201310Y226229D01*
X197905Y227640D01*
X194250Y228121D01*
D02*
G37*
G36*
X102250Y195621D02*
X98595Y195140D01*
X95190Y193729D01*
X92265Y191485D01*
X90021Y188560D01*
X88610Y185155D01*
X88129Y181500D01*
X88610Y177845D01*
X90021Y174440D01*
X92265Y171515D01*
X95190Y169271D01*
X98595Y167860D01*
X102250Y167379D01*
X105905Y167860D01*
X109310Y169271D01*
X112235Y171515D01*
X114479Y174440D01*
X115890Y177845D01*
X116371Y181500D01*
X115890Y185155D01*
X114479Y188560D01*
X112235Y191485D01*
X109310Y193729D01*
X105905Y195140D01*
X102250Y195621D01*
D02*
G37*
G36*
X50250D02*
X46595Y195140D01*
X43190Y193729D01*
X40265Y191485D01*
X38021Y188560D01*
X36610Y185155D01*
X36129Y181500D01*
X36610Y177845D01*
X38021Y174440D01*
X40265Y171515D01*
X43190Y169271D01*
X46595Y167860D01*
X50250Y167379D01*
X53905Y167860D01*
X57310Y169271D01*
X60235Y171515D01*
X62479Y174440D01*
X63890Y177845D01*
X64371Y181500D01*
X63890Y185155D01*
X62479Y188560D01*
X60235Y191485D01*
X57310Y193729D01*
X53905Y195140D01*
X50250Y195621D01*
D02*
G37*
G36*
X295500Y188621D02*
X291845Y188140D01*
X288440Y186729D01*
X285515Y184485D01*
X283271Y181560D01*
X281860Y178155D01*
X281379Y174500D01*
X281860Y170845D01*
X283271Y167440D01*
X285515Y164515D01*
X288440Y162271D01*
X291845Y160860D01*
X295500Y160379D01*
X299155Y160860D01*
X302560Y162271D01*
X305485Y164515D01*
X307729Y167440D01*
X309140Y170845D01*
X309621Y174500D01*
X309140Y178155D01*
X307729Y181560D01*
X305485Y184485D01*
X302560Y186729D01*
X299155Y188140D01*
X295500Y188621D01*
D02*
G37*
G36*
X245250Y175595D02*
X242378Y175217D01*
X239703Y174109D01*
X237405Y172345D01*
X235641Y170047D01*
X234533Y167372D01*
X234155Y164500D01*
X234533Y161628D01*
X235641Y158953D01*
X237405Y156655D01*
X239703Y154892D01*
X242378Y153783D01*
X245250Y153405D01*
X248122Y153783D01*
X250797Y154892D01*
X253095Y156655D01*
X254858Y158953D01*
X255967Y161628D01*
X256345Y164500D01*
X255967Y167372D01*
X254858Y170047D01*
X253095Y172345D01*
X250797Y174109D01*
X248122Y175217D01*
X245250Y175595D01*
D02*
G37*
G36*
X141250D02*
X138378Y175217D01*
X135703Y174109D01*
X133405Y172345D01*
X131642Y170047D01*
X130533Y167372D01*
X130155Y164500D01*
X130533Y161628D01*
X131642Y158953D01*
X133405Y156655D01*
X135703Y154892D01*
X138378Y153783D01*
X141250Y153405D01*
X144122Y153783D01*
X146797Y154892D01*
X149095Y156655D01*
X150858Y158953D01*
X151967Y161628D01*
X152345Y164500D01*
X151967Y167372D01*
X150858Y170047D01*
X149095Y172345D01*
X146797Y174109D01*
X144122Y175217D01*
X141250Y175595D01*
D02*
G37*
G36*
X300770Y63240D02*
Y51020D01*
X312990D01*
X312691Y53285D01*
X311327Y56578D01*
X309157Y59407D01*
X306328Y61577D01*
X303035Y62941D01*
X300770Y63240D01*
D02*
G37*
G36*
X298230D02*
X295965Y62941D01*
X292672Y61577D01*
X289843Y59407D01*
X287673Y56578D01*
X286308Y53285D01*
X286010Y51020D01*
X298230D01*
Y63240D01*
D02*
G37*
G36*
X202250Y72000D02*
X171250D01*
Y41000D01*
X202250D01*
Y72000D01*
D02*
G37*
G36*
X312990Y48480D02*
X300770D01*
Y36260D01*
X303035Y36558D01*
X306328Y37923D01*
X309157Y40093D01*
X311327Y42922D01*
X312691Y46215D01*
X312990Y48480D01*
D02*
G37*
G36*
X298230D02*
X286010D01*
X286308Y46215D01*
X287673Y42922D01*
X289843Y40093D01*
X292672Y37923D01*
X295965Y36558D01*
X298230Y36260D01*
Y48480D01*
D02*
G37*
%LPD*%
D10*
X172250Y574500D02*
Y603750D01*
X199500Y631000D02*
Y680578D01*
X172250Y603750D02*
X199500Y631000D01*
X172250Y574500D02*
X199500Y547250D01*
Y429250D02*
Y547250D01*
X209000Y589500D02*
X281250Y517250D01*
X187000Y589500D02*
X209000D01*
X199500Y680578D02*
X207000Y688078D01*
X281250Y517250D02*
X303000D01*
X207000Y688078D02*
Y688500D01*
D52*
X185500Y424007D02*
X193757Y415750D01*
X185500Y424007D02*
Y428750D01*
X193757Y415750D02*
X260750D01*
X272750Y427750D01*
D54*
X78750Y298750D02*
X212534D01*
X224250Y310466D02*
Y330250D01*
X212534Y298750D02*
X224250Y310466D01*
X63250Y283250D02*
X78750Y298750D01*
X63250Y253250D02*
Y283250D01*
X48716Y25500D02*
X123034D01*
X136750Y56229D02*
Y56500D01*
X134750Y54229D02*
X136750Y56229D01*
X134750Y37216D02*
Y54229D01*
X123034Y25500D02*
X134750Y37216D01*
X37000D02*
Y56500D01*
Y37216D02*
X48716Y25500D01*
X136750Y56500D02*
Y109500D01*
X287750Y260500D02*
Y310250D01*
X136750Y109500D02*
X287750Y260500D01*
D56*
X172250Y330250D02*
D03*
X224250D02*
D03*
X102250Y181500D02*
D03*
X50250D02*
D03*
X287750Y362250D02*
D03*
Y310250D02*
D03*
X295500Y174500D02*
D03*
Y226500D02*
D03*
X194250Y266000D02*
D03*
Y214000D02*
D03*
D57*
X299500Y49750D02*
D03*
D58*
X82400Y423600D02*
D03*
D59*
X57000D02*
D03*
X31600D02*
D03*
Y347400D02*
D03*
X57000D02*
D03*
X82400D02*
D03*
D60*
X124550Y424600D02*
D03*
X149950D02*
D03*
Y348400D02*
D03*
D61*
X124550D02*
D03*
D62*
X19500Y551850D02*
D03*
X309250Y566300D02*
D03*
D63*
X19500Y526450D02*
D03*
Y501050D02*
D03*
Y475650D02*
D03*
Y450250D02*
D03*
X309250Y591700D02*
D03*
Y617100D02*
D03*
Y642500D02*
D03*
Y667900D02*
D03*
D64*
X88900Y625250D02*
D03*
D65*
X63500D02*
D03*
X38100D02*
D03*
D66*
X37850Y253250D02*
D03*
X63250D02*
D03*
D67*
X88650D02*
D03*
D68*
X141250Y264500D02*
D03*
Y164500D02*
D03*
X245250Y264500D02*
D03*
Y164500D02*
D03*
D69*
X137000Y812500D02*
D03*
X237000D02*
D03*
X87000Y56500D02*
D03*
X186750D02*
D03*
X37000Y812500D02*
D03*
D70*
X187000D02*
D03*
X287000D02*
D03*
X37000Y56500D02*
D03*
X136750D02*
D03*
X87000Y812500D02*
D03*
D71*
X222000Y686750D02*
D03*
X187000Y589500D02*
D03*
X116250Y535250D02*
D03*
X199500Y429250D02*
D03*
X163750Y488250D02*
D03*
X165250Y540250D02*
D03*
X307000Y486500D02*
D03*
X214250Y428250D02*
D03*
X185500Y428750D02*
D03*
X272750Y427750D02*
D03*
X258750Y436750D02*
D03*
X126750Y466500D02*
D03*
X143500Y577500D02*
D03*
X284500Y664500D02*
D03*
X267750Y566250D02*
D03*
X313000Y507500D02*
D03*
X303000Y517250D02*
D03*
X207000Y688500D02*
D03*
M02*
