G04*
G04 #@! TF.GenerationSoftware,Altium Limited,Altium Designer,20.0.13 (296)*
G04*
G04 Layer_Color=8388736*
%FSLAX44Y44*%
%MOMM*%
G71*
G01*
G75*
%ADD26R,0.7032X0.8032*%
%ADD27R,0.8032X0.7032*%
%ADD28R,1.8032X1.8032*%
G04:AMPARAMS|DCode=29|XSize=1.6732mm|YSize=0.4832mm|CornerRadius=0.1366mm|HoleSize=0mm|Usage=FLASHONLY|Rotation=0.000|XOffset=0mm|YOffset=0mm|HoleType=Round|Shape=RoundedRectangle|*
%AMROUNDEDRECTD29*
21,1,1.6732,0.2100,0,0,0.0*
21,1,1.4000,0.4832,0,0,0.0*
1,1,0.2732,0.7000,-0.1050*
1,1,0.2732,-0.7000,-0.1050*
1,1,0.2732,-0.7000,0.1050*
1,1,0.2732,0.7000,0.1050*
%
%ADD29ROUNDEDRECTD29*%
G04:AMPARAMS|DCode=30|XSize=1.6732mm|YSize=0.4832mm|CornerRadius=0.1366mm|HoleSize=0mm|Usage=FLASHONLY|Rotation=270.000|XOffset=0mm|YOffset=0mm|HoleType=Round|Shape=RoundedRectangle|*
%AMROUNDEDRECTD30*
21,1,1.6732,0.2100,0,0,270.0*
21,1,1.4000,0.4832,0,0,270.0*
1,1,0.2732,-0.1050,-0.7000*
1,1,0.2732,-0.1050,0.7000*
1,1,0.2732,0.1050,0.7000*
1,1,0.2732,0.1050,-0.7000*
%
%ADD30ROUNDEDRECTD30*%
%ADD31R,2.3232X1.7032*%
%ADD32R,2.9972X4.0132*%
%ADD33R,1.1532X2.3532*%
%ADD34R,3.4532X2.3532*%
%ADD35R,1.2200X1.3700*%
%ADD36C,1.9200*%
%ADD37C,2.4032*%
%ADD38R,1.4632X1.4632*%
%ADD39C,1.4632*%
%ADD40O,1.5240X2.8448*%
%ADD41R,1.5240X2.8448*%
%ADD42R,1.7032X1.7032*%
%ADD43C,1.7032*%
%ADD44R,1.7112X1.7112*%
%ADD45C,1.7112*%
%ADD46C,2.1132*%
%ADD47R,2.1132X2.1132*%
%ADD48C,1.4032*%
%ADD49R,2.3032X2.3032*%
%ADD50C,2.3032*%
D26*
X99250Y547250D02*
D03*
X109500D02*
D03*
X110500Y489750D02*
D03*
X100250D02*
D03*
X100500Y475750D02*
D03*
X110750D02*
D03*
X241000Y589250D02*
D03*
X251250D02*
D03*
X312750Y545250D02*
D03*
X302500D02*
D03*
X143750Y589000D02*
D03*
X133500D02*
D03*
X303000Y531500D02*
D03*
X313000D02*
D03*
X105500Y458500D02*
D03*
X115500D02*
D03*
X308000Y427000D02*
D03*
X298000D02*
D03*
D27*
X234750Y704000D02*
D03*
Y694000D02*
D03*
X229500Y436500D02*
D03*
Y426250D02*
D03*
X207000Y699750D02*
D03*
Y709750D02*
D03*
X191500D02*
D03*
Y699750D02*
D03*
X267750Y578250D02*
D03*
Y588500D02*
D03*
X244500Y436750D02*
D03*
Y426500D02*
D03*
X270250Y506000D02*
D03*
Y516000D02*
D03*
X273000Y451000D02*
D03*
Y441000D02*
D03*
X82250Y458000D02*
D03*
Y448000D02*
D03*
D28*
X255750Y630750D02*
D03*
Y662750D02*
D03*
X143500Y632000D02*
D03*
Y664000D02*
D03*
D29*
X136300Y551000D02*
D03*
Y546000D02*
D03*
Y541000D02*
D03*
Y536000D02*
D03*
Y531000D02*
D03*
Y526000D02*
D03*
Y521000D02*
D03*
Y516000D02*
D03*
Y511000D02*
D03*
Y506000D02*
D03*
Y501000D02*
D03*
Y496000D02*
D03*
Y491000D02*
D03*
Y486000D02*
D03*
Y481000D02*
D03*
Y476000D02*
D03*
X249700D02*
D03*
Y481000D02*
D03*
Y486000D02*
D03*
Y491000D02*
D03*
Y496000D02*
D03*
Y501000D02*
D03*
Y506000D02*
D03*
Y511000D02*
D03*
Y516000D02*
D03*
Y521000D02*
D03*
Y526000D02*
D03*
Y531000D02*
D03*
Y536000D02*
D03*
Y541000D02*
D03*
Y546000D02*
D03*
Y551000D02*
D03*
D30*
X230500Y570200D02*
D03*
X225500D02*
D03*
X220500D02*
D03*
X215500D02*
D03*
X210500D02*
D03*
X205500D02*
D03*
X200500D02*
D03*
X195500D02*
D03*
X190500D02*
D03*
X185500D02*
D03*
X180500D02*
D03*
X175500D02*
D03*
X170500D02*
D03*
X165500D02*
D03*
X160500D02*
D03*
X155500D02*
D03*
Y456800D02*
D03*
X160500D02*
D03*
X165500D02*
D03*
X170500D02*
D03*
X175500D02*
D03*
X180500D02*
D03*
X185500D02*
D03*
X190500D02*
D03*
X195500D02*
D03*
X200500D02*
D03*
X205500D02*
D03*
X210500D02*
D03*
X215500D02*
D03*
X220500D02*
D03*
X225500D02*
D03*
X230500D02*
D03*
D31*
X300400Y702500D02*
D03*
X258100D02*
D03*
D32*
X26065Y689250D02*
D03*
X97435D02*
D03*
D33*
X174000Y611500D02*
D03*
X197000D02*
D03*
X220000D02*
D03*
D34*
X197000Y669500D02*
D03*
D35*
X306500Y443000D02*
D03*
Y466000D02*
D03*
X290250Y443250D02*
D03*
Y466250D02*
D03*
D36*
X172250Y330250D02*
D03*
X224250D02*
D03*
X102250Y181500D02*
D03*
X50250D02*
D03*
X287750Y362250D02*
D03*
Y310250D02*
D03*
X295500Y174500D02*
D03*
Y226500D02*
D03*
X194250Y266000D02*
D03*
Y214000D02*
D03*
D37*
X299500Y49750D02*
D03*
D38*
X82400Y423600D02*
D03*
D39*
X57000D02*
D03*
X31600D02*
D03*
Y347400D02*
D03*
X57000D02*
D03*
X82400D02*
D03*
D40*
X124550Y424600D02*
D03*
X149950D02*
D03*
Y348400D02*
D03*
D41*
X124550D02*
D03*
D42*
X19500Y551850D02*
D03*
X309250Y566300D02*
D03*
D43*
X19500Y526450D02*
D03*
Y501050D02*
D03*
Y475650D02*
D03*
Y450250D02*
D03*
X309250Y591700D02*
D03*
Y617100D02*
D03*
Y642500D02*
D03*
Y667900D02*
D03*
D44*
X88900Y625250D02*
D03*
D45*
X63500D02*
D03*
X38100D02*
D03*
D46*
X37850Y253250D02*
D03*
X63250D02*
D03*
D47*
X88650D02*
D03*
D48*
X141250Y264500D02*
D03*
Y164500D02*
D03*
X245250Y264500D02*
D03*
Y164500D02*
D03*
D49*
X137000Y812500D02*
D03*
X237000D02*
D03*
X87000Y56500D02*
D03*
X186750D02*
D03*
X37000Y812500D02*
D03*
D50*
X187000D02*
D03*
X287000D02*
D03*
X37000Y56500D02*
D03*
X136750D02*
D03*
X87000Y812500D02*
D03*
M02*
