M48
;Layer_Color=9474304
;FILE_FORMAT=4:4
METRIC,LZ
;TYPE=PLATED
T1F00S00C0.3000
T2F00S00C0.8128
T3F00S00C0.8400
T4F00S00C0.8500
T5F00S00C0.9000
T6F00S00C1.0000
T7F00S00C1.2700
T8F00S00C1.4000
T9F00S00C1.5000
%
T01
X0012675Y004665
X0016375Y0048825
X0016525Y0054025
X0011625Y0053525
X00268625Y00531125
X00303Y0051725
X00313Y005075
X00307Y004865
X0027275Y0042775
X0025875Y0043675
X0021425Y0042825
X001995Y0042925
X001855Y0042875
X001435Y005775
X0026775Y0056625
X002845Y006645
X00207Y006885
T02
X0012455Y003484
X0014995
Y004246
X0012455
T03
X00057Y003474
X000824
Y004236
X00057
X000316
Y003474
T04
X0014125Y001645
Y002645
X0024525
Y001645
T05
X0005025Y001815
X0010225
X0019425Y00214
Y00266
X0017225Y0033025
X0022425
X0028775Y0031025
Y0036225
X002955Y002265
Y001745
X000195Y0045025
Y0047565
Y0050105
Y0052645
Y0055185
X0030925Y005663
Y005917
Y006171
Y006425
Y006679
T06
X000381Y0062525
X000635
X000889
T07
X0006325Y0025325
X0008865
X0003785
T08
X00037Y000565
X00087
X0013675
X0018675
X00037Y008125
X00087
X00137
X00187
X00237
X00287
T09
X002995Y0004975
M30
